G04 #@! TF.FileFunction,Legend,Top*
%FSLAX46Y46*%
G04 Gerber Fmt 4.6, Leading zero omitted, Abs format (unit mm)*
G04 Created by KiCad (PCBNEW 4.0.7-e2-6376~58~ubuntu16.04.1) date Sat Jul  7 10:01:01 2018*
%MOMM*%
%LPD*%
G01*
G04 APERTURE LIST*
%ADD10C,0.100000*%
%ADD11C,0.120000*%
%ADD12C,0.150000*%
G04 APERTURE END LIST*
D10*
D11*
X155880000Y-89390000D02*
X155880000Y-90090000D01*
X154680000Y-90090000D02*
X154680000Y-89390000D01*
X157050000Y-89070000D02*
X157050000Y-89570000D01*
X157990000Y-89570000D02*
X157990000Y-89070000D01*
X156110000Y-89070000D02*
X156110000Y-89570000D01*
X157050000Y-89570000D02*
X157050000Y-89070000D01*
X154330000Y-104452500D02*
G75*
G03X154330000Y-104452500I-250000J0D01*
G01*
X154680000Y-109277500D02*
X160480000Y-109277500D01*
X153580000Y-107377500D02*
X153580000Y-105027500D01*
X153580000Y-105027500D02*
X154480000Y-105027500D01*
X154080000Y-105027500D02*
X154080000Y-106227500D01*
X154080000Y-106227500D02*
X154080000Y-106227500D01*
X154080000Y-106227500D02*
X154080000Y-105027500D01*
X154080000Y-105027500D02*
X154080000Y-105027500D01*
X154080000Y-105527500D02*
X154080000Y-105527500D01*
X154080000Y-105527500D02*
X153580000Y-105527500D01*
X153580000Y-105527500D02*
X153580000Y-105527500D01*
X153580000Y-105527500D02*
X154080000Y-105527500D01*
X154080000Y-106227500D02*
X154080000Y-106227500D01*
X154080000Y-106227500D02*
X153580000Y-106227500D01*
X153580000Y-106227500D02*
X153580000Y-106227500D01*
X153580000Y-106227500D02*
X154080000Y-106227500D01*
X161580000Y-107377500D02*
X161580000Y-105027500D01*
X161580000Y-105027500D02*
X160680000Y-105027500D01*
X161080000Y-105027500D02*
X161080000Y-106227500D01*
X161080000Y-106227500D02*
X161080000Y-106227500D01*
X161080000Y-106227500D02*
X161080000Y-105027500D01*
X161080000Y-105027500D02*
X161080000Y-105027500D01*
X161080000Y-105527500D02*
X161080000Y-105527500D01*
X161080000Y-105527500D02*
X161580000Y-105527500D01*
X161580000Y-105527500D02*
X161580000Y-105527500D01*
X161580000Y-105527500D02*
X161080000Y-105527500D01*
X161080000Y-106227500D02*
X161080000Y-106227500D01*
X161080000Y-106227500D02*
X161580000Y-106227500D01*
X161580000Y-106227500D02*
X161580000Y-106227500D01*
X161580000Y-106227500D02*
X161080000Y-106227500D01*
X143230000Y-101540000D02*
X142730000Y-101540000D01*
X142730000Y-102600000D02*
X143230000Y-102600000D01*
X143260000Y-97095000D02*
X143260000Y-96595000D01*
X142200000Y-96595000D02*
X142200000Y-97095000D01*
D12*
X161445000Y-88845000D02*
X161220000Y-88845000D01*
X161445000Y-92195000D02*
X161145000Y-92195000D01*
X158095000Y-92195000D02*
X158395000Y-92195000D01*
X158095000Y-88845000D02*
X158395000Y-88845000D01*
X161445000Y-88845000D02*
X161445000Y-92195000D01*
X158095000Y-88845000D02*
X158095000Y-92195000D01*
X161220000Y-88845000D02*
X161220000Y-87620000D01*
X140130000Y-98695000D02*
X140130000Y-100745000D01*
X143430000Y-97990000D02*
X143430000Y-100745000D01*
D11*
X158430000Y-79260000D02*
X158430000Y-79760000D01*
X159370000Y-79760000D02*
X159370000Y-79260000D01*
X158190000Y-81470000D02*
X158690000Y-81470000D01*
X158690000Y-80530000D02*
X158190000Y-80530000D01*
X160870000Y-85300000D02*
X160370000Y-85300000D01*
X160370000Y-86240000D02*
X160870000Y-86240000D01*
X158190000Y-84310000D02*
X158690000Y-84310000D01*
X158690000Y-83370000D02*
X158190000Y-83370000D01*
X158430000Y-85010000D02*
X158430000Y-85510000D01*
X159370000Y-85510000D02*
X159370000Y-85010000D01*
X158430000Y-82170000D02*
X158430000Y-82670000D01*
X159370000Y-82670000D02*
X159370000Y-82170000D01*
X159690000Y-83820000D02*
X159690000Y-84320000D01*
X160630000Y-84320000D02*
X160630000Y-83820000D01*
X160870000Y-86500000D02*
X160370000Y-86500000D01*
X160370000Y-87440000D02*
X160870000Y-87440000D01*
X158690000Y-86500000D02*
X158190000Y-86500000D01*
X158190000Y-87440000D02*
X158690000Y-87440000D01*
X140905000Y-102540000D02*
X141405000Y-102540000D01*
X141405000Y-101600000D02*
X140905000Y-101600000D01*
X143210000Y-104482500D02*
G75*
G03X143210000Y-104482500I-250000J0D01*
G01*
X143560000Y-109307500D02*
X147360000Y-109307500D01*
X142460000Y-107407500D02*
X142460000Y-105057500D01*
X142460000Y-105057500D02*
X143360000Y-105057500D01*
X142960000Y-105057500D02*
X142960000Y-106257500D01*
X142960000Y-106257500D02*
X142960000Y-106257500D01*
X142960000Y-106257500D02*
X142960000Y-105057500D01*
X142960000Y-105057500D02*
X142960000Y-105057500D01*
X142960000Y-105557500D02*
X142960000Y-105557500D01*
X142960000Y-105557500D02*
X142460000Y-105557500D01*
X142460000Y-105557500D02*
X142460000Y-105557500D01*
X142460000Y-105557500D02*
X142960000Y-105557500D01*
X142960000Y-106257500D02*
X142960000Y-106257500D01*
X142960000Y-106257500D02*
X142460000Y-106257500D01*
X142460000Y-106257500D02*
X142460000Y-106257500D01*
X142460000Y-106257500D02*
X142960000Y-106257500D01*
X148460000Y-107407500D02*
X148460000Y-105057500D01*
X148460000Y-105057500D02*
X147560000Y-105057500D01*
X147960000Y-105057500D02*
X147960000Y-106257500D01*
X147960000Y-106257500D02*
X147960000Y-106257500D01*
X147960000Y-106257500D02*
X147960000Y-105057500D01*
X147960000Y-105057500D02*
X147960000Y-105057500D01*
X147960000Y-105557500D02*
X147960000Y-105557500D01*
X147960000Y-105557500D02*
X148460000Y-105557500D01*
X148460000Y-105557500D02*
X148460000Y-105557500D01*
X148460000Y-105557500D02*
X147960000Y-105557500D01*
X147960000Y-106257500D02*
X147960000Y-106257500D01*
X147960000Y-106257500D02*
X148460000Y-106257500D01*
X148460000Y-106257500D02*
X148460000Y-106257500D01*
X148460000Y-106257500D02*
X147960000Y-106257500D01*
D12*
X155187143Y-92136666D02*
X155234762Y-92184285D01*
X155282381Y-92327142D01*
X155282381Y-92422380D01*
X155234762Y-92565238D01*
X155139524Y-92660476D01*
X155044286Y-92708095D01*
X154853810Y-92755714D01*
X154710952Y-92755714D01*
X154520476Y-92708095D01*
X154425238Y-92660476D01*
X154330000Y-92565238D01*
X154282381Y-92422380D01*
X154282381Y-92327142D01*
X154330000Y-92184285D01*
X154377619Y-92136666D01*
X154282381Y-91803333D02*
X154282381Y-91136666D01*
X155282381Y-91565238D01*
X157687143Y-92136666D02*
X157734762Y-92184285D01*
X157782381Y-92327142D01*
X157782381Y-92422380D01*
X157734762Y-92565238D01*
X157639524Y-92660476D01*
X157544286Y-92708095D01*
X157353810Y-92755714D01*
X157210952Y-92755714D01*
X157020476Y-92708095D01*
X156925238Y-92660476D01*
X156830000Y-92565238D01*
X156782381Y-92422380D01*
X156782381Y-92327142D01*
X156830000Y-92184285D01*
X156877619Y-92136666D01*
X157210952Y-91565238D02*
X157163333Y-91660476D01*
X157115714Y-91708095D01*
X157020476Y-91755714D01*
X156972857Y-91755714D01*
X156877619Y-91708095D01*
X156830000Y-91660476D01*
X156782381Y-91565238D01*
X156782381Y-91374761D01*
X156830000Y-91279523D01*
X156877619Y-91231904D01*
X156972857Y-91184285D01*
X157020476Y-91184285D01*
X157115714Y-91231904D01*
X157163333Y-91279523D01*
X157210952Y-91374761D01*
X157210952Y-91565238D01*
X157258571Y-91660476D01*
X157306190Y-91708095D01*
X157401429Y-91755714D01*
X157591905Y-91755714D01*
X157687143Y-91708095D01*
X157734762Y-91660476D01*
X157782381Y-91565238D01*
X157782381Y-91374761D01*
X157734762Y-91279523D01*
X157687143Y-91231904D01*
X157591905Y-91184285D01*
X157401429Y-91184285D01*
X157306190Y-91231904D01*
X157258571Y-91279523D01*
X157210952Y-91374761D01*
X156437143Y-92136666D02*
X156484762Y-92184285D01*
X156532381Y-92327142D01*
X156532381Y-92422380D01*
X156484762Y-92565238D01*
X156389524Y-92660476D01*
X156294286Y-92708095D01*
X156103810Y-92755714D01*
X155960952Y-92755714D01*
X155770476Y-92708095D01*
X155675238Y-92660476D01*
X155580000Y-92565238D01*
X155532381Y-92422380D01*
X155532381Y-92327142D01*
X155580000Y-92184285D01*
X155627619Y-92136666D01*
X156532381Y-91660476D02*
X156532381Y-91470000D01*
X156484762Y-91374761D01*
X156437143Y-91327142D01*
X156294286Y-91231904D01*
X156103810Y-91184285D01*
X155722857Y-91184285D01*
X155627619Y-91231904D01*
X155580000Y-91279523D01*
X155532381Y-91374761D01*
X155532381Y-91565238D01*
X155580000Y-91660476D01*
X155627619Y-91708095D01*
X155722857Y-91755714D01*
X155960952Y-91755714D01*
X156056190Y-91708095D01*
X156103810Y-91660476D01*
X156151429Y-91565238D01*
X156151429Y-91374761D01*
X156103810Y-91279523D01*
X156056190Y-91231904D01*
X155960952Y-91184285D01*
X153386667Y-102072381D02*
X153386667Y-102786667D01*
X153339047Y-102929524D01*
X153243809Y-103024762D01*
X153100952Y-103072381D01*
X153005714Y-103072381D01*
X154386667Y-103072381D02*
X153815238Y-103072381D01*
X154100952Y-103072381D02*
X154100952Y-102072381D01*
X154005714Y-102215238D01*
X153910476Y-102310476D01*
X153815238Y-102358095D01*
X144683334Y-102612381D02*
X144350000Y-102136190D01*
X144111905Y-102612381D02*
X144111905Y-101612381D01*
X144492858Y-101612381D01*
X144588096Y-101660000D01*
X144635715Y-101707619D01*
X144683334Y-101802857D01*
X144683334Y-101945714D01*
X144635715Y-102040952D01*
X144588096Y-102088571D01*
X144492858Y-102136190D01*
X144111905Y-102136190D01*
X145635715Y-102612381D02*
X145064286Y-102612381D01*
X145350000Y-102612381D02*
X145350000Y-101612381D01*
X145254762Y-101755238D01*
X145159524Y-101850476D01*
X145064286Y-101898095D01*
X144532381Y-97011666D02*
X144056190Y-97345000D01*
X144532381Y-97583095D02*
X143532381Y-97583095D01*
X143532381Y-97202142D01*
X143580000Y-97106904D01*
X143627619Y-97059285D01*
X143722857Y-97011666D01*
X143865714Y-97011666D01*
X143960952Y-97059285D01*
X144008571Y-97106904D01*
X144056190Y-97202142D01*
X144056190Y-97583095D01*
X143627619Y-96630714D02*
X143580000Y-96583095D01*
X143532381Y-96487857D01*
X143532381Y-96249761D01*
X143580000Y-96154523D01*
X143627619Y-96106904D01*
X143722857Y-96059285D01*
X143818095Y-96059285D01*
X143960952Y-96106904D01*
X144532381Y-96678333D01*
X144532381Y-96059285D01*
X161782381Y-91481905D02*
X162591905Y-91481905D01*
X162687143Y-91434286D01*
X162734762Y-91386667D01*
X162782381Y-91291429D01*
X162782381Y-91100952D01*
X162734762Y-91005714D01*
X162687143Y-90958095D01*
X162591905Y-90910476D01*
X161782381Y-90910476D01*
X162782381Y-89910476D02*
X162782381Y-90481905D01*
X162782381Y-90196191D02*
X161782381Y-90196191D01*
X161925238Y-90291429D01*
X162020476Y-90386667D01*
X162068095Y-90481905D01*
X143807381Y-100481905D02*
X144616905Y-100481905D01*
X144712143Y-100434286D01*
X144759762Y-100386667D01*
X144807381Y-100291429D01*
X144807381Y-100100952D01*
X144759762Y-100005714D01*
X144712143Y-99958095D01*
X144616905Y-99910476D01*
X143807381Y-99910476D01*
X143902619Y-99481905D02*
X143855000Y-99434286D01*
X143807381Y-99339048D01*
X143807381Y-99100952D01*
X143855000Y-99005714D01*
X143902619Y-98958095D01*
X143997857Y-98910476D01*
X144093095Y-98910476D01*
X144235952Y-98958095D01*
X144807381Y-99529524D01*
X144807381Y-98910476D01*
X157987143Y-79676666D02*
X158034762Y-79724285D01*
X158082381Y-79867142D01*
X158082381Y-79962380D01*
X158034762Y-80105238D01*
X157939524Y-80200476D01*
X157844286Y-80248095D01*
X157653810Y-80295714D01*
X157510952Y-80295714D01*
X157320476Y-80248095D01*
X157225238Y-80200476D01*
X157130000Y-80105238D01*
X157082381Y-79962380D01*
X157082381Y-79867142D01*
X157130000Y-79724285D01*
X157177619Y-79676666D01*
X158082381Y-78724285D02*
X158082381Y-79295714D01*
X158082381Y-79010000D02*
X157082381Y-79010000D01*
X157225238Y-79105238D01*
X157320476Y-79200476D01*
X157368095Y-79295714D01*
X156103334Y-81377143D02*
X156055715Y-81424762D01*
X155912858Y-81472381D01*
X155817620Y-81472381D01*
X155674762Y-81424762D01*
X155579524Y-81329524D01*
X155531905Y-81234286D01*
X155484286Y-81043810D01*
X155484286Y-80900952D01*
X155531905Y-80710476D01*
X155579524Y-80615238D01*
X155674762Y-80520000D01*
X155817620Y-80472381D01*
X155912858Y-80472381D01*
X156055715Y-80520000D01*
X156103334Y-80567619D01*
X156484286Y-80567619D02*
X156531905Y-80520000D01*
X156627143Y-80472381D01*
X156865239Y-80472381D01*
X156960477Y-80520000D01*
X157008096Y-80567619D01*
X157055715Y-80662857D01*
X157055715Y-80758095D01*
X157008096Y-80900952D01*
X156436667Y-81472381D01*
X157055715Y-81472381D01*
X162653334Y-85927143D02*
X162605715Y-85974762D01*
X162462858Y-86022381D01*
X162367620Y-86022381D01*
X162224762Y-85974762D01*
X162129524Y-85879524D01*
X162081905Y-85784286D01*
X162034286Y-85593810D01*
X162034286Y-85450952D01*
X162081905Y-85260476D01*
X162129524Y-85165238D01*
X162224762Y-85070000D01*
X162367620Y-85022381D01*
X162462858Y-85022381D01*
X162605715Y-85070000D01*
X162653334Y-85117619D01*
X162986667Y-85022381D02*
X163605715Y-85022381D01*
X163272381Y-85403333D01*
X163415239Y-85403333D01*
X163510477Y-85450952D01*
X163558096Y-85498571D01*
X163605715Y-85593810D01*
X163605715Y-85831905D01*
X163558096Y-85927143D01*
X163510477Y-85974762D01*
X163415239Y-86022381D01*
X163129524Y-86022381D01*
X163034286Y-85974762D01*
X162986667Y-85927143D01*
X156103334Y-84237143D02*
X156055715Y-84284762D01*
X155912858Y-84332381D01*
X155817620Y-84332381D01*
X155674762Y-84284762D01*
X155579524Y-84189524D01*
X155531905Y-84094286D01*
X155484286Y-83903810D01*
X155484286Y-83760952D01*
X155531905Y-83570476D01*
X155579524Y-83475238D01*
X155674762Y-83380000D01*
X155817620Y-83332381D01*
X155912858Y-83332381D01*
X156055715Y-83380000D01*
X156103334Y-83427619D01*
X156960477Y-83665714D02*
X156960477Y-84332381D01*
X156722381Y-83284762D02*
X156484286Y-83999048D01*
X157103334Y-83999048D01*
X158107143Y-85456666D02*
X158154762Y-85504285D01*
X158202381Y-85647142D01*
X158202381Y-85742380D01*
X158154762Y-85885238D01*
X158059524Y-85980476D01*
X157964286Y-86028095D01*
X157773810Y-86075714D01*
X157630952Y-86075714D01*
X157440476Y-86028095D01*
X157345238Y-85980476D01*
X157250000Y-85885238D01*
X157202381Y-85742380D01*
X157202381Y-85647142D01*
X157250000Y-85504285D01*
X157297619Y-85456666D01*
X157202381Y-84599523D02*
X157202381Y-84790000D01*
X157250000Y-84885238D01*
X157297619Y-84932857D01*
X157440476Y-85028095D01*
X157630952Y-85075714D01*
X158011905Y-85075714D01*
X158107143Y-85028095D01*
X158154762Y-84980476D01*
X158202381Y-84885238D01*
X158202381Y-84694761D01*
X158154762Y-84599523D01*
X158107143Y-84551904D01*
X158011905Y-84504285D01*
X157773810Y-84504285D01*
X157678571Y-84551904D01*
X157630952Y-84599523D01*
X157583333Y-84694761D01*
X157583333Y-84885238D01*
X157630952Y-84980476D01*
X157678571Y-85028095D01*
X157773810Y-85075714D01*
X158162381Y-82586666D02*
X158162381Y-83062857D01*
X157162381Y-83062857D01*
X158162381Y-81729523D02*
X158162381Y-82300952D01*
X158162381Y-82015238D02*
X157162381Y-82015238D01*
X157305238Y-82110476D01*
X157400476Y-82205714D01*
X157448095Y-82300952D01*
X161912381Y-84176666D02*
X161912381Y-84652857D01*
X160912381Y-84652857D01*
X161007619Y-83890952D02*
X160960000Y-83843333D01*
X160912381Y-83748095D01*
X160912381Y-83509999D01*
X160960000Y-83414761D01*
X161007619Y-83367142D01*
X161102857Y-83319523D01*
X161198095Y-83319523D01*
X161340952Y-83367142D01*
X161912381Y-83938571D01*
X161912381Y-83319523D01*
X162613334Y-87522381D02*
X162137143Y-87522381D01*
X162137143Y-86522381D01*
X162851429Y-86522381D02*
X163470477Y-86522381D01*
X163137143Y-86903333D01*
X163280001Y-86903333D01*
X163375239Y-86950952D01*
X163422858Y-86998571D01*
X163470477Y-87093810D01*
X163470477Y-87331905D01*
X163422858Y-87427143D01*
X163375239Y-87474762D01*
X163280001Y-87522381D01*
X162994286Y-87522381D01*
X162899048Y-87474762D01*
X162851429Y-87427143D01*
X155913334Y-87592381D02*
X155437143Y-87592381D01*
X155437143Y-86592381D01*
X156675239Y-86925714D02*
X156675239Y-87592381D01*
X156437143Y-86544762D02*
X156199048Y-87259048D01*
X156818096Y-87259048D01*
X140512143Y-103697143D02*
X140464524Y-103744762D01*
X140321667Y-103792381D01*
X140226429Y-103792381D01*
X140083571Y-103744762D01*
X139988333Y-103649524D01*
X139940714Y-103554286D01*
X139893095Y-103363810D01*
X139893095Y-103220952D01*
X139940714Y-103030476D01*
X139988333Y-102935238D01*
X140083571Y-102840000D01*
X140226429Y-102792381D01*
X140321667Y-102792381D01*
X140464524Y-102840000D01*
X140512143Y-102887619D01*
X141464524Y-103792381D02*
X140893095Y-103792381D01*
X141178809Y-103792381D02*
X141178809Y-102792381D01*
X141083571Y-102935238D01*
X140988333Y-103030476D01*
X140893095Y-103078095D01*
X142083571Y-102792381D02*
X142178810Y-102792381D01*
X142274048Y-102840000D01*
X142321667Y-102887619D01*
X142369286Y-102982857D01*
X142416905Y-103173333D01*
X142416905Y-103411429D01*
X142369286Y-103601905D01*
X142321667Y-103697143D01*
X142274048Y-103744762D01*
X142178810Y-103792381D01*
X142083571Y-103792381D01*
X141988333Y-103744762D01*
X141940714Y-103697143D01*
X141893095Y-103601905D01*
X141845476Y-103411429D01*
X141845476Y-103173333D01*
X141893095Y-102982857D01*
X141940714Y-102887619D01*
X141988333Y-102840000D01*
X142083571Y-102792381D01*
X148321667Y-102022381D02*
X148321667Y-102736667D01*
X148274047Y-102879524D01*
X148178809Y-102974762D01*
X148035952Y-103022381D01*
X147940714Y-103022381D01*
X148750238Y-102117619D02*
X148797857Y-102070000D01*
X148893095Y-102022381D01*
X149131191Y-102022381D01*
X149226429Y-102070000D01*
X149274048Y-102117619D01*
X149321667Y-102212857D01*
X149321667Y-102308095D01*
X149274048Y-102450952D01*
X148702619Y-103022381D01*
X149321667Y-103022381D01*
X144528333Y-83001667D02*
X145004524Y-83001667D01*
X144433095Y-83287381D02*
X144766428Y-82287381D01*
X145099762Y-83287381D01*
X145433095Y-82763571D02*
X145766429Y-82763571D01*
X145909286Y-83287381D02*
X145433095Y-83287381D01*
X145433095Y-82287381D01*
X145909286Y-82287381D01*
X146861667Y-83287381D02*
X146290238Y-83287381D01*
X146575952Y-83287381D02*
X146575952Y-82287381D01*
X146480714Y-82430238D01*
X146385476Y-82525476D01*
X146290238Y-82573095D01*
M02*
