M48
;DRILL file {KiCad 4.0.7-e2-6376~58~ubuntu16.04.1} date Sat Jul  7 10:01:37 2018
;FORMAT={-:-/ absolute / metric / decimal}
FMAT,2
METRIC,TZ
T1C0.254
T2C0.300
T3C0.500
T4C0.610
%
G90
G05
M71
T1
X162.36Y-104.64
T2
X139.08Y-91.47
X139.08Y-93.47
X139.08Y-96.22
X139.08Y-104.47
X140.83Y-93.47
X140.855Y-96.27
X141.08Y-95.47
X141.33Y-107.47
X142.68Y-103.07
X143.005Y-105.32
X143.08Y-93.47
X143.08Y-95.47
X144.33Y-107.97
X145.12Y-99.31
X145.12Y-102.87
X145.13Y-94.77
X150.46Y-94.72
X151.55Y-101.31
X155.08Y-94.72
X155.11Y-102.76
X155.83Y-82.22
X155.83Y-84.22
X155.83Y-86.22
X157.83Y-92.72
X157.83Y-97.22
X157.83Y-100.47
X157.97Y-80.02
X158.08Y-87.95
X159.83Y-90.13
X160.33Y-106.22
X160.39Y-96.3
X160.4Y-94.02
X161.08Y-98.22
X161.08Y-100.22
X161.08Y-102.22
X161.08Y-103.88
X161.83Y-76.97
X161.83Y-78.97
X161.83Y-80.97
X161.83Y-82.97
X162.08Y-89.72
X162.08Y-91.97
X162.08Y-105.72
X162.33Y-96.47
X162.33Y-98.22
X162.69Y-93.91
X162.83Y-87.97
X163.83Y-76.97
X163.83Y-78.97
X163.83Y-80.97
X163.83Y-82.97
X163.83Y-84.97
X163.83Y-86.97
X163.83Y-88.97
X163.83Y-94.97
X163.83Y-96.47
X163.83Y-98.22
X163.83Y-104.47
X164.13Y-90.97
X164.13Y-92.97
T3
X140.37Y-104.85
X141.705Y-102.895
X145.45Y-92.67
X158.77Y-89.93
T4
X140.83Y-91.47
X142.83Y-91.47
X144.83Y-91.47
X146.83Y-91.47
X148.83Y-91.47
X150.83Y-91.47
X152.83Y-91.47
X154.08Y-82.72
X154.08Y-84.72
X154.08Y-86.72
X154.08Y-88.72
X154.08Y-90.72
X154.11Y-80.29
X154.38Y-77.05
X156.32Y-77.07
X156.33Y-80.22
X157.25Y-86.97
X157.77Y-85.4
X157.84Y-82.48
X158.34Y-77.03
X159.95Y-80.48
X159.97Y-77.98
X159.99Y-82.52
X161.83Y-86.97
X162.22Y-85.76
T0
M30
