G04 #@! TF.GenerationSoftware,KiCad,Pcbnew,5.0.0-fee4fd1~66~ubuntu16.04.1*
G04 #@! TF.CreationDate,2018-09-16T20:12:26+02:00*
G04 #@! TF.ProjectId,sensof_ht,73656E736F665F68742E6B696361645F,01*
G04 #@! TF.SameCoordinates,Original*
G04 #@! TF.FileFunction,Copper,L1,Top,Signal*
G04 #@! TF.FilePolarity,Positive*
%FSLAX46Y46*%
G04 Gerber Fmt 4.6, Leading zero omitted, Abs format (unit mm)*
G04 Created by KiCad (PCBNEW 5.0.0-fee4fd1~66~ubuntu16.04.1) date Sun Sep 16 20:12:26 2018*
%MOMM*%
%LPD*%
G01*
G04 APERTURE LIST*
G04 #@! TA.AperFunction,SMDPad,CuDef*
%ADD10R,0.630000X0.450000*%
G04 #@! TD*
G04 #@! TA.AperFunction,SMDPad,CuDef*
%ADD11R,0.850000X1.300000*%
G04 #@! TD*
G04 #@! TA.AperFunction,SMDPad,CuDef*
%ADD12R,0.800000X0.800000*%
G04 #@! TD*
G04 #@! TA.AperFunction,SMDPad,CuDef*
%ADD13R,0.800000X0.750000*%
G04 #@! TD*
G04 #@! TA.AperFunction,BGAPad,CuDef*
%ADD14C,12.700000*%
G04 #@! TD*
G04 #@! TA.AperFunction,SMDPad,CuDef*
%ADD15R,5.000000X3.000000*%
G04 #@! TD*
G04 #@! TA.AperFunction,SMDPad,CuDef*
%ADD16R,1.500000X0.600000*%
G04 #@! TD*
G04 #@! TA.AperFunction,SMDPad,CuDef*
%ADD17R,0.750000X0.800000*%
G04 #@! TD*
G04 #@! TA.AperFunction,SMDPad,CuDef*
%ADD18R,0.500000X0.900000*%
G04 #@! TD*
G04 #@! TA.AperFunction,ViaPad*
%ADD19C,0.600000*%
G04 #@! TD*
G04 #@! TA.AperFunction,ViaPad*
%ADD20C,0.800000*%
G04 #@! TD*
G04 #@! TA.AperFunction,Conductor*
%ADD21C,0.200000*%
G04 #@! TD*
G04 #@! TA.AperFunction,Conductor*
%ADD22C,0.500000*%
G04 #@! TD*
G04 #@! TA.AperFunction,Conductor*
%ADD23C,0.400000*%
G04 #@! TD*
G04 #@! TA.AperFunction,Conductor*
%ADD24C,0.500130*%
G04 #@! TD*
G04 #@! TA.AperFunction,Conductor*
%ADD25C,0.199900*%
G04 #@! TD*
G04 #@! TA.AperFunction,Conductor*
%ADD26C,0.254000*%
G04 #@! TD*
G04 #@! TA.AperFunction,Conductor*
%ADD27C,0.152400*%
G04 #@! TD*
G04 APERTURE END LIST*
D10*
G04 #@! TO.P,U2,1*
G04 #@! TO.N,Net-(R2-Pad2)*
X128380000Y-102670000D03*
G04 #@! TO.P,U2,2*
G04 #@! TO.N,GND*
X128380000Y-103620000D03*
G04 #@! TO.P,U2,3*
G04 #@! TO.N,N/C*
X128380000Y-104570000D03*
G04 #@! TO.P,U2,4*
X131060000Y-104570000D03*
G04 #@! TO.P,U2,5*
G04 #@! TO.N,VDD*
X131060000Y-103620000D03*
G04 #@! TO.P,U2,6*
G04 #@! TO.N,Net-(R1-Pad2)*
X131060000Y-102670000D03*
D11*
G04 #@! TO.P,U2,7*
G04 #@! TO.N,N/C*
X130145000Y-104270000D03*
X130145000Y-102970000D03*
X129295000Y-104270000D03*
X129295000Y-102970000D03*
G04 #@! TD*
D12*
G04 #@! TO.P,REF\002A\002A,1*
G04 #@! TO.N,Net-(C1-Pad2)*
X142290000Y-92440000D03*
G04 #@! TD*
D13*
G04 #@! TO.P,C3,2*
G04 #@! TO.N,GND*
X130220000Y-84870000D03*
G04 #@! TO.P,C3,1*
G04 #@! TO.N,VDD*
X131720000Y-84870000D03*
G04 #@! TD*
D14*
G04 #@! TO.P,BT1,2*
G04 #@! TO.N,GND*
X161220000Y-92620000D03*
D15*
G04 #@! TO.P,BT1,1*
G04 #@! TO.N,VDD*
X161220000Y-81620000D03*
G04 #@! TO.P,BT1,*
G04 #@! TO.N,*
X161220000Y-103620000D03*
G04 #@! TD*
D12*
G04 #@! TO.P,C2,2*
G04 #@! TO.N,Net-(C1-Pad2)*
X137920000Y-93350000D03*
G04 #@! TO.P,C2,1*
X137920000Y-91550000D03*
G04 #@! TD*
D16*
G04 #@! TO.P,U1,1*
G04 #@! TO.N,Net-(U1-Pad1)*
X133320000Y-96820000D03*
G04 #@! TO.P,U1,2*
G04 #@! TO.N,Net-(TP4-Pad1)*
X133320000Y-95550000D03*
G04 #@! TO.P,U1,3*
G04 #@! TO.N,GND*
X133320000Y-94280000D03*
G04 #@! TO.P,U1,4*
G04 #@! TO.N,Net-(C1-Pad2)*
X133320000Y-93010000D03*
G04 #@! TO.P,U1,5*
X133320000Y-91740000D03*
G04 #@! TO.P,U1,6*
G04 #@! TO.N,VDD*
X133320000Y-90470000D03*
G04 #@! TO.P,U1,7*
G04 #@! TO.N,Net-(U1-Pad7)*
X133320000Y-89200000D03*
G04 #@! TO.P,U1,8*
G04 #@! TO.N,Net-(U1-Pad8)*
X127920000Y-89200000D03*
G04 #@! TO.P,U1,9*
G04 #@! TO.N,Net-(TP7-Pad1)*
X127920000Y-90470000D03*
G04 #@! TO.P,U1,10*
G04 #@! TO.N,Net-(TP6-Pad1)*
X127920000Y-91740000D03*
G04 #@! TO.P,U1,11*
G04 #@! TO.N,Net-(TP5-Pad1)*
X127920000Y-93010000D03*
G04 #@! TO.P,U1,12*
G04 #@! TO.N,Net-(R2-Pad2)*
X127920000Y-94280000D03*
G04 #@! TO.P,U1,13*
G04 #@! TO.N,Net-(R1-Pad2)*
X127920000Y-95550000D03*
G04 #@! TO.P,U1,14*
G04 #@! TO.N,Net-(U1-Pad14)*
X127920000Y-96820000D03*
G04 #@! TD*
D13*
G04 #@! TO.P,C4,2*
G04 #@! TO.N,GND*
X130220000Y-86370000D03*
G04 #@! TO.P,C4,1*
G04 #@! TO.N,VDD*
X131720000Y-86370000D03*
G04 #@! TD*
G04 #@! TO.P,C5,2*
G04 #@! TO.N,GND*
X130220000Y-87870000D03*
G04 #@! TO.P,C5,1*
G04 #@! TO.N,VDD*
X131720000Y-87870000D03*
G04 #@! TD*
D17*
G04 #@! TO.P,C6,2*
G04 #@! TO.N,GND*
X132470000Y-105120000D03*
G04 #@! TO.P,C6,1*
G04 #@! TO.N,VDD*
X132470000Y-103620000D03*
G04 #@! TD*
D18*
G04 #@! TO.P,R1,1*
G04 #@! TO.N,VDD*
X132470000Y-101120000D03*
G04 #@! TO.P,R1,2*
G04 #@! TO.N,Net-(R1-Pad2)*
X130970000Y-101120000D03*
G04 #@! TD*
G04 #@! TO.P,R2,1*
G04 #@! TO.N,VDD*
X129720000Y-100870000D03*
G04 #@! TO.P,R2,2*
G04 #@! TO.N,Net-(R2-Pad2)*
X128220000Y-100870000D03*
G04 #@! TD*
D19*
G04 #@! TO.N,GND*
X133720000Y-99120000D03*
X133720000Y-105120000D03*
X133720000Y-102120000D03*
X127220000Y-101120000D03*
X124750000Y-105250000D03*
X127500000Y-103500000D03*
X127470000Y-105370000D03*
X127720000Y-98370000D03*
X130720000Y-98370000D03*
X129720000Y-95370000D03*
X130220000Y-92370000D03*
X127220000Y-87880000D03*
X130720000Y-89370000D03*
X128970000Y-86370000D03*
X133220000Y-87870000D03*
X133220000Y-85870000D03*
D20*
X152470000Y-83870000D03*
X133470000Y-83620000D03*
D19*
X130470000Y-83120000D03*
X127470000Y-83120000D03*
X127470000Y-80120000D03*
X133470000Y-80120000D03*
X130470000Y-80120000D03*
X127040000Y-85310000D03*
X124970000Y-80120000D03*
X124750000Y-84750000D03*
X128720000Y-84120000D03*
X124750000Y-87290000D03*
X124750000Y-89830000D03*
X124750000Y-92370000D03*
X124750000Y-94910000D03*
X124750000Y-97450000D03*
X124750000Y-82210000D03*
X124750000Y-102530000D03*
X124750000Y-99990000D03*
D20*
G04 #@! TO.N,VDD*
X131720000Y-99620000D03*
X131720000Y-92445000D03*
X154720000Y-84870000D03*
X132970000Y-84870000D03*
G04 #@! TO.N,Net-(C1-Pad2)*
X150780000Y-79950000D03*
X150780000Y-104950000D03*
D19*
X135395090Y-92460020D03*
G04 #@! TO.N,Net-(R1-Pad2)*
X127170000Y-99070000D03*
G04 #@! TO.N,Net-(R2-Pad2)*
X127220000Y-100120000D03*
G04 #@! TO.N,Net-(TP4-Pad1)*
X130720000Y-95620000D03*
G04 #@! TO.N,Net-(TP5-Pad1)*
X126760000Y-92890000D03*
G04 #@! TO.N,Net-(TP6-Pad1)*
X126700000Y-92090000D03*
G04 #@! TO.N,Net-(TP7-Pad1)*
X126630000Y-89920000D03*
G04 #@! TD*
D21*
G04 #@! TO.N,GND*
X132470000Y-105120000D02*
X131720000Y-105120000D01*
X131470000Y-105370000D02*
X127470000Y-105370000D01*
X131720000Y-105120000D02*
X131470000Y-105370000D01*
D22*
X133720000Y-104370000D02*
X133720000Y-105120000D01*
X133720000Y-104370000D02*
X133720000Y-99870000D01*
X133720000Y-99870000D02*
X130720000Y-96870000D01*
X132470000Y-105120000D02*
X133720000Y-105120000D01*
X130720000Y-89370000D02*
X130220000Y-89370000D01*
X133320000Y-94280000D02*
X129720000Y-94280000D01*
X130720000Y-96870000D02*
X129720000Y-95870000D01*
X129720000Y-95870000D02*
X129720000Y-95370000D01*
X129720000Y-95370000D02*
X129720000Y-94280000D01*
X129720000Y-92870000D02*
X130220000Y-92370000D01*
X130220000Y-89370000D02*
X130220000Y-92120000D01*
X129720000Y-94280000D02*
X129720000Y-92870000D01*
X130220000Y-92370000D02*
X130220000Y-92120000D01*
X130220000Y-86370000D02*
X130220000Y-84870000D01*
X130220000Y-84870000D02*
X130220000Y-83870000D01*
X130220000Y-83870000D02*
X130720000Y-83370000D01*
X130720000Y-83370000D02*
X133220000Y-83370000D01*
X133220000Y-83370000D02*
X133470000Y-83620000D01*
X161120000Y-92545000D02*
X161120000Y-92520000D01*
X161120000Y-92520000D02*
X152470000Y-83870000D01*
X133470000Y-83620000D02*
X133220000Y-83370000D01*
X133220000Y-83370000D02*
X130720000Y-83370000D01*
X130720000Y-83370000D02*
X130220000Y-83870000D01*
X130220000Y-83870000D02*
X130220000Y-86370000D01*
X130220000Y-86370000D02*
X130220000Y-87870000D01*
X130220000Y-87870000D02*
X130220000Y-89370000D01*
D21*
X127470000Y-104945736D02*
X127470000Y-105370000D01*
X127470000Y-104015000D02*
X127470000Y-104945736D01*
X127865000Y-103620000D02*
X127470000Y-104015000D01*
X128380000Y-103620000D02*
X127865000Y-103620000D01*
D22*
G04 #@! TO.N,VDD*
X133320000Y-90470000D02*
X131720000Y-90470000D01*
X131720000Y-91870000D02*
X131720000Y-90470000D01*
X131720000Y-92445000D02*
X131720000Y-91870000D01*
X131720000Y-90470000D02*
X131720000Y-90120000D01*
X129720000Y-100870000D02*
X129720000Y-100620000D01*
X129720000Y-100620000D02*
X130720000Y-99620000D01*
X130720000Y-99620000D02*
X131720000Y-99620000D01*
X132470000Y-100370000D02*
X132470000Y-101120000D01*
X131720000Y-99620000D02*
X132470000Y-100370000D01*
X131720000Y-84870000D02*
X132970000Y-84870000D01*
X158045000Y-81545000D02*
X161120000Y-81545000D01*
X154720000Y-84870000D02*
X158045000Y-81545000D01*
X131720000Y-87870000D02*
X131720000Y-86370000D01*
X131720000Y-86370000D02*
X131720000Y-84870000D01*
D23*
X131060000Y-103620000D02*
X132470000Y-103620000D01*
D22*
X132470000Y-103620000D02*
X132470000Y-101120000D01*
X131720000Y-87870000D02*
X131720000Y-90120000D01*
D21*
G04 #@! TO.N,Net-(C1-Pad2)*
X142290000Y-92440000D02*
X142290000Y-79960000D01*
X142300000Y-79950000D02*
X150780000Y-79950000D01*
X142290000Y-79960000D02*
X142300000Y-79950000D01*
X142290000Y-92440000D02*
X142290000Y-104940000D01*
X142300000Y-104950000D02*
X150780000Y-104950000D01*
X142290000Y-104940000D02*
X142300000Y-104950000D01*
D24*
X133309750Y-91743240D02*
X134315080Y-91743240D01*
X137915030Y-91529880D02*
X137924930Y-91540040D01*
X137635120Y-91529880D02*
X137915030Y-91529880D01*
X134528190Y-91529880D02*
X137635120Y-91529880D01*
X134315080Y-91743240D02*
X134528190Y-91529880D01*
X133309750Y-93013240D02*
X134315080Y-93013240D01*
X134315080Y-93013240D02*
X134651890Y-93350040D01*
X134651890Y-93350040D02*
X137635120Y-93350040D01*
X137635120Y-93350040D02*
X137924930Y-93350040D01*
D25*
X135395090Y-92460020D02*
X135414900Y-92439960D01*
X135414900Y-92439960D02*
X141835010Y-92439960D01*
X141835010Y-92439960D02*
X142285100Y-92439960D01*
D21*
G04 #@! TO.N,Net-(R1-Pad2)*
X131060000Y-101870000D02*
X129220000Y-101870000D01*
X128720000Y-99870000D02*
X127970000Y-99870000D01*
X128970000Y-100120000D02*
X128720000Y-99870000D01*
X128970000Y-101620000D02*
X128970000Y-100120000D01*
X129220000Y-101870000D02*
X128970000Y-101620000D01*
X127920000Y-95550000D02*
X126790000Y-95550000D01*
X126790000Y-95550000D02*
X126470000Y-95870000D01*
X126470000Y-95870000D02*
X126470000Y-98370000D01*
X126470000Y-98370000D02*
X126970000Y-98870000D01*
X131060000Y-102670000D02*
X131060000Y-101870000D01*
X131060000Y-101870000D02*
X131060000Y-101210000D01*
X131060000Y-101210000D02*
X130970000Y-101120000D01*
X127970000Y-99870000D02*
X127170000Y-99070000D01*
X127170000Y-99070000D02*
X126970000Y-98870000D01*
G04 #@! TO.N,Net-(R2-Pad2)*
X128380000Y-102670000D02*
X128380000Y-101030000D01*
X128380000Y-101030000D02*
X128220000Y-100870000D01*
X128220000Y-100870000D02*
X127970000Y-100870000D01*
X127970000Y-100870000D02*
X127220000Y-100120000D01*
X127920000Y-94280000D02*
X127310000Y-94280000D01*
X127310000Y-94280000D02*
X125970000Y-95620000D01*
X125970000Y-95620000D02*
X125970000Y-98870000D01*
X125970000Y-98870000D02*
X127220000Y-100120000D01*
G04 #@! TO.N,Net-(TP4-Pad1)*
X133320000Y-95550000D02*
X130790000Y-95550000D01*
X130790000Y-95550000D02*
X130720000Y-95620000D01*
G04 #@! TO.N,Net-(TP5-Pad1)*
X127800000Y-92890000D02*
X127920000Y-93010000D01*
X126760000Y-92890000D02*
X127800000Y-92890000D01*
G04 #@! TO.N,Net-(TP6-Pad1)*
X127050000Y-91740000D02*
X126700000Y-92090000D01*
X127920000Y-91740000D02*
X127050000Y-91740000D01*
G04 #@! TO.N,Net-(TP7-Pad1)*
X127180000Y-90470000D02*
X126630000Y-89920000D01*
X127920000Y-90470000D02*
X127180000Y-90470000D01*
G04 #@! TD*
D26*
G04 #@! TO.N,GND*
G36*
X134093000Y-88509994D02*
X134070000Y-88505419D01*
X132570000Y-88505419D01*
X132419000Y-88535455D01*
X132357000Y-88576882D01*
X132357000Y-88552082D01*
X132399011Y-88524011D01*
X132484545Y-88396000D01*
X132514581Y-88245000D01*
X132514581Y-87495000D01*
X132484545Y-87344000D01*
X132399011Y-87215989D01*
X132357000Y-87187918D01*
X132357000Y-87052082D01*
X132399011Y-87024011D01*
X132484545Y-86896000D01*
X132514581Y-86745000D01*
X132514581Y-85995000D01*
X132484545Y-85844000D01*
X132399011Y-85715989D01*
X132357000Y-85687918D01*
X132357000Y-85552082D01*
X132399011Y-85524011D01*
X132410377Y-85507000D01*
X132494014Y-85507000D01*
X132524200Y-85537186D01*
X132813456Y-85657000D01*
X133126544Y-85657000D01*
X133415800Y-85537186D01*
X133637186Y-85315800D01*
X133757000Y-85026544D01*
X133757000Y-84713456D01*
X133637186Y-84424200D01*
X133415800Y-84202814D01*
X133126544Y-84083000D01*
X132813456Y-84083000D01*
X132524200Y-84202814D01*
X132494014Y-84233000D01*
X132410377Y-84233000D01*
X132399011Y-84215989D01*
X132271000Y-84130455D01*
X132120000Y-84100419D01*
X131320000Y-84100419D01*
X131169000Y-84130455D01*
X131159068Y-84137091D01*
X131158327Y-84135301D01*
X130979698Y-83956673D01*
X130746309Y-83860000D01*
X130505750Y-83860000D01*
X130347000Y-84018750D01*
X130347000Y-84743000D01*
X130367000Y-84743000D01*
X130367000Y-84997000D01*
X130347000Y-84997000D01*
X130347000Y-86243000D01*
X130367000Y-86243000D01*
X130367000Y-86497000D01*
X130347000Y-86497000D01*
X130347000Y-87743000D01*
X130367000Y-87743000D01*
X130367000Y-87997000D01*
X130347000Y-87997000D01*
X130347000Y-88721250D01*
X130505750Y-88880000D01*
X130746309Y-88880000D01*
X130979698Y-88783327D01*
X131083000Y-88680025D01*
X131083001Y-90057259D01*
X131083000Y-90057264D01*
X131083000Y-90407264D01*
X131070521Y-90470000D01*
X131083001Y-90532740D01*
X131083000Y-91807264D01*
X131083000Y-91969014D01*
X131052814Y-91999200D01*
X130933000Y-92288456D01*
X130933000Y-92601544D01*
X131052814Y-92890800D01*
X131274200Y-93112186D01*
X131563456Y-93232000D01*
X131876544Y-93232000D01*
X132165800Y-93112186D01*
X132175419Y-93102567D01*
X132175419Y-93310000D01*
X132203053Y-93448922D01*
X132031673Y-93620301D01*
X131935000Y-93853690D01*
X131935000Y-93994250D01*
X132093750Y-94153000D01*
X133193000Y-94153000D01*
X133193000Y-94133000D01*
X133447000Y-94133000D01*
X133447000Y-94153000D01*
X133467000Y-94153000D01*
X133467000Y-94407000D01*
X133447000Y-94407000D01*
X133447000Y-94427000D01*
X133193000Y-94427000D01*
X133193000Y-94407000D01*
X132093750Y-94407000D01*
X131935000Y-94565750D01*
X131935000Y-94706310D01*
X132031673Y-94939699D01*
X132154975Y-95063000D01*
X131134564Y-95063000D01*
X131109154Y-95037590D01*
X130856653Y-94933000D01*
X130583347Y-94933000D01*
X130330846Y-95037590D01*
X130137590Y-95230846D01*
X130033000Y-95483347D01*
X130033000Y-95756653D01*
X130137590Y-96009154D01*
X130330846Y-96202410D01*
X130583347Y-96307000D01*
X130856653Y-96307000D01*
X131109154Y-96202410D01*
X131274564Y-96037000D01*
X132229509Y-96037000D01*
X132290989Y-96129011D01*
X132374783Y-96185000D01*
X132290989Y-96240989D01*
X132205455Y-96369000D01*
X132175419Y-96520000D01*
X132175419Y-97120000D01*
X132205455Y-97271000D01*
X132290989Y-97399011D01*
X132419000Y-97484545D01*
X132570000Y-97514581D01*
X134070000Y-97514581D01*
X134093000Y-97510006D01*
X134093000Y-105488000D01*
X133480000Y-105488000D01*
X133480000Y-105405750D01*
X133321250Y-105247000D01*
X132597000Y-105247000D01*
X132597000Y-105267000D01*
X132343000Y-105267000D01*
X132343000Y-105247000D01*
X132323000Y-105247000D01*
X132323000Y-104993000D01*
X132343000Y-104993000D01*
X132343000Y-104973000D01*
X132597000Y-104973000D01*
X132597000Y-104993000D01*
X133321250Y-104993000D01*
X133480000Y-104834250D01*
X133480000Y-104593691D01*
X133383327Y-104360302D01*
X133204699Y-104181673D01*
X133202909Y-104180932D01*
X133209545Y-104171000D01*
X133239581Y-104020000D01*
X133239581Y-103220000D01*
X133209545Y-103069000D01*
X133124011Y-102940989D01*
X133107000Y-102929623D01*
X133107000Y-101608112D01*
X133114581Y-101570000D01*
X133114581Y-100670000D01*
X133107000Y-100631888D01*
X133107000Y-100432731D01*
X133119478Y-100369999D01*
X133107000Y-100307265D01*
X133107000Y-100307264D01*
X133070040Y-100121455D01*
X132929251Y-99910749D01*
X132876066Y-99875212D01*
X132507000Y-99506147D01*
X132507000Y-99463456D01*
X132387186Y-99174200D01*
X132165800Y-98952814D01*
X131876544Y-98833000D01*
X131563456Y-98833000D01*
X131274200Y-98952814D01*
X131244014Y-98983000D01*
X130782736Y-98983000D01*
X130720000Y-98970521D01*
X130657264Y-98983000D01*
X130471455Y-99019960D01*
X130260749Y-99160749D01*
X130225212Y-99213934D01*
X129442086Y-99997061D01*
X129428743Y-99929982D01*
X129387692Y-99868545D01*
X129321107Y-99768893D01*
X129280444Y-99741723D01*
X129098277Y-99559556D01*
X129071107Y-99518893D01*
X128910018Y-99411257D01*
X128767961Y-99383000D01*
X128767960Y-99383000D01*
X128720000Y-99373460D01*
X128672040Y-99383000D01*
X128171722Y-99383000D01*
X127857000Y-99068279D01*
X127857000Y-98933347D01*
X127752410Y-98680846D01*
X127559154Y-98487590D01*
X127306653Y-98383000D01*
X127171722Y-98383000D01*
X126957000Y-98168279D01*
X126957000Y-97443118D01*
X127019000Y-97484545D01*
X127170000Y-97514581D01*
X128670000Y-97514581D01*
X128821000Y-97484545D01*
X128949011Y-97399011D01*
X129034545Y-97271000D01*
X129064581Y-97120000D01*
X129064581Y-96520000D01*
X129034545Y-96369000D01*
X128949011Y-96240989D01*
X128865217Y-96185000D01*
X128949011Y-96129011D01*
X129034545Y-96001000D01*
X129064581Y-95850000D01*
X129064581Y-95250000D01*
X129034545Y-95099000D01*
X128949011Y-94970989D01*
X128865217Y-94915000D01*
X128949011Y-94859011D01*
X129034545Y-94731000D01*
X129064581Y-94580000D01*
X129064581Y-93980000D01*
X129034545Y-93829000D01*
X128949011Y-93700989D01*
X128865217Y-93645000D01*
X128949011Y-93589011D01*
X129034545Y-93461000D01*
X129064581Y-93310000D01*
X129064581Y-92710000D01*
X129034545Y-92559000D01*
X128949011Y-92430989D01*
X128865217Y-92375000D01*
X128949011Y-92319011D01*
X129034545Y-92191000D01*
X129064581Y-92040000D01*
X129064581Y-91440000D01*
X129034545Y-91289000D01*
X128949011Y-91160989D01*
X128865217Y-91105000D01*
X128949011Y-91049011D01*
X129034545Y-90921000D01*
X129064581Y-90770000D01*
X129064581Y-90170000D01*
X129034545Y-90019000D01*
X128949011Y-89890989D01*
X128865217Y-89835000D01*
X128949011Y-89779011D01*
X129034545Y-89651000D01*
X129064581Y-89500000D01*
X129064581Y-88900000D01*
X129034545Y-88749000D01*
X128949011Y-88620989D01*
X128821000Y-88535455D01*
X128670000Y-88505419D01*
X127170000Y-88505419D01*
X127019000Y-88535455D01*
X126890989Y-88620989D01*
X126805455Y-88749000D01*
X126775419Y-88900000D01*
X126775419Y-89236631D01*
X126766653Y-89233000D01*
X126493347Y-89233000D01*
X126240846Y-89337590D01*
X126047590Y-89530846D01*
X125943000Y-89783347D01*
X125943000Y-90056653D01*
X126047590Y-90309154D01*
X126240846Y-90502410D01*
X126493347Y-90607000D01*
X126628278Y-90607000D01*
X126775419Y-90754141D01*
X126775419Y-90770000D01*
X126805455Y-90921000D01*
X126890989Y-91049011D01*
X126974783Y-91105000D01*
X126890989Y-91160989D01*
X126805455Y-91289000D01*
X126798873Y-91322088D01*
X126698893Y-91388893D01*
X126689467Y-91403000D01*
X126563347Y-91403000D01*
X126310846Y-91507590D01*
X126117590Y-91700846D01*
X126013000Y-91953347D01*
X126013000Y-92226653D01*
X126117590Y-92479154D01*
X126166370Y-92527934D01*
X126073000Y-92753347D01*
X126073000Y-93026653D01*
X126177590Y-93279154D01*
X126370846Y-93472410D01*
X126623347Y-93577000D01*
X126882964Y-93577000D01*
X126890989Y-93589011D01*
X126974783Y-93645000D01*
X126890989Y-93700989D01*
X126805455Y-93829000D01*
X126775419Y-93980000D01*
X126775419Y-94125859D01*
X125659556Y-95241723D01*
X125618893Y-95268893D01*
X125523769Y-95411257D01*
X125511257Y-95429983D01*
X125473460Y-95620000D01*
X125483000Y-95667961D01*
X125483001Y-98822035D01*
X125473460Y-98870000D01*
X125511257Y-99060017D01*
X125554819Y-99125212D01*
X125618894Y-99221107D01*
X125659554Y-99248275D01*
X126533000Y-100121722D01*
X126533000Y-100256653D01*
X126637590Y-100509154D01*
X126830846Y-100702410D01*
X127083347Y-100807000D01*
X127218279Y-100807000D01*
X127575419Y-101164141D01*
X127575419Y-101320000D01*
X127605455Y-101471000D01*
X127690989Y-101599011D01*
X127819000Y-101684545D01*
X127893001Y-101699265D01*
X127893000Y-102094486D01*
X127785989Y-102165989D01*
X127700455Y-102294000D01*
X127670419Y-102445000D01*
X127670419Y-102891556D01*
X127526673Y-103035301D01*
X127430000Y-103268690D01*
X127430000Y-103348750D01*
X127588750Y-103507500D01*
X128253000Y-103507500D01*
X128253000Y-103473000D01*
X128475419Y-103473000D01*
X128475419Y-103767000D01*
X128253000Y-103767000D01*
X128253000Y-103732500D01*
X127588750Y-103732500D01*
X127430000Y-103891250D01*
X127430000Y-103971310D01*
X127526673Y-104204699D01*
X127670419Y-104348444D01*
X127670419Y-104795000D01*
X127700455Y-104946000D01*
X127785989Y-105074011D01*
X127914000Y-105159545D01*
X128065000Y-105189581D01*
X128584688Y-105189581D01*
X128590989Y-105199011D01*
X128719000Y-105284545D01*
X128870000Y-105314581D01*
X130570000Y-105314581D01*
X130721000Y-105284545D01*
X130849011Y-105199011D01*
X130855312Y-105189581D01*
X131375000Y-105189581D01*
X131460000Y-105172673D01*
X131460000Y-105247002D01*
X131618748Y-105247002D01*
X131460000Y-105405750D01*
X131460000Y-105488000D01*
X124462000Y-105488000D01*
X124462000Y-88155750D01*
X129185000Y-88155750D01*
X129185000Y-88371310D01*
X129281673Y-88604699D01*
X129460302Y-88783327D01*
X129693691Y-88880000D01*
X129934250Y-88880000D01*
X130093000Y-88721250D01*
X130093000Y-87997000D01*
X129343750Y-87997000D01*
X129185000Y-88155750D01*
X124462000Y-88155750D01*
X124462000Y-86655750D01*
X129185000Y-86655750D01*
X129185000Y-86871310D01*
X129281673Y-87104699D01*
X129296974Y-87120000D01*
X129281673Y-87135301D01*
X129185000Y-87368690D01*
X129185000Y-87584250D01*
X129343750Y-87743000D01*
X130093000Y-87743000D01*
X130093000Y-86497000D01*
X129343750Y-86497000D01*
X129185000Y-86655750D01*
X124462000Y-86655750D01*
X124462000Y-85155750D01*
X129185000Y-85155750D01*
X129185000Y-85371310D01*
X129281673Y-85604699D01*
X129296974Y-85620000D01*
X129281673Y-85635301D01*
X129185000Y-85868690D01*
X129185000Y-86084250D01*
X129343750Y-86243000D01*
X130093000Y-86243000D01*
X130093000Y-84997000D01*
X129343750Y-84997000D01*
X129185000Y-85155750D01*
X124462000Y-85155750D01*
X124462000Y-84368690D01*
X129185000Y-84368690D01*
X129185000Y-84584250D01*
X129343750Y-84743000D01*
X130093000Y-84743000D01*
X130093000Y-84018750D01*
X129934250Y-83860000D01*
X129693691Y-83860000D01*
X129460302Y-83956673D01*
X129281673Y-84135301D01*
X129185000Y-84368690D01*
X124462000Y-84368690D01*
X124462000Y-79412000D01*
X134093000Y-79412000D01*
X134093000Y-88509994D01*
X134093000Y-88509994D01*
G37*
X134093000Y-88509994D02*
X134070000Y-88505419D01*
X132570000Y-88505419D01*
X132419000Y-88535455D01*
X132357000Y-88576882D01*
X132357000Y-88552082D01*
X132399011Y-88524011D01*
X132484545Y-88396000D01*
X132514581Y-88245000D01*
X132514581Y-87495000D01*
X132484545Y-87344000D01*
X132399011Y-87215989D01*
X132357000Y-87187918D01*
X132357000Y-87052082D01*
X132399011Y-87024011D01*
X132484545Y-86896000D01*
X132514581Y-86745000D01*
X132514581Y-85995000D01*
X132484545Y-85844000D01*
X132399011Y-85715989D01*
X132357000Y-85687918D01*
X132357000Y-85552082D01*
X132399011Y-85524011D01*
X132410377Y-85507000D01*
X132494014Y-85507000D01*
X132524200Y-85537186D01*
X132813456Y-85657000D01*
X133126544Y-85657000D01*
X133415800Y-85537186D01*
X133637186Y-85315800D01*
X133757000Y-85026544D01*
X133757000Y-84713456D01*
X133637186Y-84424200D01*
X133415800Y-84202814D01*
X133126544Y-84083000D01*
X132813456Y-84083000D01*
X132524200Y-84202814D01*
X132494014Y-84233000D01*
X132410377Y-84233000D01*
X132399011Y-84215989D01*
X132271000Y-84130455D01*
X132120000Y-84100419D01*
X131320000Y-84100419D01*
X131169000Y-84130455D01*
X131159068Y-84137091D01*
X131158327Y-84135301D01*
X130979698Y-83956673D01*
X130746309Y-83860000D01*
X130505750Y-83860000D01*
X130347000Y-84018750D01*
X130347000Y-84743000D01*
X130367000Y-84743000D01*
X130367000Y-84997000D01*
X130347000Y-84997000D01*
X130347000Y-86243000D01*
X130367000Y-86243000D01*
X130367000Y-86497000D01*
X130347000Y-86497000D01*
X130347000Y-87743000D01*
X130367000Y-87743000D01*
X130367000Y-87997000D01*
X130347000Y-87997000D01*
X130347000Y-88721250D01*
X130505750Y-88880000D01*
X130746309Y-88880000D01*
X130979698Y-88783327D01*
X131083000Y-88680025D01*
X131083001Y-90057259D01*
X131083000Y-90057264D01*
X131083000Y-90407264D01*
X131070521Y-90470000D01*
X131083001Y-90532740D01*
X131083000Y-91807264D01*
X131083000Y-91969014D01*
X131052814Y-91999200D01*
X130933000Y-92288456D01*
X130933000Y-92601544D01*
X131052814Y-92890800D01*
X131274200Y-93112186D01*
X131563456Y-93232000D01*
X131876544Y-93232000D01*
X132165800Y-93112186D01*
X132175419Y-93102567D01*
X132175419Y-93310000D01*
X132203053Y-93448922D01*
X132031673Y-93620301D01*
X131935000Y-93853690D01*
X131935000Y-93994250D01*
X132093750Y-94153000D01*
X133193000Y-94153000D01*
X133193000Y-94133000D01*
X133447000Y-94133000D01*
X133447000Y-94153000D01*
X133467000Y-94153000D01*
X133467000Y-94407000D01*
X133447000Y-94407000D01*
X133447000Y-94427000D01*
X133193000Y-94427000D01*
X133193000Y-94407000D01*
X132093750Y-94407000D01*
X131935000Y-94565750D01*
X131935000Y-94706310D01*
X132031673Y-94939699D01*
X132154975Y-95063000D01*
X131134564Y-95063000D01*
X131109154Y-95037590D01*
X130856653Y-94933000D01*
X130583347Y-94933000D01*
X130330846Y-95037590D01*
X130137590Y-95230846D01*
X130033000Y-95483347D01*
X130033000Y-95756653D01*
X130137590Y-96009154D01*
X130330846Y-96202410D01*
X130583347Y-96307000D01*
X130856653Y-96307000D01*
X131109154Y-96202410D01*
X131274564Y-96037000D01*
X132229509Y-96037000D01*
X132290989Y-96129011D01*
X132374783Y-96185000D01*
X132290989Y-96240989D01*
X132205455Y-96369000D01*
X132175419Y-96520000D01*
X132175419Y-97120000D01*
X132205455Y-97271000D01*
X132290989Y-97399011D01*
X132419000Y-97484545D01*
X132570000Y-97514581D01*
X134070000Y-97514581D01*
X134093000Y-97510006D01*
X134093000Y-105488000D01*
X133480000Y-105488000D01*
X133480000Y-105405750D01*
X133321250Y-105247000D01*
X132597000Y-105247000D01*
X132597000Y-105267000D01*
X132343000Y-105267000D01*
X132343000Y-105247000D01*
X132323000Y-105247000D01*
X132323000Y-104993000D01*
X132343000Y-104993000D01*
X132343000Y-104973000D01*
X132597000Y-104973000D01*
X132597000Y-104993000D01*
X133321250Y-104993000D01*
X133480000Y-104834250D01*
X133480000Y-104593691D01*
X133383327Y-104360302D01*
X133204699Y-104181673D01*
X133202909Y-104180932D01*
X133209545Y-104171000D01*
X133239581Y-104020000D01*
X133239581Y-103220000D01*
X133209545Y-103069000D01*
X133124011Y-102940989D01*
X133107000Y-102929623D01*
X133107000Y-101608112D01*
X133114581Y-101570000D01*
X133114581Y-100670000D01*
X133107000Y-100631888D01*
X133107000Y-100432731D01*
X133119478Y-100369999D01*
X133107000Y-100307265D01*
X133107000Y-100307264D01*
X133070040Y-100121455D01*
X132929251Y-99910749D01*
X132876066Y-99875212D01*
X132507000Y-99506147D01*
X132507000Y-99463456D01*
X132387186Y-99174200D01*
X132165800Y-98952814D01*
X131876544Y-98833000D01*
X131563456Y-98833000D01*
X131274200Y-98952814D01*
X131244014Y-98983000D01*
X130782736Y-98983000D01*
X130720000Y-98970521D01*
X130657264Y-98983000D01*
X130471455Y-99019960D01*
X130260749Y-99160749D01*
X130225212Y-99213934D01*
X129442086Y-99997061D01*
X129428743Y-99929982D01*
X129387692Y-99868545D01*
X129321107Y-99768893D01*
X129280444Y-99741723D01*
X129098277Y-99559556D01*
X129071107Y-99518893D01*
X128910018Y-99411257D01*
X128767961Y-99383000D01*
X128767960Y-99383000D01*
X128720000Y-99373460D01*
X128672040Y-99383000D01*
X128171722Y-99383000D01*
X127857000Y-99068279D01*
X127857000Y-98933347D01*
X127752410Y-98680846D01*
X127559154Y-98487590D01*
X127306653Y-98383000D01*
X127171722Y-98383000D01*
X126957000Y-98168279D01*
X126957000Y-97443118D01*
X127019000Y-97484545D01*
X127170000Y-97514581D01*
X128670000Y-97514581D01*
X128821000Y-97484545D01*
X128949011Y-97399011D01*
X129034545Y-97271000D01*
X129064581Y-97120000D01*
X129064581Y-96520000D01*
X129034545Y-96369000D01*
X128949011Y-96240989D01*
X128865217Y-96185000D01*
X128949011Y-96129011D01*
X129034545Y-96001000D01*
X129064581Y-95850000D01*
X129064581Y-95250000D01*
X129034545Y-95099000D01*
X128949011Y-94970989D01*
X128865217Y-94915000D01*
X128949011Y-94859011D01*
X129034545Y-94731000D01*
X129064581Y-94580000D01*
X129064581Y-93980000D01*
X129034545Y-93829000D01*
X128949011Y-93700989D01*
X128865217Y-93645000D01*
X128949011Y-93589011D01*
X129034545Y-93461000D01*
X129064581Y-93310000D01*
X129064581Y-92710000D01*
X129034545Y-92559000D01*
X128949011Y-92430989D01*
X128865217Y-92375000D01*
X128949011Y-92319011D01*
X129034545Y-92191000D01*
X129064581Y-92040000D01*
X129064581Y-91440000D01*
X129034545Y-91289000D01*
X128949011Y-91160989D01*
X128865217Y-91105000D01*
X128949011Y-91049011D01*
X129034545Y-90921000D01*
X129064581Y-90770000D01*
X129064581Y-90170000D01*
X129034545Y-90019000D01*
X128949011Y-89890989D01*
X128865217Y-89835000D01*
X128949011Y-89779011D01*
X129034545Y-89651000D01*
X129064581Y-89500000D01*
X129064581Y-88900000D01*
X129034545Y-88749000D01*
X128949011Y-88620989D01*
X128821000Y-88535455D01*
X128670000Y-88505419D01*
X127170000Y-88505419D01*
X127019000Y-88535455D01*
X126890989Y-88620989D01*
X126805455Y-88749000D01*
X126775419Y-88900000D01*
X126775419Y-89236631D01*
X126766653Y-89233000D01*
X126493347Y-89233000D01*
X126240846Y-89337590D01*
X126047590Y-89530846D01*
X125943000Y-89783347D01*
X125943000Y-90056653D01*
X126047590Y-90309154D01*
X126240846Y-90502410D01*
X126493347Y-90607000D01*
X126628278Y-90607000D01*
X126775419Y-90754141D01*
X126775419Y-90770000D01*
X126805455Y-90921000D01*
X126890989Y-91049011D01*
X126974783Y-91105000D01*
X126890989Y-91160989D01*
X126805455Y-91289000D01*
X126798873Y-91322088D01*
X126698893Y-91388893D01*
X126689467Y-91403000D01*
X126563347Y-91403000D01*
X126310846Y-91507590D01*
X126117590Y-91700846D01*
X126013000Y-91953347D01*
X126013000Y-92226653D01*
X126117590Y-92479154D01*
X126166370Y-92527934D01*
X126073000Y-92753347D01*
X126073000Y-93026653D01*
X126177590Y-93279154D01*
X126370846Y-93472410D01*
X126623347Y-93577000D01*
X126882964Y-93577000D01*
X126890989Y-93589011D01*
X126974783Y-93645000D01*
X126890989Y-93700989D01*
X126805455Y-93829000D01*
X126775419Y-93980000D01*
X126775419Y-94125859D01*
X125659556Y-95241723D01*
X125618893Y-95268893D01*
X125523769Y-95411257D01*
X125511257Y-95429983D01*
X125473460Y-95620000D01*
X125483000Y-95667961D01*
X125483001Y-98822035D01*
X125473460Y-98870000D01*
X125511257Y-99060017D01*
X125554819Y-99125212D01*
X125618894Y-99221107D01*
X125659554Y-99248275D01*
X126533000Y-100121722D01*
X126533000Y-100256653D01*
X126637590Y-100509154D01*
X126830846Y-100702410D01*
X127083347Y-100807000D01*
X127218279Y-100807000D01*
X127575419Y-101164141D01*
X127575419Y-101320000D01*
X127605455Y-101471000D01*
X127690989Y-101599011D01*
X127819000Y-101684545D01*
X127893001Y-101699265D01*
X127893000Y-102094486D01*
X127785989Y-102165989D01*
X127700455Y-102294000D01*
X127670419Y-102445000D01*
X127670419Y-102891556D01*
X127526673Y-103035301D01*
X127430000Y-103268690D01*
X127430000Y-103348750D01*
X127588750Y-103507500D01*
X128253000Y-103507500D01*
X128253000Y-103473000D01*
X128475419Y-103473000D01*
X128475419Y-103767000D01*
X128253000Y-103767000D01*
X128253000Y-103732500D01*
X127588750Y-103732500D01*
X127430000Y-103891250D01*
X127430000Y-103971310D01*
X127526673Y-104204699D01*
X127670419Y-104348444D01*
X127670419Y-104795000D01*
X127700455Y-104946000D01*
X127785989Y-105074011D01*
X127914000Y-105159545D01*
X128065000Y-105189581D01*
X128584688Y-105189581D01*
X128590989Y-105199011D01*
X128719000Y-105284545D01*
X128870000Y-105314581D01*
X130570000Y-105314581D01*
X130721000Y-105284545D01*
X130849011Y-105199011D01*
X130855312Y-105189581D01*
X131375000Y-105189581D01*
X131460000Y-105172673D01*
X131460000Y-105247002D01*
X131618748Y-105247002D01*
X131460000Y-105405750D01*
X131460000Y-105488000D01*
X124462000Y-105488000D01*
X124462000Y-88155750D01*
X129185000Y-88155750D01*
X129185000Y-88371310D01*
X129281673Y-88604699D01*
X129460302Y-88783327D01*
X129693691Y-88880000D01*
X129934250Y-88880000D01*
X130093000Y-88721250D01*
X130093000Y-87997000D01*
X129343750Y-87997000D01*
X129185000Y-88155750D01*
X124462000Y-88155750D01*
X124462000Y-86655750D01*
X129185000Y-86655750D01*
X129185000Y-86871310D01*
X129281673Y-87104699D01*
X129296974Y-87120000D01*
X129281673Y-87135301D01*
X129185000Y-87368690D01*
X129185000Y-87584250D01*
X129343750Y-87743000D01*
X130093000Y-87743000D01*
X130093000Y-86497000D01*
X129343750Y-86497000D01*
X129185000Y-86655750D01*
X124462000Y-86655750D01*
X124462000Y-85155750D01*
X129185000Y-85155750D01*
X129185000Y-85371310D01*
X129281673Y-85604699D01*
X129296974Y-85620000D01*
X129281673Y-85635301D01*
X129185000Y-85868690D01*
X129185000Y-86084250D01*
X129343750Y-86243000D01*
X130093000Y-86243000D01*
X130093000Y-84997000D01*
X129343750Y-84997000D01*
X129185000Y-85155750D01*
X124462000Y-85155750D01*
X124462000Y-84368690D01*
X129185000Y-84368690D01*
X129185000Y-84584250D01*
X129343750Y-84743000D01*
X130093000Y-84743000D01*
X130093000Y-84018750D01*
X129934250Y-83860000D01*
X129693691Y-83860000D01*
X129460302Y-83956673D01*
X129281673Y-84135301D01*
X129185000Y-84368690D01*
X124462000Y-84368690D01*
X124462000Y-79412000D01*
X134093000Y-79412000D01*
X134093000Y-88509994D01*
D27*
G04 #@! TO.N,Net-(C1-Pad2)*
G36*
X151203800Y-80373800D02*
X142780000Y-80373800D01*
X142750840Y-80379600D01*
X142726118Y-80396118D01*
X142709600Y-80420840D01*
X142703800Y-80450000D01*
X142703800Y-104450000D01*
X142709600Y-104479160D01*
X142726118Y-104503882D01*
X142750840Y-104520400D01*
X142780000Y-104526200D01*
X151203800Y-104526200D01*
X151203800Y-105373800D01*
X139356200Y-105373800D01*
X139356200Y-93450000D01*
X139350400Y-93420840D01*
X139333882Y-93396118D01*
X139309160Y-93379600D01*
X139280000Y-93373800D01*
X137656200Y-93373800D01*
X137656200Y-93026200D01*
X139703800Y-93026200D01*
X139703800Y-104450000D01*
X139709600Y-104479160D01*
X139726118Y-104503882D01*
X139750840Y-104520400D01*
X139780000Y-104526200D01*
X141780000Y-104526200D01*
X141809160Y-104520400D01*
X141833882Y-104503882D01*
X141850400Y-104479160D01*
X141856200Y-104450000D01*
X141856200Y-80450000D01*
X141850400Y-80420840D01*
X141833882Y-80396118D01*
X141809160Y-80379600D01*
X141780000Y-80373800D01*
X139780000Y-80373800D01*
X139750840Y-80379600D01*
X139726118Y-80396118D01*
X139709600Y-80420840D01*
X139703800Y-80450000D01*
X139703800Y-91873800D01*
X137656200Y-91873800D01*
X137656200Y-91526200D01*
X139280000Y-91526200D01*
X139309160Y-91520400D01*
X139333882Y-91503882D01*
X139350400Y-91479160D01*
X139356200Y-91450000D01*
X139356200Y-79526200D01*
X151203800Y-79526200D01*
X151203800Y-80373800D01*
X151203800Y-80373800D01*
G37*
X151203800Y-80373800D02*
X142780000Y-80373800D01*
X142750840Y-80379600D01*
X142726118Y-80396118D01*
X142709600Y-80420840D01*
X142703800Y-80450000D01*
X142703800Y-104450000D01*
X142709600Y-104479160D01*
X142726118Y-104503882D01*
X142750840Y-104520400D01*
X142780000Y-104526200D01*
X151203800Y-104526200D01*
X151203800Y-105373800D01*
X139356200Y-105373800D01*
X139356200Y-93450000D01*
X139350400Y-93420840D01*
X139333882Y-93396118D01*
X139309160Y-93379600D01*
X139280000Y-93373800D01*
X137656200Y-93373800D01*
X137656200Y-93026200D01*
X139703800Y-93026200D01*
X139703800Y-104450000D01*
X139709600Y-104479160D01*
X139726118Y-104503882D01*
X139750840Y-104520400D01*
X139780000Y-104526200D01*
X141780000Y-104526200D01*
X141809160Y-104520400D01*
X141833882Y-104503882D01*
X141850400Y-104479160D01*
X141856200Y-104450000D01*
X141856200Y-80450000D01*
X141850400Y-80420840D01*
X141833882Y-80396118D01*
X141809160Y-80379600D01*
X141780000Y-80373800D01*
X139780000Y-80373800D01*
X139750840Y-80379600D01*
X139726118Y-80396118D01*
X139709600Y-80420840D01*
X139703800Y-80450000D01*
X139703800Y-91873800D01*
X137656200Y-91873800D01*
X137656200Y-91526200D01*
X139280000Y-91526200D01*
X139309160Y-91520400D01*
X139333882Y-91503882D01*
X139350400Y-91479160D01*
X139356200Y-91450000D01*
X139356200Y-79526200D01*
X151203800Y-79526200D01*
X151203800Y-80373800D01*
G04 #@! TD*
M02*
