G04 #@! TF.GenerationSoftware,KiCad,Pcbnew,5.0.0-fee4fd1~66~ubuntu16.04.1*
G04 #@! TF.CreationDate,2018-09-16T20:12:26+02:00*
G04 #@! TF.ProjectId,sensof_ht,73656E736F665F68742E6B696361645F,01*
G04 #@! TF.SameCoordinates,Original*
G04 #@! TF.FileFunction,Legend,Top*
G04 #@! TF.FilePolarity,Positive*
%FSLAX46Y46*%
G04 Gerber Fmt 4.6, Leading zero omitted, Abs format (unit mm)*
G04 Created by KiCad (PCBNEW 5.0.0-fee4fd1~66~ubuntu16.04.1) date Sun Sep 16 20:12:26 2018*
%MOMM*%
%LPD*%
G01*
G04 APERTURE LIST*
%ADD10C,0.150000*%
%ADD11C,0.120000*%
%ADD12C,0.050000*%
G04 APERTURE END LIST*
D10*
G04 #@! TO.C,U2*
X128695000Y-105270000D02*
X130745000Y-105270000D01*
X127990000Y-101970000D02*
X130745000Y-101970000D01*
D11*
G04 #@! TO.C,C3*
X130620000Y-84270000D02*
X131320000Y-84270000D01*
X131320000Y-85470000D02*
X130620000Y-85470000D01*
D12*
G04 #@! TO.C,BT1*
X163845000Y-82070000D02*
X168570000Y-82070000D01*
X168570000Y-82070000D02*
X168570000Y-87420000D01*
X163845000Y-103170000D02*
X168570000Y-103170000D01*
X168570000Y-103170000D02*
X168570000Y-97820000D01*
X170220000Y-92620000D02*
G75*
G03X170220000Y-92620000I-9000000J0D01*
G01*
D11*
G04 #@! TO.C,C2*
X137270000Y-92730000D02*
X137270000Y-92030000D01*
X138470000Y-92030000D02*
X138470000Y-92730000D01*
D10*
G04 #@! TO.C,U1*
X132695000Y-97460000D02*
X132695000Y-97435000D01*
X128545000Y-97460000D02*
X128545000Y-97345000D01*
X128545000Y-88560000D02*
X128545000Y-88675000D01*
X132695000Y-88560000D02*
X132695000Y-88675000D01*
X132695000Y-97460000D02*
X128545000Y-97460000D01*
X132695000Y-88560000D02*
X128545000Y-88560000D01*
X132695000Y-97435000D02*
X134070000Y-97435000D01*
D11*
G04 #@! TO.C,C4*
X130620000Y-85770000D02*
X131320000Y-85770000D01*
X131320000Y-86970000D02*
X130620000Y-86970000D01*
G04 #@! TO.C,C5*
X130620000Y-87270000D02*
X131320000Y-87270000D01*
X131320000Y-88470000D02*
X130620000Y-88470000D01*
G04 #@! TO.C,C6*
X131870000Y-104720000D02*
X131870000Y-104020000D01*
X133070000Y-104020000D02*
X133070000Y-104720000D01*
G04 #@! TO.C,R1*
X131220000Y-100440000D02*
X132220000Y-100440000D01*
X132220000Y-101800000D02*
X131220000Y-101800000D01*
G04 #@! TO.C,R2*
X128470000Y-100190000D02*
X129470000Y-100190000D01*
X129470000Y-101550000D02*
X128470000Y-101550000D01*
G04 #@! TO.C,U2*
D10*
X126118095Y-102052380D02*
X126118095Y-102861904D01*
X126165714Y-102957142D01*
X126213333Y-103004761D01*
X126308571Y-103052380D01*
X126499047Y-103052380D01*
X126594285Y-103004761D01*
X126641904Y-102957142D01*
X126689523Y-102861904D01*
X126689523Y-102052380D01*
X127118095Y-102147619D02*
X127165714Y-102100000D01*
X127260952Y-102052380D01*
X127499047Y-102052380D01*
X127594285Y-102100000D01*
X127641904Y-102147619D01*
X127689523Y-102242857D01*
X127689523Y-102338095D01*
X127641904Y-102480952D01*
X127070476Y-103052380D01*
X127689523Y-103052380D01*
G04 #@! TO.C,C3*
X128553333Y-85227142D02*
X128505714Y-85274761D01*
X128362857Y-85322380D01*
X128267619Y-85322380D01*
X128124761Y-85274761D01*
X128029523Y-85179523D01*
X127981904Y-85084285D01*
X127934285Y-84893809D01*
X127934285Y-84750952D01*
X127981904Y-84560476D01*
X128029523Y-84465238D01*
X128124761Y-84370000D01*
X128267619Y-84322380D01*
X128362857Y-84322380D01*
X128505714Y-84370000D01*
X128553333Y-84417619D01*
X128886666Y-84322380D02*
X129505714Y-84322380D01*
X129172380Y-84703333D01*
X129315238Y-84703333D01*
X129410476Y-84750952D01*
X129458095Y-84798571D01*
X129505714Y-84893809D01*
X129505714Y-85131904D01*
X129458095Y-85227142D01*
X129410476Y-85274761D01*
X129315238Y-85322380D01*
X129029523Y-85322380D01*
X128934285Y-85274761D01*
X128886666Y-85227142D01*
G04 #@! TO.C,BT1*
X169573571Y-84780714D02*
X169621190Y-84637857D01*
X169668809Y-84590238D01*
X169764047Y-84542619D01*
X169906904Y-84542619D01*
X170002142Y-84590238D01*
X170049761Y-84637857D01*
X170097380Y-84733095D01*
X170097380Y-85114047D01*
X169097380Y-85114047D01*
X169097380Y-84780714D01*
X169145000Y-84685476D01*
X169192619Y-84637857D01*
X169287857Y-84590238D01*
X169383095Y-84590238D01*
X169478333Y-84637857D01*
X169525952Y-84685476D01*
X169573571Y-84780714D01*
X169573571Y-85114047D01*
X169097380Y-84256904D02*
X169097380Y-83685476D01*
X170097380Y-83971190D02*
X169097380Y-83971190D01*
X170097380Y-82828333D02*
X170097380Y-83399761D01*
X170097380Y-83114047D02*
X169097380Y-83114047D01*
X169240238Y-83209285D01*
X169335476Y-83304523D01*
X169383095Y-83399761D01*
X169097380Y-102681904D02*
X169097380Y-102062857D01*
X169478333Y-102396190D01*
X169478333Y-102253333D01*
X169525952Y-102158095D01*
X169573571Y-102110476D01*
X169668809Y-102062857D01*
X169906904Y-102062857D01*
X170002142Y-102110476D01*
X170049761Y-102158095D01*
X170097380Y-102253333D01*
X170097380Y-102539047D01*
X170049761Y-102634285D01*
X170002142Y-102681904D01*
X169097380Y-101777142D02*
X170097380Y-101443809D01*
X169097380Y-101110476D01*
X171527142Y-102115238D02*
X171574761Y-102162857D01*
X171622380Y-102305714D01*
X171622380Y-102400952D01*
X171574761Y-102543809D01*
X171479523Y-102639047D01*
X171384285Y-102686666D01*
X171193809Y-102734285D01*
X171050952Y-102734285D01*
X170860476Y-102686666D01*
X170765238Y-102639047D01*
X170670000Y-102543809D01*
X170622380Y-102400952D01*
X170622380Y-102305714D01*
X170670000Y-102162857D01*
X170717619Y-102115238D01*
X171622380Y-101115238D02*
X171146190Y-101448571D01*
X171622380Y-101686666D02*
X170622380Y-101686666D01*
X170622380Y-101305714D01*
X170670000Y-101210476D01*
X170717619Y-101162857D01*
X170812857Y-101115238D01*
X170955714Y-101115238D01*
X171050952Y-101162857D01*
X171098571Y-101210476D01*
X171146190Y-101305714D01*
X171146190Y-101686666D01*
X170717619Y-100734285D02*
X170670000Y-100686666D01*
X170622380Y-100591428D01*
X170622380Y-100353333D01*
X170670000Y-100258095D01*
X170717619Y-100210476D01*
X170812857Y-100162857D01*
X170908095Y-100162857D01*
X171050952Y-100210476D01*
X171622380Y-100781904D01*
X171622380Y-100162857D01*
X170622380Y-99543809D02*
X170622380Y-99448571D01*
X170670000Y-99353333D01*
X170717619Y-99305714D01*
X170812857Y-99258095D01*
X171003333Y-99210476D01*
X171241428Y-99210476D01*
X171431904Y-99258095D01*
X171527142Y-99305714D01*
X171574761Y-99353333D01*
X171622380Y-99448571D01*
X171622380Y-99543809D01*
X171574761Y-99639047D01*
X171527142Y-99686666D01*
X171431904Y-99734285D01*
X171241428Y-99781904D01*
X171003333Y-99781904D01*
X170812857Y-99734285D01*
X170717619Y-99686666D01*
X170670000Y-99639047D01*
X170622380Y-99543809D01*
X170622380Y-98877142D02*
X170622380Y-98258095D01*
X171003333Y-98591428D01*
X171003333Y-98448571D01*
X171050952Y-98353333D01*
X171098571Y-98305714D01*
X171193809Y-98258095D01*
X171431904Y-98258095D01*
X171527142Y-98305714D01*
X171574761Y-98353333D01*
X171622380Y-98448571D01*
X171622380Y-98734285D01*
X171574761Y-98829523D01*
X171527142Y-98877142D01*
X170717619Y-97877142D02*
X170670000Y-97829523D01*
X170622380Y-97734285D01*
X170622380Y-97496190D01*
X170670000Y-97400952D01*
X170717619Y-97353333D01*
X170812857Y-97305714D01*
X170908095Y-97305714D01*
X171050952Y-97353333D01*
X171622380Y-97924761D01*
X171622380Y-97305714D01*
G04 #@! TO.C,C2*
X139727142Y-92546666D02*
X139774761Y-92594285D01*
X139822380Y-92737142D01*
X139822380Y-92832380D01*
X139774761Y-92975238D01*
X139679523Y-93070476D01*
X139584285Y-93118095D01*
X139393809Y-93165714D01*
X139250952Y-93165714D01*
X139060476Y-93118095D01*
X138965238Y-93070476D01*
X138870000Y-92975238D01*
X138822380Y-92832380D01*
X138822380Y-92737142D01*
X138870000Y-92594285D01*
X138917619Y-92546666D01*
X138917619Y-92165714D02*
X138870000Y-92118095D01*
X138822380Y-92022857D01*
X138822380Y-91784761D01*
X138870000Y-91689523D01*
X138917619Y-91641904D01*
X139012857Y-91594285D01*
X139108095Y-91594285D01*
X139250952Y-91641904D01*
X139822380Y-92213333D01*
X139822380Y-91594285D01*
G04 #@! TO.C,U1*
X131958095Y-97822380D02*
X131958095Y-98631904D01*
X132005714Y-98727142D01*
X132053333Y-98774761D01*
X132148571Y-98822380D01*
X132339047Y-98822380D01*
X132434285Y-98774761D01*
X132481904Y-98727142D01*
X132529523Y-98631904D01*
X132529523Y-97822380D01*
X133529523Y-98822380D02*
X132958095Y-98822380D01*
X133243809Y-98822380D02*
X133243809Y-97822380D01*
X133148571Y-97965238D01*
X133053333Y-98060476D01*
X132958095Y-98108095D01*
G04 #@! TO.C,C4*
X128553333Y-86727142D02*
X128505714Y-86774761D01*
X128362857Y-86822380D01*
X128267619Y-86822380D01*
X128124761Y-86774761D01*
X128029523Y-86679523D01*
X127981904Y-86584285D01*
X127934285Y-86393809D01*
X127934285Y-86250952D01*
X127981904Y-86060476D01*
X128029523Y-85965238D01*
X128124761Y-85870000D01*
X128267619Y-85822380D01*
X128362857Y-85822380D01*
X128505714Y-85870000D01*
X128553333Y-85917619D01*
X129410476Y-86155714D02*
X129410476Y-86822380D01*
X129172380Y-85774761D02*
X128934285Y-86489047D01*
X129553333Y-86489047D01*
G04 #@! TO.C,C5*
X128553333Y-88227142D02*
X128505714Y-88274761D01*
X128362857Y-88322380D01*
X128267619Y-88322380D01*
X128124761Y-88274761D01*
X128029523Y-88179523D01*
X127981904Y-88084285D01*
X127934285Y-87893809D01*
X127934285Y-87750952D01*
X127981904Y-87560476D01*
X128029523Y-87465238D01*
X128124761Y-87370000D01*
X128267619Y-87322380D01*
X128362857Y-87322380D01*
X128505714Y-87370000D01*
X128553333Y-87417619D01*
X129458095Y-87322380D02*
X128981904Y-87322380D01*
X128934285Y-87798571D01*
X128981904Y-87750952D01*
X129077142Y-87703333D01*
X129315238Y-87703333D01*
X129410476Y-87750952D01*
X129458095Y-87798571D01*
X129505714Y-87893809D01*
X129505714Y-88131904D01*
X129458095Y-88227142D01*
X129410476Y-88274761D01*
X129315238Y-88322380D01*
X129077142Y-88322380D01*
X128981904Y-88274761D01*
X128934285Y-88227142D01*
G04 #@! TO.C,C6*
X134327142Y-104536666D02*
X134374761Y-104584285D01*
X134422380Y-104727142D01*
X134422380Y-104822380D01*
X134374761Y-104965238D01*
X134279523Y-105060476D01*
X134184285Y-105108095D01*
X133993809Y-105155714D01*
X133850952Y-105155714D01*
X133660476Y-105108095D01*
X133565238Y-105060476D01*
X133470000Y-104965238D01*
X133422380Y-104822380D01*
X133422380Y-104727142D01*
X133470000Y-104584285D01*
X133517619Y-104536666D01*
X133422380Y-103679523D02*
X133422380Y-103870000D01*
X133470000Y-103965238D01*
X133517619Y-104012857D01*
X133660476Y-104108095D01*
X133850952Y-104155714D01*
X134231904Y-104155714D01*
X134327142Y-104108095D01*
X134374761Y-104060476D01*
X134422380Y-103965238D01*
X134422380Y-103774761D01*
X134374761Y-103679523D01*
X134327142Y-103631904D01*
X134231904Y-103584285D01*
X133993809Y-103584285D01*
X133898571Y-103631904D01*
X133850952Y-103679523D01*
X133803333Y-103774761D01*
X133803333Y-103965238D01*
X133850952Y-104060476D01*
X133898571Y-104108095D01*
X133993809Y-104155714D01*
G04 #@! TO.C,R1*
X131553333Y-100072380D02*
X131220000Y-99596190D01*
X130981904Y-100072380D02*
X130981904Y-99072380D01*
X131362857Y-99072380D01*
X131458095Y-99120000D01*
X131505714Y-99167619D01*
X131553333Y-99262857D01*
X131553333Y-99405714D01*
X131505714Y-99500952D01*
X131458095Y-99548571D01*
X131362857Y-99596190D01*
X130981904Y-99596190D01*
X132505714Y-100072380D02*
X131934285Y-100072380D01*
X132220000Y-100072380D02*
X132220000Y-99072380D01*
X132124761Y-99215238D01*
X132029523Y-99310476D01*
X131934285Y-99358095D01*
G04 #@! TO.C,R2*
X128803333Y-99822380D02*
X128470000Y-99346190D01*
X128231904Y-99822380D02*
X128231904Y-98822380D01*
X128612857Y-98822380D01*
X128708095Y-98870000D01*
X128755714Y-98917619D01*
X128803333Y-99012857D01*
X128803333Y-99155714D01*
X128755714Y-99250952D01*
X128708095Y-99298571D01*
X128612857Y-99346190D01*
X128231904Y-99346190D01*
X129184285Y-98917619D02*
X129231904Y-98870000D01*
X129327142Y-98822380D01*
X129565238Y-98822380D01*
X129660476Y-98870000D01*
X129708095Y-98917619D01*
X129755714Y-99012857D01*
X129755714Y-99108095D01*
X129708095Y-99250952D01*
X129136666Y-99822380D01*
X129755714Y-99822380D01*
G04 #@! TD*
M02*
