M48
;DRILL file {KiCad 4.0.7-e2-6376~58~ubuntu16.04.1} date Thu Aug 16 13:00:38 2018
;FORMAT={-:-/ absolute / metric / decimal}
FMAT,2
METRIC,TZ
T1C0.300
T2C0.500
%
G90
G05
M71
T1
X124.97Y-80.12
X124.97Y-82.62
X124.97Y-102.87
X124.97Y-105.37
X126.47Y-87.87
X126.47Y-90.37
X126.47Y-92.87
X126.72Y-91.87
X126.97Y-85.62
X126.97Y-98.87
X127.22Y-100.12
X127.22Y-101.12
X127.22Y-103.37
X127.47Y-80.12
X127.47Y-83.12
X127.47Y-105.37
X127.72Y-98.37
X128.72Y-84.12
X128.97Y-86.37
X129.72Y-95.37
X130.22Y-92.37
X130.47Y-80.12
X130.47Y-83.12
X130.72Y-89.37
X130.72Y-95.62
X130.72Y-98.37
X133.22Y-85.87
X133.22Y-87.87
X133.47Y-80.12
X133.72Y-99.12
X133.72Y-102.12
X133.72Y-105.12
X135.395Y-92.46
T2
X131.72Y-92.445
X131.72Y-99.62
X132.97Y-84.87
X133.47Y-83.62
X150.78Y-79.95
X150.78Y-104.95
X152.47Y-83.87
X154.72Y-84.87
T0
M30
