G04 #@! TF.FileFunction,Copper,L1,Top,Signal*
%FSLAX46Y46*%
G04 Gerber Fmt 4.6, Leading zero omitted, Abs format (unit mm)*
G04 Created by KiCad (PCBNEW 4.0.7-e2-6376~58~ubuntu16.04.1) date Thu Aug 16 13:00:31 2018*
%MOMM*%
%LPD*%
G01*
G04 APERTURE LIST*
%ADD10C,0.100000*%
%ADD11R,0.630000X0.450000*%
%ADD12R,0.850000X1.300000*%
%ADD13R,0.800000X0.800000*%
%ADD14R,0.800000X0.750000*%
%ADD15C,12.700000*%
%ADD16R,5.000000X3.000000*%
%ADD17R,1.500000X0.600000*%
%ADD18R,0.750000X0.800000*%
%ADD19R,0.500000X0.900000*%
%ADD20C,0.600000*%
%ADD21C,0.800000*%
%ADD22C,0.200000*%
%ADD23C,0.500000*%
%ADD24C,0.400000*%
%ADD25C,0.500130*%
%ADD26C,0.199900*%
%ADD27C,0.254000*%
%ADD28C,0.152400*%
G04 APERTURE END LIST*
D10*
D11*
X128380000Y-102670000D03*
X128380000Y-103620000D03*
X128380000Y-104570000D03*
X131060000Y-104570000D03*
X131060000Y-103620000D03*
X131060000Y-102670000D03*
D12*
X130145000Y-104270000D03*
X130145000Y-102970000D03*
X129295000Y-104270000D03*
X129295000Y-102970000D03*
D13*
X142290000Y-92440000D03*
D14*
X130220000Y-84870000D03*
X131720000Y-84870000D03*
D15*
X161220000Y-92620000D03*
D16*
X161220000Y-81620000D03*
X161220000Y-103620000D03*
D13*
X137920000Y-93350000D03*
X137920000Y-91550000D03*
D17*
X133320000Y-96820000D03*
X133320000Y-95550000D03*
X133320000Y-94280000D03*
X133320000Y-93010000D03*
X133320000Y-91740000D03*
X133320000Y-90470000D03*
X133320000Y-89200000D03*
X127920000Y-89200000D03*
X127920000Y-90470000D03*
X127920000Y-91740000D03*
X127920000Y-93010000D03*
X127920000Y-94280000D03*
X127920000Y-95550000D03*
X127920000Y-96820000D03*
D14*
X130220000Y-86370000D03*
X131720000Y-86370000D03*
X130220000Y-87870000D03*
X131720000Y-87870000D03*
D18*
X132470000Y-105120000D03*
X132470000Y-103620000D03*
D19*
X132470000Y-101120000D03*
X130970000Y-101120000D03*
X129720000Y-100870000D03*
X128220000Y-100870000D03*
D20*
X133720000Y-99120000D03*
X133720000Y-105120000D03*
X133720000Y-102120000D03*
X127220000Y-101120000D03*
X124970000Y-102870000D03*
X124970000Y-105370000D03*
X127220000Y-103370000D03*
X127470000Y-105370000D03*
X127720000Y-98370000D03*
X130720000Y-98370000D03*
X129720000Y-95370000D03*
X130220000Y-92370000D03*
X126470000Y-87870000D03*
X130720000Y-89370000D03*
X128970000Y-86370000D03*
X133220000Y-87870000D03*
X133220000Y-85870000D03*
X126970000Y-85620000D03*
X128720000Y-84120000D03*
X124970000Y-82620000D03*
X124970000Y-80120000D03*
X127470000Y-80120000D03*
X127470000Y-83120000D03*
X130470000Y-83120000D03*
X130470000Y-80120000D03*
X133470000Y-80120000D03*
D21*
X152470000Y-83870000D03*
X133470000Y-83620000D03*
X131720000Y-99620000D03*
X131720000Y-92445000D03*
X154720000Y-84870000D03*
X132970000Y-84870000D03*
X150780000Y-79950000D03*
X150780000Y-104950000D03*
D20*
X135395090Y-92460020D03*
X126970000Y-98870000D03*
X127220000Y-100120000D03*
X130720000Y-95620000D03*
X126470000Y-92870000D03*
X126720000Y-91870000D03*
X126470000Y-90370000D03*
D22*
X132470000Y-105120000D02*
X131720000Y-105120000D01*
X131470000Y-105370000D02*
X127470000Y-105370000D01*
X131720000Y-105120000D02*
X131470000Y-105370000D01*
D23*
X133720000Y-104370000D02*
X133720000Y-105120000D01*
X133720000Y-104370000D02*
X133720000Y-99870000D01*
X133720000Y-99870000D02*
X130720000Y-96870000D01*
X132470000Y-105120000D02*
X133720000Y-105120000D01*
X133720000Y-102120000D02*
X133720000Y-99120000D01*
X126720000Y-101120000D02*
X127220000Y-101120000D01*
X124970000Y-102870000D02*
X126720000Y-101120000D01*
X127470000Y-105370000D02*
X124970000Y-105370000D01*
D24*
X127470000Y-103620000D02*
X128380000Y-103620000D01*
D23*
X127220000Y-103370000D02*
X127470000Y-103620000D01*
X130720000Y-96870000D02*
X130720000Y-98370000D01*
X130220000Y-86370000D02*
X128970000Y-86370000D01*
X130720000Y-89370000D02*
X130220000Y-89370000D01*
X133970000Y-84120000D02*
X133970000Y-86870000D01*
X133970000Y-86870000D02*
X133220000Y-87620000D01*
X133220000Y-87620000D02*
X133220000Y-87870000D01*
X133970000Y-84120000D02*
X133470000Y-83620000D01*
X126470000Y-84120000D02*
X128720000Y-84120000D01*
X124970000Y-82620000D02*
X126470000Y-84120000D01*
X127470000Y-80120000D02*
X124970000Y-80120000D01*
X130470000Y-83120000D02*
X127470000Y-83120000D01*
X133470000Y-80120000D02*
X130470000Y-80120000D01*
X133320000Y-94280000D02*
X129720000Y-94280000D01*
X130720000Y-96870000D02*
X129720000Y-95870000D01*
X129720000Y-95870000D02*
X129720000Y-95370000D01*
X129720000Y-95370000D02*
X129720000Y-94280000D01*
X129720000Y-92870000D02*
X130220000Y-92370000D01*
X130220000Y-89370000D02*
X130220000Y-92120000D01*
X129720000Y-94280000D02*
X129720000Y-92870000D01*
X130220000Y-92370000D02*
X130220000Y-92120000D01*
X130220000Y-86370000D02*
X130220000Y-84870000D01*
X130220000Y-84870000D02*
X130220000Y-83870000D01*
X130220000Y-83870000D02*
X130720000Y-83370000D01*
X130720000Y-83370000D02*
X133220000Y-83370000D01*
X133220000Y-83370000D02*
X133470000Y-83620000D01*
X161120000Y-92545000D02*
X161120000Y-92520000D01*
X161120000Y-92520000D02*
X152470000Y-83870000D01*
X133470000Y-83620000D02*
X133220000Y-83370000D01*
X133220000Y-83370000D02*
X130720000Y-83370000D01*
X130720000Y-83370000D02*
X130220000Y-83870000D01*
X130220000Y-83870000D02*
X130220000Y-86370000D01*
X130220000Y-86370000D02*
X130220000Y-87870000D01*
X130220000Y-87870000D02*
X130220000Y-89370000D01*
X133320000Y-90470000D02*
X131720000Y-90470000D01*
X131720000Y-91870000D02*
X131720000Y-90470000D01*
X131720000Y-92445000D02*
X131720000Y-91870000D01*
X131720000Y-90470000D02*
X131720000Y-90120000D01*
X129720000Y-100870000D02*
X129720000Y-100620000D01*
X129720000Y-100620000D02*
X130720000Y-99620000D01*
X130720000Y-99620000D02*
X131720000Y-99620000D01*
X132470000Y-100370000D02*
X132470000Y-101120000D01*
X131720000Y-99620000D02*
X132470000Y-100370000D01*
X131720000Y-84870000D02*
X132970000Y-84870000D01*
X158045000Y-81545000D02*
X161120000Y-81545000D01*
X154720000Y-84870000D02*
X158045000Y-81545000D01*
X131720000Y-87870000D02*
X131720000Y-86370000D01*
X131720000Y-86370000D02*
X131720000Y-84870000D01*
D24*
X131060000Y-103620000D02*
X132470000Y-103620000D01*
D23*
X132470000Y-103620000D02*
X132470000Y-101120000D01*
X131720000Y-87870000D02*
X131720000Y-90120000D01*
D22*
X142290000Y-92440000D02*
X142290000Y-79960000D01*
X142300000Y-79950000D02*
X150780000Y-79950000D01*
X142290000Y-79960000D02*
X142300000Y-79950000D01*
X142290000Y-92440000D02*
X142290000Y-104940000D01*
X142300000Y-104950000D02*
X150780000Y-104950000D01*
X142290000Y-104940000D02*
X142300000Y-104950000D01*
D25*
X133309750Y-91743240D02*
X134315080Y-91743240D01*
X137915030Y-91529880D02*
X137924930Y-91540040D01*
X137635120Y-91529880D02*
X137915030Y-91529880D01*
X134528190Y-91529880D02*
X137635120Y-91529880D01*
X134315080Y-91743240D02*
X134528190Y-91529880D01*
X133309750Y-93013240D02*
X134315080Y-93013240D01*
X134315080Y-93013240D02*
X134651890Y-93350040D01*
X134651890Y-93350040D02*
X137635120Y-93350040D01*
X137635120Y-93350040D02*
X137924930Y-93350040D01*
D26*
X135395090Y-92460020D02*
X135414900Y-92439960D01*
X135414900Y-92439960D02*
X141835010Y-92439960D01*
X141835010Y-92439960D02*
X142285100Y-92439960D01*
D22*
X131060000Y-101870000D02*
X129220000Y-101870000D01*
X127970000Y-99870000D02*
X126970000Y-98870000D01*
X128720000Y-99870000D02*
X127970000Y-99870000D01*
X128970000Y-100120000D02*
X128720000Y-99870000D01*
X128970000Y-101620000D02*
X128970000Y-100120000D01*
X129220000Y-101870000D02*
X128970000Y-101620000D01*
X127920000Y-95550000D02*
X126790000Y-95550000D01*
X126790000Y-95550000D02*
X126470000Y-95870000D01*
X126470000Y-95870000D02*
X126470000Y-98370000D01*
X126470000Y-98370000D02*
X126970000Y-98870000D01*
X131060000Y-102670000D02*
X131060000Y-101870000D01*
X131060000Y-101870000D02*
X131060000Y-101210000D01*
X131060000Y-101210000D02*
X130970000Y-101120000D01*
X128380000Y-102670000D02*
X128380000Y-101030000D01*
X128380000Y-101030000D02*
X128220000Y-100870000D01*
X128220000Y-100870000D02*
X127970000Y-100870000D01*
X127970000Y-100870000D02*
X127220000Y-100120000D01*
X127920000Y-94280000D02*
X127310000Y-94280000D01*
X127310000Y-94280000D02*
X125970000Y-95620000D01*
X125970000Y-95620000D02*
X125970000Y-98870000D01*
X125970000Y-98870000D02*
X127220000Y-100120000D01*
X133320000Y-95550000D02*
X130790000Y-95550000D01*
X130790000Y-95550000D02*
X130720000Y-95620000D01*
X126470000Y-92870000D02*
X126610000Y-93010000D01*
X126610000Y-93010000D02*
X127920000Y-93010000D01*
X126720000Y-91870000D02*
X126850000Y-91740000D01*
X126850000Y-91740000D02*
X127920000Y-91740000D01*
X127920000Y-90470000D02*
X126570000Y-90470000D01*
X126570000Y-90470000D02*
X126470000Y-90370000D01*
D27*
G36*
X134093000Y-88510077D02*
X134070000Y-88505419D01*
X132570000Y-88505419D01*
X132426587Y-88532404D01*
X132357000Y-88577182D01*
X132357000Y-88552375D01*
X132395130Y-88527839D01*
X132483494Y-88398514D01*
X132514581Y-88245000D01*
X132514581Y-87495000D01*
X132487596Y-87351587D01*
X132402839Y-87219870D01*
X132357000Y-87188550D01*
X132357000Y-87052375D01*
X132395130Y-87027839D01*
X132483494Y-86898514D01*
X132514581Y-86745000D01*
X132514581Y-85995000D01*
X132487596Y-85851587D01*
X132402839Y-85719870D01*
X132357000Y-85688550D01*
X132357000Y-85552375D01*
X132395130Y-85527839D01*
X132409369Y-85507000D01*
X132493873Y-85507000D01*
X132523618Y-85536797D01*
X132812769Y-85656863D01*
X133125857Y-85657136D01*
X133415217Y-85537575D01*
X133636797Y-85316382D01*
X133756863Y-85027231D01*
X133757136Y-84714143D01*
X133637575Y-84424783D01*
X133416382Y-84203203D01*
X133127231Y-84083137D01*
X132814143Y-84082864D01*
X132524783Y-84202425D01*
X132494155Y-84233000D01*
X132411288Y-84233000D01*
X132402839Y-84219870D01*
X132273514Y-84131506D01*
X132120000Y-84100419D01*
X131320000Y-84100419D01*
X131176587Y-84127404D01*
X131159587Y-84138343D01*
X131158327Y-84135301D01*
X130979698Y-83956673D01*
X130746309Y-83860000D01*
X130505750Y-83860000D01*
X130347000Y-84018750D01*
X130347000Y-84743000D01*
X130367000Y-84743000D01*
X130367000Y-84997000D01*
X130347000Y-84997000D01*
X130347000Y-86243000D01*
X130367000Y-86243000D01*
X130367000Y-86497000D01*
X130347000Y-86497000D01*
X130347000Y-87743000D01*
X130367000Y-87743000D01*
X130367000Y-87997000D01*
X130347000Y-87997000D01*
X130347000Y-88721250D01*
X130505750Y-88880000D01*
X130746309Y-88880000D01*
X130979698Y-88783327D01*
X131083000Y-88680026D01*
X131083000Y-91968873D01*
X131053203Y-91998618D01*
X130933137Y-92287769D01*
X130932864Y-92600857D01*
X131052425Y-92890217D01*
X131273618Y-93111797D01*
X131562769Y-93231863D01*
X131875857Y-93232136D01*
X132165217Y-93112575D01*
X132175419Y-93102391D01*
X132175419Y-93310000D01*
X132201796Y-93450179D01*
X132031673Y-93620301D01*
X131935000Y-93853690D01*
X131935000Y-93994250D01*
X132093750Y-94153000D01*
X133193000Y-94153000D01*
X133193000Y-94133000D01*
X133447000Y-94133000D01*
X133447000Y-94153000D01*
X133467000Y-94153000D01*
X133467000Y-94407000D01*
X133447000Y-94407000D01*
X133447000Y-94427000D01*
X133193000Y-94427000D01*
X133193000Y-94407000D01*
X132093750Y-94407000D01*
X131935000Y-94565750D01*
X131935000Y-94706310D01*
X132031673Y-94939699D01*
X132154975Y-95063000D01*
X131134689Y-95063000D01*
X131109662Y-95037929D01*
X130857252Y-94933120D01*
X130583947Y-94932881D01*
X130331354Y-95037250D01*
X130137929Y-95230338D01*
X130033120Y-95482748D01*
X130032881Y-95756053D01*
X130137250Y-96008646D01*
X130330338Y-96202071D01*
X130582748Y-96306880D01*
X130856053Y-96307119D01*
X131108646Y-96202750D01*
X131274685Y-96037000D01*
X132230451Y-96037000D01*
X132287161Y-96125130D01*
X132375340Y-96185380D01*
X132294870Y-96237161D01*
X132206506Y-96366486D01*
X132175419Y-96520000D01*
X132175419Y-97120000D01*
X132202404Y-97263413D01*
X132287161Y-97395130D01*
X132416486Y-97483494D01*
X132570000Y-97514581D01*
X134070000Y-97514581D01*
X134093000Y-97510253D01*
X134093000Y-105488000D01*
X133480000Y-105488000D01*
X133480000Y-105405750D01*
X133321250Y-105247000D01*
X132597000Y-105247000D01*
X132597000Y-105267000D01*
X132343000Y-105267000D01*
X132343000Y-105247000D01*
X132323000Y-105247000D01*
X132323000Y-104993000D01*
X132343000Y-104993000D01*
X132343000Y-104973000D01*
X132597000Y-104973000D01*
X132597000Y-104993000D01*
X133321250Y-104993000D01*
X133480000Y-104834250D01*
X133480000Y-104593691D01*
X133383327Y-104360302D01*
X133204699Y-104181673D01*
X133203312Y-104181098D01*
X133208494Y-104173514D01*
X133239581Y-104020000D01*
X133239581Y-103220000D01*
X133212596Y-103076587D01*
X133127839Y-102944870D01*
X133107000Y-102930631D01*
X133107000Y-101607437D01*
X133114581Y-101570000D01*
X133114581Y-100670000D01*
X133107000Y-100629710D01*
X133107000Y-100370000D01*
X133058511Y-100126231D01*
X133058511Y-100126230D01*
X132920427Y-99919573D01*
X132507099Y-99506245D01*
X132507136Y-99464143D01*
X132387575Y-99174783D01*
X132166382Y-98953203D01*
X131877231Y-98833137D01*
X131564143Y-98832864D01*
X131274783Y-98952425D01*
X131244155Y-98983000D01*
X130720000Y-98983000D01*
X130476231Y-99031489D01*
X130269573Y-99169573D01*
X129434128Y-100005018D01*
X129419929Y-99933633D01*
X129314361Y-99775639D01*
X129064361Y-99525639D01*
X128906367Y-99420071D01*
X128720000Y-99383000D01*
X128171722Y-99383000D01*
X127657002Y-98868280D01*
X127657119Y-98733947D01*
X127552750Y-98481354D01*
X127359662Y-98287929D01*
X127107252Y-98183120D01*
X126971723Y-98183001D01*
X126957000Y-98168278D01*
X126957000Y-97442849D01*
X127016486Y-97483494D01*
X127170000Y-97514581D01*
X128670000Y-97514581D01*
X128813413Y-97487596D01*
X128945130Y-97402839D01*
X129033494Y-97273514D01*
X129064581Y-97120000D01*
X129064581Y-96520000D01*
X129037596Y-96376587D01*
X128952839Y-96244870D01*
X128864660Y-96184620D01*
X128945130Y-96132839D01*
X129033494Y-96003514D01*
X129064581Y-95850000D01*
X129064581Y-95250000D01*
X129037596Y-95106587D01*
X128952839Y-94974870D01*
X128864660Y-94914620D01*
X128945130Y-94862839D01*
X129033494Y-94733514D01*
X129064581Y-94580000D01*
X129064581Y-93980000D01*
X129037596Y-93836587D01*
X128952839Y-93704870D01*
X128864660Y-93644620D01*
X128945130Y-93592839D01*
X129033494Y-93463514D01*
X129064581Y-93310000D01*
X129064581Y-92710000D01*
X129037596Y-92566587D01*
X128952839Y-92434870D01*
X128864660Y-92374620D01*
X128945130Y-92322839D01*
X129033494Y-92193514D01*
X129064581Y-92040000D01*
X129064581Y-91440000D01*
X129037596Y-91296587D01*
X128952839Y-91164870D01*
X128864660Y-91104620D01*
X128945130Y-91052839D01*
X129033494Y-90923514D01*
X129064581Y-90770000D01*
X129064581Y-90170000D01*
X129037596Y-90026587D01*
X128952839Y-89894870D01*
X128864660Y-89834620D01*
X128945130Y-89782839D01*
X129033494Y-89653514D01*
X129064581Y-89500000D01*
X129064581Y-88900000D01*
X129037596Y-88756587D01*
X128952839Y-88624870D01*
X128823514Y-88536506D01*
X128670000Y-88505419D01*
X127170000Y-88505419D01*
X127026587Y-88532404D01*
X126894870Y-88617161D01*
X126806506Y-88746486D01*
X126775419Y-88900000D01*
X126775419Y-89500000D01*
X126802404Y-89643413D01*
X126887161Y-89775130D01*
X126975340Y-89835380D01*
X126933748Y-89862144D01*
X126859662Y-89787929D01*
X126607252Y-89683120D01*
X126333947Y-89682881D01*
X126081354Y-89787250D01*
X125887929Y-89980338D01*
X125783120Y-90232748D01*
X125782881Y-90506053D01*
X125887250Y-90758646D01*
X126080338Y-90952071D01*
X126332748Y-91056880D01*
X126606053Y-91057119D01*
X126834213Y-90962846D01*
X126887161Y-91045130D01*
X126975340Y-91105380D01*
X126894870Y-91157161D01*
X126872739Y-91189551D01*
X126857252Y-91183120D01*
X126583947Y-91182881D01*
X126331354Y-91287250D01*
X126137929Y-91480338D01*
X126033120Y-91732748D01*
X126032881Y-92006053D01*
X126137250Y-92258646D01*
X126141143Y-92262546D01*
X126081354Y-92287250D01*
X125887929Y-92480338D01*
X125783120Y-92732748D01*
X125782881Y-93006053D01*
X125887250Y-93258646D01*
X126080338Y-93452071D01*
X126332748Y-93556880D01*
X126606053Y-93557119D01*
X126751553Y-93497000D01*
X126830451Y-93497000D01*
X126887161Y-93585130D01*
X126975340Y-93645380D01*
X126894870Y-93697161D01*
X126806506Y-93826486D01*
X126775419Y-93980000D01*
X126775419Y-94125859D01*
X125625639Y-95275639D01*
X125520071Y-95433633D01*
X125483000Y-95620000D01*
X125483000Y-98870000D01*
X125520071Y-99056367D01*
X125599194Y-99174783D01*
X125625639Y-99214361D01*
X126532998Y-100121720D01*
X126532881Y-100256053D01*
X126637250Y-100508646D01*
X126830338Y-100702071D01*
X127082748Y-100806880D01*
X127218277Y-100806999D01*
X127575419Y-101164141D01*
X127575419Y-101320000D01*
X127602404Y-101463413D01*
X127687161Y-101595130D01*
X127816486Y-101683494D01*
X127893000Y-101698988D01*
X127893000Y-102095799D01*
X127789870Y-102162161D01*
X127701506Y-102291486D01*
X127670419Y-102445000D01*
X127670419Y-102891556D01*
X127526673Y-103035301D01*
X127430000Y-103268690D01*
X127430000Y-103348750D01*
X127588750Y-103507500D01*
X128253000Y-103507500D01*
X128253000Y-103473000D01*
X128475419Y-103473000D01*
X128475419Y-103767000D01*
X128253000Y-103767000D01*
X128253000Y-103732500D01*
X127588750Y-103732500D01*
X127430000Y-103891250D01*
X127430000Y-103971310D01*
X127526673Y-104204699D01*
X127670419Y-104348444D01*
X127670419Y-104795000D01*
X127697404Y-104938413D01*
X127782161Y-105070130D01*
X127911486Y-105158494D01*
X128065000Y-105189581D01*
X128583590Y-105189581D01*
X128587161Y-105195130D01*
X128716486Y-105283494D01*
X128870000Y-105314581D01*
X130570000Y-105314581D01*
X130713413Y-105287596D01*
X130845130Y-105202839D01*
X130854189Y-105189581D01*
X131375000Y-105189581D01*
X131460000Y-105173587D01*
X131460000Y-105247002D01*
X131618748Y-105247002D01*
X131460000Y-105405750D01*
X131460000Y-105488000D01*
X124462000Y-105488000D01*
X124462000Y-88155750D01*
X129185000Y-88155750D01*
X129185000Y-88371310D01*
X129281673Y-88604699D01*
X129460302Y-88783327D01*
X129693691Y-88880000D01*
X129934250Y-88880000D01*
X130093000Y-88721250D01*
X130093000Y-87997000D01*
X129343750Y-87997000D01*
X129185000Y-88155750D01*
X124462000Y-88155750D01*
X124462000Y-86655750D01*
X129185000Y-86655750D01*
X129185000Y-86871310D01*
X129281673Y-87104699D01*
X129296974Y-87120000D01*
X129281673Y-87135301D01*
X129185000Y-87368690D01*
X129185000Y-87584250D01*
X129343750Y-87743000D01*
X130093000Y-87743000D01*
X130093000Y-86497000D01*
X129343750Y-86497000D01*
X129185000Y-86655750D01*
X124462000Y-86655750D01*
X124462000Y-85155750D01*
X129185000Y-85155750D01*
X129185000Y-85371310D01*
X129281673Y-85604699D01*
X129296974Y-85620000D01*
X129281673Y-85635301D01*
X129185000Y-85868690D01*
X129185000Y-86084250D01*
X129343750Y-86243000D01*
X130093000Y-86243000D01*
X130093000Y-84997000D01*
X129343750Y-84997000D01*
X129185000Y-85155750D01*
X124462000Y-85155750D01*
X124462000Y-84368690D01*
X129185000Y-84368690D01*
X129185000Y-84584250D01*
X129343750Y-84743000D01*
X130093000Y-84743000D01*
X130093000Y-84018750D01*
X129934250Y-83860000D01*
X129693691Y-83860000D01*
X129460302Y-83956673D01*
X129281673Y-84135301D01*
X129185000Y-84368690D01*
X124462000Y-84368690D01*
X124462000Y-79412000D01*
X134093000Y-79412000D01*
X134093000Y-88510077D01*
X134093000Y-88510077D01*
G37*
X134093000Y-88510077D02*
X134070000Y-88505419D01*
X132570000Y-88505419D01*
X132426587Y-88532404D01*
X132357000Y-88577182D01*
X132357000Y-88552375D01*
X132395130Y-88527839D01*
X132483494Y-88398514D01*
X132514581Y-88245000D01*
X132514581Y-87495000D01*
X132487596Y-87351587D01*
X132402839Y-87219870D01*
X132357000Y-87188550D01*
X132357000Y-87052375D01*
X132395130Y-87027839D01*
X132483494Y-86898514D01*
X132514581Y-86745000D01*
X132514581Y-85995000D01*
X132487596Y-85851587D01*
X132402839Y-85719870D01*
X132357000Y-85688550D01*
X132357000Y-85552375D01*
X132395130Y-85527839D01*
X132409369Y-85507000D01*
X132493873Y-85507000D01*
X132523618Y-85536797D01*
X132812769Y-85656863D01*
X133125857Y-85657136D01*
X133415217Y-85537575D01*
X133636797Y-85316382D01*
X133756863Y-85027231D01*
X133757136Y-84714143D01*
X133637575Y-84424783D01*
X133416382Y-84203203D01*
X133127231Y-84083137D01*
X132814143Y-84082864D01*
X132524783Y-84202425D01*
X132494155Y-84233000D01*
X132411288Y-84233000D01*
X132402839Y-84219870D01*
X132273514Y-84131506D01*
X132120000Y-84100419D01*
X131320000Y-84100419D01*
X131176587Y-84127404D01*
X131159587Y-84138343D01*
X131158327Y-84135301D01*
X130979698Y-83956673D01*
X130746309Y-83860000D01*
X130505750Y-83860000D01*
X130347000Y-84018750D01*
X130347000Y-84743000D01*
X130367000Y-84743000D01*
X130367000Y-84997000D01*
X130347000Y-84997000D01*
X130347000Y-86243000D01*
X130367000Y-86243000D01*
X130367000Y-86497000D01*
X130347000Y-86497000D01*
X130347000Y-87743000D01*
X130367000Y-87743000D01*
X130367000Y-87997000D01*
X130347000Y-87997000D01*
X130347000Y-88721250D01*
X130505750Y-88880000D01*
X130746309Y-88880000D01*
X130979698Y-88783327D01*
X131083000Y-88680026D01*
X131083000Y-91968873D01*
X131053203Y-91998618D01*
X130933137Y-92287769D01*
X130932864Y-92600857D01*
X131052425Y-92890217D01*
X131273618Y-93111797D01*
X131562769Y-93231863D01*
X131875857Y-93232136D01*
X132165217Y-93112575D01*
X132175419Y-93102391D01*
X132175419Y-93310000D01*
X132201796Y-93450179D01*
X132031673Y-93620301D01*
X131935000Y-93853690D01*
X131935000Y-93994250D01*
X132093750Y-94153000D01*
X133193000Y-94153000D01*
X133193000Y-94133000D01*
X133447000Y-94133000D01*
X133447000Y-94153000D01*
X133467000Y-94153000D01*
X133467000Y-94407000D01*
X133447000Y-94407000D01*
X133447000Y-94427000D01*
X133193000Y-94427000D01*
X133193000Y-94407000D01*
X132093750Y-94407000D01*
X131935000Y-94565750D01*
X131935000Y-94706310D01*
X132031673Y-94939699D01*
X132154975Y-95063000D01*
X131134689Y-95063000D01*
X131109662Y-95037929D01*
X130857252Y-94933120D01*
X130583947Y-94932881D01*
X130331354Y-95037250D01*
X130137929Y-95230338D01*
X130033120Y-95482748D01*
X130032881Y-95756053D01*
X130137250Y-96008646D01*
X130330338Y-96202071D01*
X130582748Y-96306880D01*
X130856053Y-96307119D01*
X131108646Y-96202750D01*
X131274685Y-96037000D01*
X132230451Y-96037000D01*
X132287161Y-96125130D01*
X132375340Y-96185380D01*
X132294870Y-96237161D01*
X132206506Y-96366486D01*
X132175419Y-96520000D01*
X132175419Y-97120000D01*
X132202404Y-97263413D01*
X132287161Y-97395130D01*
X132416486Y-97483494D01*
X132570000Y-97514581D01*
X134070000Y-97514581D01*
X134093000Y-97510253D01*
X134093000Y-105488000D01*
X133480000Y-105488000D01*
X133480000Y-105405750D01*
X133321250Y-105247000D01*
X132597000Y-105247000D01*
X132597000Y-105267000D01*
X132343000Y-105267000D01*
X132343000Y-105247000D01*
X132323000Y-105247000D01*
X132323000Y-104993000D01*
X132343000Y-104993000D01*
X132343000Y-104973000D01*
X132597000Y-104973000D01*
X132597000Y-104993000D01*
X133321250Y-104993000D01*
X133480000Y-104834250D01*
X133480000Y-104593691D01*
X133383327Y-104360302D01*
X133204699Y-104181673D01*
X133203312Y-104181098D01*
X133208494Y-104173514D01*
X133239581Y-104020000D01*
X133239581Y-103220000D01*
X133212596Y-103076587D01*
X133127839Y-102944870D01*
X133107000Y-102930631D01*
X133107000Y-101607437D01*
X133114581Y-101570000D01*
X133114581Y-100670000D01*
X133107000Y-100629710D01*
X133107000Y-100370000D01*
X133058511Y-100126231D01*
X133058511Y-100126230D01*
X132920427Y-99919573D01*
X132507099Y-99506245D01*
X132507136Y-99464143D01*
X132387575Y-99174783D01*
X132166382Y-98953203D01*
X131877231Y-98833137D01*
X131564143Y-98832864D01*
X131274783Y-98952425D01*
X131244155Y-98983000D01*
X130720000Y-98983000D01*
X130476231Y-99031489D01*
X130269573Y-99169573D01*
X129434128Y-100005018D01*
X129419929Y-99933633D01*
X129314361Y-99775639D01*
X129064361Y-99525639D01*
X128906367Y-99420071D01*
X128720000Y-99383000D01*
X128171722Y-99383000D01*
X127657002Y-98868280D01*
X127657119Y-98733947D01*
X127552750Y-98481354D01*
X127359662Y-98287929D01*
X127107252Y-98183120D01*
X126971723Y-98183001D01*
X126957000Y-98168278D01*
X126957000Y-97442849D01*
X127016486Y-97483494D01*
X127170000Y-97514581D01*
X128670000Y-97514581D01*
X128813413Y-97487596D01*
X128945130Y-97402839D01*
X129033494Y-97273514D01*
X129064581Y-97120000D01*
X129064581Y-96520000D01*
X129037596Y-96376587D01*
X128952839Y-96244870D01*
X128864660Y-96184620D01*
X128945130Y-96132839D01*
X129033494Y-96003514D01*
X129064581Y-95850000D01*
X129064581Y-95250000D01*
X129037596Y-95106587D01*
X128952839Y-94974870D01*
X128864660Y-94914620D01*
X128945130Y-94862839D01*
X129033494Y-94733514D01*
X129064581Y-94580000D01*
X129064581Y-93980000D01*
X129037596Y-93836587D01*
X128952839Y-93704870D01*
X128864660Y-93644620D01*
X128945130Y-93592839D01*
X129033494Y-93463514D01*
X129064581Y-93310000D01*
X129064581Y-92710000D01*
X129037596Y-92566587D01*
X128952839Y-92434870D01*
X128864660Y-92374620D01*
X128945130Y-92322839D01*
X129033494Y-92193514D01*
X129064581Y-92040000D01*
X129064581Y-91440000D01*
X129037596Y-91296587D01*
X128952839Y-91164870D01*
X128864660Y-91104620D01*
X128945130Y-91052839D01*
X129033494Y-90923514D01*
X129064581Y-90770000D01*
X129064581Y-90170000D01*
X129037596Y-90026587D01*
X128952839Y-89894870D01*
X128864660Y-89834620D01*
X128945130Y-89782839D01*
X129033494Y-89653514D01*
X129064581Y-89500000D01*
X129064581Y-88900000D01*
X129037596Y-88756587D01*
X128952839Y-88624870D01*
X128823514Y-88536506D01*
X128670000Y-88505419D01*
X127170000Y-88505419D01*
X127026587Y-88532404D01*
X126894870Y-88617161D01*
X126806506Y-88746486D01*
X126775419Y-88900000D01*
X126775419Y-89500000D01*
X126802404Y-89643413D01*
X126887161Y-89775130D01*
X126975340Y-89835380D01*
X126933748Y-89862144D01*
X126859662Y-89787929D01*
X126607252Y-89683120D01*
X126333947Y-89682881D01*
X126081354Y-89787250D01*
X125887929Y-89980338D01*
X125783120Y-90232748D01*
X125782881Y-90506053D01*
X125887250Y-90758646D01*
X126080338Y-90952071D01*
X126332748Y-91056880D01*
X126606053Y-91057119D01*
X126834213Y-90962846D01*
X126887161Y-91045130D01*
X126975340Y-91105380D01*
X126894870Y-91157161D01*
X126872739Y-91189551D01*
X126857252Y-91183120D01*
X126583947Y-91182881D01*
X126331354Y-91287250D01*
X126137929Y-91480338D01*
X126033120Y-91732748D01*
X126032881Y-92006053D01*
X126137250Y-92258646D01*
X126141143Y-92262546D01*
X126081354Y-92287250D01*
X125887929Y-92480338D01*
X125783120Y-92732748D01*
X125782881Y-93006053D01*
X125887250Y-93258646D01*
X126080338Y-93452071D01*
X126332748Y-93556880D01*
X126606053Y-93557119D01*
X126751553Y-93497000D01*
X126830451Y-93497000D01*
X126887161Y-93585130D01*
X126975340Y-93645380D01*
X126894870Y-93697161D01*
X126806506Y-93826486D01*
X126775419Y-93980000D01*
X126775419Y-94125859D01*
X125625639Y-95275639D01*
X125520071Y-95433633D01*
X125483000Y-95620000D01*
X125483000Y-98870000D01*
X125520071Y-99056367D01*
X125599194Y-99174783D01*
X125625639Y-99214361D01*
X126532998Y-100121720D01*
X126532881Y-100256053D01*
X126637250Y-100508646D01*
X126830338Y-100702071D01*
X127082748Y-100806880D01*
X127218277Y-100806999D01*
X127575419Y-101164141D01*
X127575419Y-101320000D01*
X127602404Y-101463413D01*
X127687161Y-101595130D01*
X127816486Y-101683494D01*
X127893000Y-101698988D01*
X127893000Y-102095799D01*
X127789870Y-102162161D01*
X127701506Y-102291486D01*
X127670419Y-102445000D01*
X127670419Y-102891556D01*
X127526673Y-103035301D01*
X127430000Y-103268690D01*
X127430000Y-103348750D01*
X127588750Y-103507500D01*
X128253000Y-103507500D01*
X128253000Y-103473000D01*
X128475419Y-103473000D01*
X128475419Y-103767000D01*
X128253000Y-103767000D01*
X128253000Y-103732500D01*
X127588750Y-103732500D01*
X127430000Y-103891250D01*
X127430000Y-103971310D01*
X127526673Y-104204699D01*
X127670419Y-104348444D01*
X127670419Y-104795000D01*
X127697404Y-104938413D01*
X127782161Y-105070130D01*
X127911486Y-105158494D01*
X128065000Y-105189581D01*
X128583590Y-105189581D01*
X128587161Y-105195130D01*
X128716486Y-105283494D01*
X128870000Y-105314581D01*
X130570000Y-105314581D01*
X130713413Y-105287596D01*
X130845130Y-105202839D01*
X130854189Y-105189581D01*
X131375000Y-105189581D01*
X131460000Y-105173587D01*
X131460000Y-105247002D01*
X131618748Y-105247002D01*
X131460000Y-105405750D01*
X131460000Y-105488000D01*
X124462000Y-105488000D01*
X124462000Y-88155750D01*
X129185000Y-88155750D01*
X129185000Y-88371310D01*
X129281673Y-88604699D01*
X129460302Y-88783327D01*
X129693691Y-88880000D01*
X129934250Y-88880000D01*
X130093000Y-88721250D01*
X130093000Y-87997000D01*
X129343750Y-87997000D01*
X129185000Y-88155750D01*
X124462000Y-88155750D01*
X124462000Y-86655750D01*
X129185000Y-86655750D01*
X129185000Y-86871310D01*
X129281673Y-87104699D01*
X129296974Y-87120000D01*
X129281673Y-87135301D01*
X129185000Y-87368690D01*
X129185000Y-87584250D01*
X129343750Y-87743000D01*
X130093000Y-87743000D01*
X130093000Y-86497000D01*
X129343750Y-86497000D01*
X129185000Y-86655750D01*
X124462000Y-86655750D01*
X124462000Y-85155750D01*
X129185000Y-85155750D01*
X129185000Y-85371310D01*
X129281673Y-85604699D01*
X129296974Y-85620000D01*
X129281673Y-85635301D01*
X129185000Y-85868690D01*
X129185000Y-86084250D01*
X129343750Y-86243000D01*
X130093000Y-86243000D01*
X130093000Y-84997000D01*
X129343750Y-84997000D01*
X129185000Y-85155750D01*
X124462000Y-85155750D01*
X124462000Y-84368690D01*
X129185000Y-84368690D01*
X129185000Y-84584250D01*
X129343750Y-84743000D01*
X130093000Y-84743000D01*
X130093000Y-84018750D01*
X129934250Y-83860000D01*
X129693691Y-83860000D01*
X129460302Y-83956673D01*
X129281673Y-84135301D01*
X129185000Y-84368690D01*
X124462000Y-84368690D01*
X124462000Y-79412000D01*
X134093000Y-79412000D01*
X134093000Y-88510077D01*
D28*
G36*
X151203800Y-80373800D02*
X142780000Y-80373800D01*
X142750354Y-80379803D01*
X142725379Y-80396868D01*
X142709011Y-80422305D01*
X142703800Y-80450000D01*
X142703800Y-104450000D01*
X142709803Y-104479646D01*
X142726868Y-104504621D01*
X142752305Y-104520989D01*
X142780000Y-104526200D01*
X151203800Y-104526200D01*
X151203800Y-105373800D01*
X139356200Y-105373800D01*
X139356200Y-93450000D01*
X139350197Y-93420354D01*
X139333132Y-93395379D01*
X139307695Y-93379011D01*
X139280000Y-93373800D01*
X137656200Y-93373800D01*
X137656200Y-93026200D01*
X139703800Y-93026200D01*
X139703800Y-104450000D01*
X139709803Y-104479646D01*
X139726868Y-104504621D01*
X139752305Y-104520989D01*
X139780000Y-104526200D01*
X141780000Y-104526200D01*
X141809646Y-104520197D01*
X141834621Y-104503132D01*
X141850989Y-104477695D01*
X141856200Y-104450000D01*
X141856200Y-80450000D01*
X141850197Y-80420354D01*
X141833132Y-80395379D01*
X141807695Y-80379011D01*
X141780000Y-80373800D01*
X139780000Y-80373800D01*
X139750354Y-80379803D01*
X139725379Y-80396868D01*
X139709011Y-80422305D01*
X139703800Y-80450000D01*
X139703800Y-91873800D01*
X137656200Y-91873800D01*
X137656200Y-91526200D01*
X139280000Y-91526200D01*
X139309646Y-91520197D01*
X139334621Y-91503132D01*
X139350989Y-91477695D01*
X139356200Y-91450000D01*
X139356200Y-79526200D01*
X151203800Y-79526200D01*
X151203800Y-80373800D01*
X151203800Y-80373800D01*
G37*
X151203800Y-80373800D02*
X142780000Y-80373800D01*
X142750354Y-80379803D01*
X142725379Y-80396868D01*
X142709011Y-80422305D01*
X142703800Y-80450000D01*
X142703800Y-104450000D01*
X142709803Y-104479646D01*
X142726868Y-104504621D01*
X142752305Y-104520989D01*
X142780000Y-104526200D01*
X151203800Y-104526200D01*
X151203800Y-105373800D01*
X139356200Y-105373800D01*
X139356200Y-93450000D01*
X139350197Y-93420354D01*
X139333132Y-93395379D01*
X139307695Y-93379011D01*
X139280000Y-93373800D01*
X137656200Y-93373800D01*
X137656200Y-93026200D01*
X139703800Y-93026200D01*
X139703800Y-104450000D01*
X139709803Y-104479646D01*
X139726868Y-104504621D01*
X139752305Y-104520989D01*
X139780000Y-104526200D01*
X141780000Y-104526200D01*
X141809646Y-104520197D01*
X141834621Y-104503132D01*
X141850989Y-104477695D01*
X141856200Y-104450000D01*
X141856200Y-80450000D01*
X141850197Y-80420354D01*
X141833132Y-80395379D01*
X141807695Y-80379011D01*
X141780000Y-80373800D01*
X139780000Y-80373800D01*
X139750354Y-80379803D01*
X139725379Y-80396868D01*
X139709011Y-80422305D01*
X139703800Y-80450000D01*
X139703800Y-91873800D01*
X137656200Y-91873800D01*
X137656200Y-91526200D01*
X139280000Y-91526200D01*
X139309646Y-91520197D01*
X139334621Y-91503132D01*
X139350989Y-91477695D01*
X139356200Y-91450000D01*
X139356200Y-79526200D01*
X151203800Y-79526200D01*
X151203800Y-80373800D01*
M02*
