G04 #@! TF.GenerationSoftware,KiCad,Pcbnew,5.0.0-fee4fd1~66~ubuntu16.04.1*
G04 #@! TF.CreationDate,2018-09-16T20:12:26+02:00*
G04 #@! TF.ProjectId,sensof_ht,73656E736F665F68742E6B696361645F,01*
G04 #@! TF.SameCoordinates,Original*
G04 #@! TF.FileFunction,Copper,L2,Bot,Signal*
G04 #@! TF.FilePolarity,Positive*
%FSLAX46Y46*%
G04 Gerber Fmt 4.6, Leading zero omitted, Abs format (unit mm)*
G04 Created by KiCad (PCBNEW 5.0.0-fee4fd1~66~ubuntu16.04.1) date Sun Sep 16 20:12:26 2018*
%MOMM*%
%LPD*%
G01*
G04 APERTURE LIST*
G04 #@! TA.AperFunction,SMDPad,CuDef*
%ADD10R,0.500000X0.500000*%
G04 #@! TD*
G04 #@! TA.AperFunction,BGAPad,CuDef*
%ADD11C,1.500000*%
G04 #@! TD*
G04 #@! TA.AperFunction,ViaPad*
%ADD12C,0.600000*%
G04 #@! TD*
G04 #@! TA.AperFunction,ViaPad*
%ADD13C,0.800000*%
G04 #@! TD*
G04 #@! TA.AperFunction,Conductor*
%ADD14C,0.500000*%
G04 #@! TD*
G04 #@! TA.AperFunction,Conductor*
%ADD15C,0.199900*%
G04 #@! TD*
G04 #@! TA.AperFunction,Conductor*
%ADD16C,0.200000*%
G04 #@! TD*
G04 #@! TA.AperFunction,Conductor*
%ADD17C,0.254000*%
G04 #@! TD*
G04 #@! TA.AperFunction,Conductor*
%ADD18C,0.152400*%
G04 #@! TD*
G04 APERTURE END LIST*
D10*
G04 #@! TO.P,C1,1*
G04 #@! TO.N,GND*
X133845000Y-90460000D03*
G04 #@! TO.P,C1,2*
G04 #@! TO.N,Net-(C1-Pad2)*
X133845000Y-91380000D03*
G04 #@! TD*
G04 #@! TO.P,L1,1*
G04 #@! TO.N,VDD*
X132935000Y-92445000D03*
G04 #@! TO.P,L1,2*
G04 #@! TO.N,Net-(C1-Pad2)*
X133855000Y-92445000D03*
G04 #@! TD*
D11*
G04 #@! TO.P,TP1,1*
G04 #@! TO.N,VDD*
X126000000Y-86100000D03*
G04 #@! TD*
G04 #@! TO.P,TP2,1*
G04 #@! TO.N,Net-(R2-Pad2)*
X126000000Y-101340000D03*
G04 #@! TD*
G04 #@! TO.P,TP3,1*
G04 #@! TO.N,Net-(R1-Pad2)*
X126000000Y-98800000D03*
G04 #@! TD*
G04 #@! TO.P,TP4,1*
G04 #@! TO.N,Net-(TP4-Pad1)*
X126000000Y-96260000D03*
G04 #@! TD*
G04 #@! TO.P,TP5,1*
G04 #@! TO.N,Net-(TP5-Pad1)*
X126000000Y-93720000D03*
G04 #@! TD*
G04 #@! TO.P,TP6,1*
G04 #@! TO.N,Net-(TP6-Pad1)*
X126000000Y-91180000D03*
G04 #@! TD*
G04 #@! TO.P,TP7,1*
G04 #@! TO.N,Net-(TP7-Pad1)*
X126000000Y-88640000D03*
G04 #@! TD*
G04 #@! TO.P,TP8,1*
G04 #@! TO.N,GND*
X126000000Y-83560000D03*
G04 #@! TD*
D12*
G04 #@! TO.N,GND*
X133720000Y-99120000D03*
X133720000Y-105120000D03*
X133720000Y-102120000D03*
X127220000Y-101120000D03*
X124750000Y-105250000D03*
X127500000Y-103500000D03*
X127470000Y-105370000D03*
X127720000Y-98370000D03*
X130720000Y-98370000D03*
X129720000Y-95370000D03*
X130220000Y-92370000D03*
X127220000Y-87880000D03*
X130720000Y-89370000D03*
X128970000Y-86370000D03*
X133220000Y-87870000D03*
X133220000Y-85870000D03*
D13*
X152470000Y-83870000D03*
X133470000Y-83620000D03*
D12*
X130470000Y-83120000D03*
X127470000Y-83120000D03*
X127470000Y-80120000D03*
X133470000Y-80120000D03*
X130470000Y-80120000D03*
X127040000Y-85310000D03*
X124970000Y-80120000D03*
X124750000Y-84750000D03*
X128720000Y-84120000D03*
X124750000Y-87290000D03*
X124750000Y-89830000D03*
X124750000Y-92370000D03*
X124750000Y-94910000D03*
X124750000Y-97450000D03*
X124750000Y-82210000D03*
X124750000Y-102530000D03*
X124750000Y-99990000D03*
D13*
G04 #@! TO.N,VDD*
X131720000Y-99620000D03*
X131720000Y-92445000D03*
X154720000Y-84870000D03*
X132970000Y-84870000D03*
G04 #@! TO.N,Net-(C1-Pad2)*
X150780000Y-79950000D03*
X150780000Y-104950000D03*
D12*
X135395090Y-92460020D03*
G04 #@! TO.N,Net-(R1-Pad2)*
X127170000Y-99070000D03*
G04 #@! TO.N,Net-(R2-Pad2)*
X127220000Y-100120000D03*
G04 #@! TO.N,Net-(TP4-Pad1)*
X130720000Y-95620000D03*
G04 #@! TO.N,Net-(TP5-Pad1)*
X126760000Y-92890000D03*
G04 #@! TO.N,Net-(TP6-Pad1)*
X126700000Y-92090000D03*
G04 #@! TO.N,Net-(TP7-Pad1)*
X126630000Y-89920000D03*
G04 #@! TD*
D14*
G04 #@! TO.N,GND*
X152470000Y-83870000D02*
X152220000Y-84120000D01*
X152220000Y-84120000D02*
X133970000Y-84120000D01*
X133970000Y-84120000D02*
X133470000Y-83620000D01*
G04 #@! TO.N,VDD*
X131720000Y-92445000D02*
X131720000Y-99620000D01*
X132935000Y-92445000D02*
X131720000Y-92445000D01*
X132970000Y-84870000D02*
X129220000Y-84870000D01*
X132970000Y-84870000D02*
X154720000Y-84870000D01*
X127990000Y-86100000D02*
X126000000Y-86100000D01*
X129220000Y-84870000D02*
X127990000Y-86100000D01*
D15*
G04 #@! TO.N,Net-(C1-Pad2)*
X133859660Y-92448090D02*
X133859660Y-91415580D01*
X133859660Y-91415580D02*
X133849500Y-91405420D01*
X135395090Y-92460020D02*
X135383150Y-92448090D01*
X135383150Y-92448090D02*
X133859660Y-92448090D01*
D16*
G04 #@! TO.N,Net-(R1-Pad2)*
X126000000Y-98800000D02*
X126900000Y-98800000D01*
X126900000Y-98800000D02*
X127170000Y-99070000D01*
G04 #@! TO.N,Net-(R2-Pad2)*
X125970000Y-101620000D02*
X125720000Y-101620000D01*
X126000000Y-101340000D02*
X127220000Y-100120000D01*
G04 #@! TO.N,Net-(TP4-Pad1)*
X130080000Y-96260000D02*
X130720000Y-95620000D01*
X126000000Y-96260000D02*
X130080000Y-96260000D01*
G04 #@! TO.N,Net-(TP5-Pad1)*
X125720000Y-94120000D02*
X125720000Y-93620000D01*
X126000000Y-93650000D02*
X126760000Y-92890000D01*
X126000000Y-93720000D02*
X126000000Y-93650000D01*
G04 #@! TO.N,Net-(TP6-Pad1)*
X126000000Y-91390000D02*
X126700000Y-92090000D01*
X126000000Y-91180000D02*
X126000000Y-91390000D01*
G04 #@! TO.N,Net-(TP7-Pad1)*
X126000000Y-89290000D02*
X126630000Y-89920000D01*
X126000000Y-88640000D02*
X126000000Y-89290000D01*
G04 #@! TD*
D17*
G04 #@! TO.N,GND*
G36*
X134093000Y-84233000D02*
X133445986Y-84233000D01*
X133415800Y-84202814D01*
X133126544Y-84083000D01*
X132813456Y-84083000D01*
X132524200Y-84202814D01*
X132494014Y-84233000D01*
X129282736Y-84233000D01*
X129220000Y-84220521D01*
X129157264Y-84233000D01*
X128971455Y-84269960D01*
X128760749Y-84410749D01*
X128725212Y-84463934D01*
X127726147Y-85463000D01*
X126966826Y-85463000D01*
X126963902Y-85455941D01*
X126644059Y-85136098D01*
X126226163Y-84963000D01*
X125773837Y-84963000D01*
X125355941Y-85136098D01*
X125036098Y-85455941D01*
X124863000Y-85873837D01*
X124863000Y-86326163D01*
X125036098Y-86744059D01*
X125355941Y-87063902D01*
X125773837Y-87237000D01*
X126226163Y-87237000D01*
X126644059Y-87063902D01*
X126963902Y-86744059D01*
X126966826Y-86737000D01*
X127927268Y-86737000D01*
X127990000Y-86749478D01*
X128052732Y-86737000D01*
X128052736Y-86737000D01*
X128238545Y-86700040D01*
X128449251Y-86559251D01*
X128484790Y-86506063D01*
X129483854Y-85507000D01*
X132494014Y-85507000D01*
X132524200Y-85537186D01*
X132813456Y-85657000D01*
X133126544Y-85657000D01*
X133415800Y-85537186D01*
X133445986Y-85507000D01*
X134093000Y-85507000D01*
X134093000Y-89610750D01*
X133970000Y-89733750D01*
X133970000Y-90335000D01*
X133992000Y-90335000D01*
X133992000Y-90585000D01*
X133970000Y-90585000D01*
X133970000Y-90607000D01*
X133720000Y-90607000D01*
X133720000Y-90585000D01*
X133118750Y-90585000D01*
X132960000Y-90743750D01*
X132960000Y-90836309D01*
X133056673Y-91069698D01*
X133200419Y-91213445D01*
X133200419Y-91630000D01*
X133230455Y-91781000D01*
X133252387Y-91813823D01*
X133185000Y-91800419D01*
X132685000Y-91800419D01*
X132646888Y-91808000D01*
X132195986Y-91808000D01*
X132165800Y-91777814D01*
X131876544Y-91658000D01*
X131563456Y-91658000D01*
X131274200Y-91777814D01*
X131052814Y-91999200D01*
X130933000Y-92288456D01*
X130933000Y-92601544D01*
X131052814Y-92890800D01*
X131083000Y-92920986D01*
X131083000Y-95026757D01*
X130856653Y-94933000D01*
X130583347Y-94933000D01*
X130330846Y-95037590D01*
X130137590Y-95230846D01*
X130033000Y-95483347D01*
X130033000Y-95618279D01*
X129878279Y-95773000D01*
X127028958Y-95773000D01*
X126963902Y-95615941D01*
X126644059Y-95296098D01*
X126226163Y-95123000D01*
X125773837Y-95123000D01*
X125355941Y-95296098D01*
X125036098Y-95615941D01*
X124863000Y-96033837D01*
X124863000Y-96486163D01*
X125036098Y-96904059D01*
X125355941Y-97223902D01*
X125773837Y-97397000D01*
X126226163Y-97397000D01*
X126644059Y-97223902D01*
X126963902Y-96904059D01*
X127028958Y-96747000D01*
X130032040Y-96747000D01*
X130080000Y-96756540D01*
X130127960Y-96747000D01*
X130127961Y-96747000D01*
X130270018Y-96718743D01*
X130431107Y-96611107D01*
X130458277Y-96570444D01*
X130721721Y-96307000D01*
X130856653Y-96307000D01*
X131083001Y-96213243D01*
X131083001Y-99144013D01*
X131052814Y-99174200D01*
X130933000Y-99463456D01*
X130933000Y-99776544D01*
X131052814Y-100065800D01*
X131274200Y-100287186D01*
X131563456Y-100407000D01*
X131876544Y-100407000D01*
X132165800Y-100287186D01*
X132387186Y-100065800D01*
X132507000Y-99776544D01*
X132507000Y-99463456D01*
X132387186Y-99174200D01*
X132357000Y-99144014D01*
X132357000Y-93082000D01*
X132646888Y-93082000D01*
X132685000Y-93089581D01*
X133185000Y-93089581D01*
X133336000Y-93059545D01*
X133395000Y-93020123D01*
X133454000Y-93059545D01*
X133605000Y-93089581D01*
X134093000Y-93089581D01*
X134093000Y-105488000D01*
X124462000Y-105488000D01*
X124462000Y-98573837D01*
X124863000Y-98573837D01*
X124863000Y-99026163D01*
X125036098Y-99444059D01*
X125355941Y-99763902D01*
X125773837Y-99937000D01*
X126226163Y-99937000D01*
X126619722Y-99773983D01*
X126533000Y-99983347D01*
X126533000Y-100118278D01*
X126383222Y-100268056D01*
X126226163Y-100203000D01*
X125773837Y-100203000D01*
X125355941Y-100376098D01*
X125036098Y-100695941D01*
X124863000Y-101113837D01*
X124863000Y-101566163D01*
X125036098Y-101984059D01*
X125355941Y-102303902D01*
X125773837Y-102477000D01*
X126226163Y-102477000D01*
X126644059Y-102303902D01*
X126963902Y-101984059D01*
X127137000Y-101566163D01*
X127137000Y-101113837D01*
X127071944Y-100956778D01*
X127221722Y-100807000D01*
X127356653Y-100807000D01*
X127609154Y-100702410D01*
X127802410Y-100509154D01*
X127907000Y-100256653D01*
X127907000Y-99983347D01*
X127802410Y-99730846D01*
X127641564Y-99570000D01*
X127752410Y-99459154D01*
X127857000Y-99206653D01*
X127857000Y-98933347D01*
X127752410Y-98680846D01*
X127559154Y-98487590D01*
X127306653Y-98383000D01*
X127152491Y-98383000D01*
X127090018Y-98341257D01*
X127036231Y-98330558D01*
X126963902Y-98155941D01*
X126644059Y-97836098D01*
X126226163Y-97663000D01*
X125773837Y-97663000D01*
X125355941Y-97836098D01*
X125036098Y-98155941D01*
X124863000Y-98573837D01*
X124462000Y-98573837D01*
X124462000Y-88413837D01*
X124863000Y-88413837D01*
X124863000Y-88866163D01*
X125036098Y-89284059D01*
X125355941Y-89603902D01*
X125773837Y-89777000D01*
X125798279Y-89777000D01*
X125943000Y-89921721D01*
X125943000Y-90043000D01*
X125773837Y-90043000D01*
X125355941Y-90216098D01*
X125036098Y-90535941D01*
X124863000Y-90953837D01*
X124863000Y-91406163D01*
X125036098Y-91824059D01*
X125355941Y-92143902D01*
X125773837Y-92317000D01*
X126050423Y-92317000D01*
X126117590Y-92479154D01*
X126166370Y-92527934D01*
X126143560Y-92583000D01*
X125773837Y-92583000D01*
X125355941Y-92756098D01*
X125036098Y-93075941D01*
X124863000Y-93493837D01*
X124863000Y-93946163D01*
X125036098Y-94364059D01*
X125355941Y-94683902D01*
X125773837Y-94857000D01*
X126226163Y-94857000D01*
X126644059Y-94683902D01*
X126963902Y-94364059D01*
X127137000Y-93946163D01*
X127137000Y-93493837D01*
X127131204Y-93479845D01*
X127149154Y-93472410D01*
X127342410Y-93279154D01*
X127447000Y-93026653D01*
X127447000Y-92753347D01*
X127342410Y-92500846D01*
X127293630Y-92452066D01*
X127387000Y-92226653D01*
X127387000Y-91953347D01*
X127282410Y-91700846D01*
X127093279Y-91511715D01*
X127137000Y-91406163D01*
X127137000Y-90953837D01*
X126963902Y-90535941D01*
X126956375Y-90528414D01*
X127019154Y-90502410D01*
X127212410Y-90309154D01*
X127305800Y-90083691D01*
X132960000Y-90083691D01*
X132960000Y-90176250D01*
X133118750Y-90335000D01*
X133720000Y-90335000D01*
X133720000Y-89733750D01*
X133561250Y-89575000D01*
X133468690Y-89575000D01*
X133235301Y-89671673D01*
X133056673Y-89850302D01*
X132960000Y-90083691D01*
X127305800Y-90083691D01*
X127317000Y-90056653D01*
X127317000Y-89783347D01*
X127212410Y-89530846D01*
X127019154Y-89337590D01*
X126942233Y-89305728D01*
X126963902Y-89284059D01*
X127137000Y-88866163D01*
X127137000Y-88413837D01*
X126963902Y-87995941D01*
X126644059Y-87676098D01*
X126226163Y-87503000D01*
X125773837Y-87503000D01*
X125355941Y-87676098D01*
X125036098Y-87995941D01*
X124863000Y-88413837D01*
X124462000Y-88413837D01*
X124462000Y-84531517D01*
X125208088Y-84531517D01*
X125276077Y-84772460D01*
X125795171Y-84957201D01*
X126345448Y-84929230D01*
X126723923Y-84772460D01*
X126791912Y-84531517D01*
X126000000Y-83739605D01*
X125208088Y-84531517D01*
X124462000Y-84531517D01*
X124462000Y-83355171D01*
X124602799Y-83355171D01*
X124630770Y-83905448D01*
X124787540Y-84283923D01*
X125028483Y-84351912D01*
X125820395Y-83560000D01*
X126179605Y-83560000D01*
X126971517Y-84351912D01*
X127212460Y-84283923D01*
X127397201Y-83764829D01*
X127369230Y-83214552D01*
X127212460Y-82836077D01*
X126971517Y-82768088D01*
X126179605Y-83560000D01*
X125820395Y-83560000D01*
X125028483Y-82768088D01*
X124787540Y-82836077D01*
X124602799Y-83355171D01*
X124462000Y-83355171D01*
X124462000Y-82588483D01*
X125208088Y-82588483D01*
X126000000Y-83380395D01*
X126791912Y-82588483D01*
X126723923Y-82347540D01*
X126204829Y-82162799D01*
X125654552Y-82190770D01*
X125276077Y-82347540D01*
X125208088Y-82588483D01*
X124462000Y-82588483D01*
X124462000Y-79412000D01*
X134093000Y-79412000D01*
X134093000Y-84233000D01*
X134093000Y-84233000D01*
G37*
X134093000Y-84233000D02*
X133445986Y-84233000D01*
X133415800Y-84202814D01*
X133126544Y-84083000D01*
X132813456Y-84083000D01*
X132524200Y-84202814D01*
X132494014Y-84233000D01*
X129282736Y-84233000D01*
X129220000Y-84220521D01*
X129157264Y-84233000D01*
X128971455Y-84269960D01*
X128760749Y-84410749D01*
X128725212Y-84463934D01*
X127726147Y-85463000D01*
X126966826Y-85463000D01*
X126963902Y-85455941D01*
X126644059Y-85136098D01*
X126226163Y-84963000D01*
X125773837Y-84963000D01*
X125355941Y-85136098D01*
X125036098Y-85455941D01*
X124863000Y-85873837D01*
X124863000Y-86326163D01*
X125036098Y-86744059D01*
X125355941Y-87063902D01*
X125773837Y-87237000D01*
X126226163Y-87237000D01*
X126644059Y-87063902D01*
X126963902Y-86744059D01*
X126966826Y-86737000D01*
X127927268Y-86737000D01*
X127990000Y-86749478D01*
X128052732Y-86737000D01*
X128052736Y-86737000D01*
X128238545Y-86700040D01*
X128449251Y-86559251D01*
X128484790Y-86506063D01*
X129483854Y-85507000D01*
X132494014Y-85507000D01*
X132524200Y-85537186D01*
X132813456Y-85657000D01*
X133126544Y-85657000D01*
X133415800Y-85537186D01*
X133445986Y-85507000D01*
X134093000Y-85507000D01*
X134093000Y-89610750D01*
X133970000Y-89733750D01*
X133970000Y-90335000D01*
X133992000Y-90335000D01*
X133992000Y-90585000D01*
X133970000Y-90585000D01*
X133970000Y-90607000D01*
X133720000Y-90607000D01*
X133720000Y-90585000D01*
X133118750Y-90585000D01*
X132960000Y-90743750D01*
X132960000Y-90836309D01*
X133056673Y-91069698D01*
X133200419Y-91213445D01*
X133200419Y-91630000D01*
X133230455Y-91781000D01*
X133252387Y-91813823D01*
X133185000Y-91800419D01*
X132685000Y-91800419D01*
X132646888Y-91808000D01*
X132195986Y-91808000D01*
X132165800Y-91777814D01*
X131876544Y-91658000D01*
X131563456Y-91658000D01*
X131274200Y-91777814D01*
X131052814Y-91999200D01*
X130933000Y-92288456D01*
X130933000Y-92601544D01*
X131052814Y-92890800D01*
X131083000Y-92920986D01*
X131083000Y-95026757D01*
X130856653Y-94933000D01*
X130583347Y-94933000D01*
X130330846Y-95037590D01*
X130137590Y-95230846D01*
X130033000Y-95483347D01*
X130033000Y-95618279D01*
X129878279Y-95773000D01*
X127028958Y-95773000D01*
X126963902Y-95615941D01*
X126644059Y-95296098D01*
X126226163Y-95123000D01*
X125773837Y-95123000D01*
X125355941Y-95296098D01*
X125036098Y-95615941D01*
X124863000Y-96033837D01*
X124863000Y-96486163D01*
X125036098Y-96904059D01*
X125355941Y-97223902D01*
X125773837Y-97397000D01*
X126226163Y-97397000D01*
X126644059Y-97223902D01*
X126963902Y-96904059D01*
X127028958Y-96747000D01*
X130032040Y-96747000D01*
X130080000Y-96756540D01*
X130127960Y-96747000D01*
X130127961Y-96747000D01*
X130270018Y-96718743D01*
X130431107Y-96611107D01*
X130458277Y-96570444D01*
X130721721Y-96307000D01*
X130856653Y-96307000D01*
X131083001Y-96213243D01*
X131083001Y-99144013D01*
X131052814Y-99174200D01*
X130933000Y-99463456D01*
X130933000Y-99776544D01*
X131052814Y-100065800D01*
X131274200Y-100287186D01*
X131563456Y-100407000D01*
X131876544Y-100407000D01*
X132165800Y-100287186D01*
X132387186Y-100065800D01*
X132507000Y-99776544D01*
X132507000Y-99463456D01*
X132387186Y-99174200D01*
X132357000Y-99144014D01*
X132357000Y-93082000D01*
X132646888Y-93082000D01*
X132685000Y-93089581D01*
X133185000Y-93089581D01*
X133336000Y-93059545D01*
X133395000Y-93020123D01*
X133454000Y-93059545D01*
X133605000Y-93089581D01*
X134093000Y-93089581D01*
X134093000Y-105488000D01*
X124462000Y-105488000D01*
X124462000Y-98573837D01*
X124863000Y-98573837D01*
X124863000Y-99026163D01*
X125036098Y-99444059D01*
X125355941Y-99763902D01*
X125773837Y-99937000D01*
X126226163Y-99937000D01*
X126619722Y-99773983D01*
X126533000Y-99983347D01*
X126533000Y-100118278D01*
X126383222Y-100268056D01*
X126226163Y-100203000D01*
X125773837Y-100203000D01*
X125355941Y-100376098D01*
X125036098Y-100695941D01*
X124863000Y-101113837D01*
X124863000Y-101566163D01*
X125036098Y-101984059D01*
X125355941Y-102303902D01*
X125773837Y-102477000D01*
X126226163Y-102477000D01*
X126644059Y-102303902D01*
X126963902Y-101984059D01*
X127137000Y-101566163D01*
X127137000Y-101113837D01*
X127071944Y-100956778D01*
X127221722Y-100807000D01*
X127356653Y-100807000D01*
X127609154Y-100702410D01*
X127802410Y-100509154D01*
X127907000Y-100256653D01*
X127907000Y-99983347D01*
X127802410Y-99730846D01*
X127641564Y-99570000D01*
X127752410Y-99459154D01*
X127857000Y-99206653D01*
X127857000Y-98933347D01*
X127752410Y-98680846D01*
X127559154Y-98487590D01*
X127306653Y-98383000D01*
X127152491Y-98383000D01*
X127090018Y-98341257D01*
X127036231Y-98330558D01*
X126963902Y-98155941D01*
X126644059Y-97836098D01*
X126226163Y-97663000D01*
X125773837Y-97663000D01*
X125355941Y-97836098D01*
X125036098Y-98155941D01*
X124863000Y-98573837D01*
X124462000Y-98573837D01*
X124462000Y-88413837D01*
X124863000Y-88413837D01*
X124863000Y-88866163D01*
X125036098Y-89284059D01*
X125355941Y-89603902D01*
X125773837Y-89777000D01*
X125798279Y-89777000D01*
X125943000Y-89921721D01*
X125943000Y-90043000D01*
X125773837Y-90043000D01*
X125355941Y-90216098D01*
X125036098Y-90535941D01*
X124863000Y-90953837D01*
X124863000Y-91406163D01*
X125036098Y-91824059D01*
X125355941Y-92143902D01*
X125773837Y-92317000D01*
X126050423Y-92317000D01*
X126117590Y-92479154D01*
X126166370Y-92527934D01*
X126143560Y-92583000D01*
X125773837Y-92583000D01*
X125355941Y-92756098D01*
X125036098Y-93075941D01*
X124863000Y-93493837D01*
X124863000Y-93946163D01*
X125036098Y-94364059D01*
X125355941Y-94683902D01*
X125773837Y-94857000D01*
X126226163Y-94857000D01*
X126644059Y-94683902D01*
X126963902Y-94364059D01*
X127137000Y-93946163D01*
X127137000Y-93493837D01*
X127131204Y-93479845D01*
X127149154Y-93472410D01*
X127342410Y-93279154D01*
X127447000Y-93026653D01*
X127447000Y-92753347D01*
X127342410Y-92500846D01*
X127293630Y-92452066D01*
X127387000Y-92226653D01*
X127387000Y-91953347D01*
X127282410Y-91700846D01*
X127093279Y-91511715D01*
X127137000Y-91406163D01*
X127137000Y-90953837D01*
X126963902Y-90535941D01*
X126956375Y-90528414D01*
X127019154Y-90502410D01*
X127212410Y-90309154D01*
X127305800Y-90083691D01*
X132960000Y-90083691D01*
X132960000Y-90176250D01*
X133118750Y-90335000D01*
X133720000Y-90335000D01*
X133720000Y-89733750D01*
X133561250Y-89575000D01*
X133468690Y-89575000D01*
X133235301Y-89671673D01*
X133056673Y-89850302D01*
X132960000Y-90083691D01*
X127305800Y-90083691D01*
X127317000Y-90056653D01*
X127317000Y-89783347D01*
X127212410Y-89530846D01*
X127019154Y-89337590D01*
X126942233Y-89305728D01*
X126963902Y-89284059D01*
X127137000Y-88866163D01*
X127137000Y-88413837D01*
X126963902Y-87995941D01*
X126644059Y-87676098D01*
X126226163Y-87503000D01*
X125773837Y-87503000D01*
X125355941Y-87676098D01*
X125036098Y-87995941D01*
X124863000Y-88413837D01*
X124462000Y-88413837D01*
X124462000Y-84531517D01*
X125208088Y-84531517D01*
X125276077Y-84772460D01*
X125795171Y-84957201D01*
X126345448Y-84929230D01*
X126723923Y-84772460D01*
X126791912Y-84531517D01*
X126000000Y-83739605D01*
X125208088Y-84531517D01*
X124462000Y-84531517D01*
X124462000Y-83355171D01*
X124602799Y-83355171D01*
X124630770Y-83905448D01*
X124787540Y-84283923D01*
X125028483Y-84351912D01*
X125820395Y-83560000D01*
X126179605Y-83560000D01*
X126971517Y-84351912D01*
X127212460Y-84283923D01*
X127397201Y-83764829D01*
X127369230Y-83214552D01*
X127212460Y-82836077D01*
X126971517Y-82768088D01*
X126179605Y-83560000D01*
X125820395Y-83560000D01*
X125028483Y-82768088D01*
X124787540Y-82836077D01*
X124602799Y-83355171D01*
X124462000Y-83355171D01*
X124462000Y-82588483D01*
X125208088Y-82588483D01*
X126000000Y-83380395D01*
X126791912Y-82588483D01*
X126723923Y-82347540D01*
X126204829Y-82162799D01*
X125654552Y-82190770D01*
X125276077Y-82347540D01*
X125208088Y-82588483D01*
X124462000Y-82588483D01*
X124462000Y-79412000D01*
X134093000Y-79412000D01*
X134093000Y-84233000D01*
D18*
G04 #@! TO.N,Net-(C1-Pad2)*
G36*
X151203800Y-80450000D02*
X151209600Y-80479160D01*
X151226118Y-80503882D01*
X151250840Y-80520400D01*
X151280000Y-80526200D01*
X154780000Y-80526200D01*
X154809160Y-80520400D01*
X154833882Y-80503882D01*
X154850400Y-80479160D01*
X154856200Y-80450000D01*
X154856200Y-79526200D01*
X163748272Y-79526200D01*
X170453800Y-86281398D01*
X170453800Y-93873800D01*
X170356200Y-93873800D01*
X170356200Y-89950000D01*
X170350400Y-89920840D01*
X170333882Y-89896118D01*
X170309160Y-89879600D01*
X170280000Y-89873800D01*
X169530000Y-89873800D01*
X169500840Y-89879600D01*
X169476118Y-89896118D01*
X169459600Y-89920840D01*
X169453800Y-89950000D01*
X169453800Y-93873800D01*
X169356200Y-93873800D01*
X169356200Y-89950000D01*
X169350400Y-89920840D01*
X169333882Y-89896118D01*
X169309160Y-89879600D01*
X169280000Y-89873800D01*
X168530000Y-89873800D01*
X168500840Y-89879600D01*
X168476118Y-89896118D01*
X168459600Y-89920840D01*
X168453800Y-89950000D01*
X168453800Y-93873800D01*
X168356200Y-93873800D01*
X168356200Y-89950000D01*
X168350400Y-89920840D01*
X168333882Y-89896118D01*
X168309160Y-89879600D01*
X168280000Y-89873800D01*
X167530000Y-89873800D01*
X167500840Y-89879600D01*
X167476118Y-89896118D01*
X167459600Y-89920840D01*
X167453800Y-89950000D01*
X167453800Y-93873800D01*
X167356200Y-93873800D01*
X167356200Y-89950000D01*
X167350400Y-89920840D01*
X167333882Y-89896118D01*
X167309160Y-89879600D01*
X167280000Y-89873800D01*
X166530000Y-89873800D01*
X166500840Y-89879600D01*
X166476118Y-89896118D01*
X166459600Y-89920840D01*
X166453800Y-89950000D01*
X166453800Y-93873800D01*
X166356200Y-93873800D01*
X166356200Y-89950000D01*
X166350400Y-89920840D01*
X166333882Y-89896118D01*
X166309160Y-89879600D01*
X166280000Y-89873800D01*
X165530000Y-89873800D01*
X165500840Y-89879600D01*
X165476118Y-89896118D01*
X165459600Y-89920840D01*
X165453800Y-89950000D01*
X165453800Y-93873800D01*
X165356200Y-93873800D01*
X165356200Y-89950000D01*
X165350400Y-89920840D01*
X165333882Y-89896118D01*
X165309160Y-89879600D01*
X165280000Y-89873800D01*
X164530000Y-89873800D01*
X164500840Y-89879600D01*
X164476118Y-89896118D01*
X164459600Y-89920840D01*
X164453800Y-89950000D01*
X164453800Y-93873800D01*
X164356200Y-93873800D01*
X164356200Y-89950000D01*
X164350400Y-89920840D01*
X164333882Y-89896118D01*
X164309160Y-89879600D01*
X164280000Y-89873800D01*
X163530000Y-89873800D01*
X163500840Y-89879600D01*
X163476118Y-89896118D01*
X163459600Y-89920840D01*
X163453800Y-89950000D01*
X163453800Y-93873800D01*
X163356200Y-93873800D01*
X163356200Y-89950000D01*
X163350400Y-89920840D01*
X163333882Y-89896118D01*
X163309160Y-89879600D01*
X163280000Y-89873800D01*
X162530000Y-89873800D01*
X162500840Y-89879600D01*
X162476118Y-89896118D01*
X162459600Y-89920840D01*
X162453800Y-89950000D01*
X162453800Y-93873800D01*
X162356200Y-93873800D01*
X162356200Y-89950000D01*
X162350400Y-89920840D01*
X162333882Y-89896118D01*
X162309160Y-89879600D01*
X162280000Y-89873800D01*
X161530000Y-89873800D01*
X161500840Y-89879600D01*
X161476118Y-89896118D01*
X161459600Y-89920840D01*
X161453800Y-89950000D01*
X161453800Y-93873800D01*
X161356200Y-93873800D01*
X161356200Y-89950000D01*
X161350400Y-89920840D01*
X161333882Y-89896118D01*
X161309160Y-89879600D01*
X161280000Y-89873800D01*
X160856200Y-89873800D01*
X160856200Y-89026200D01*
X169530000Y-89026200D01*
X169559160Y-89020400D01*
X169583882Y-89003882D01*
X169600400Y-88979160D01*
X169606200Y-88950000D01*
X169606200Y-86250000D01*
X169600400Y-86220840D01*
X169582961Y-86195213D01*
X163582961Y-80395213D01*
X163557963Y-80379116D01*
X163530000Y-80373800D01*
X155780000Y-80373800D01*
X155750840Y-80379600D01*
X155726118Y-80396118D01*
X155709600Y-80420840D01*
X155703800Y-80450000D01*
X155703800Y-81373800D01*
X150356200Y-81373800D01*
X150356200Y-79526200D01*
X151203800Y-79526200D01*
X151203800Y-80450000D01*
X151203800Y-80450000D01*
G37*
X151203800Y-80450000D02*
X151209600Y-80479160D01*
X151226118Y-80503882D01*
X151250840Y-80520400D01*
X151280000Y-80526200D01*
X154780000Y-80526200D01*
X154809160Y-80520400D01*
X154833882Y-80503882D01*
X154850400Y-80479160D01*
X154856200Y-80450000D01*
X154856200Y-79526200D01*
X163748272Y-79526200D01*
X170453800Y-86281398D01*
X170453800Y-93873800D01*
X170356200Y-93873800D01*
X170356200Y-89950000D01*
X170350400Y-89920840D01*
X170333882Y-89896118D01*
X170309160Y-89879600D01*
X170280000Y-89873800D01*
X169530000Y-89873800D01*
X169500840Y-89879600D01*
X169476118Y-89896118D01*
X169459600Y-89920840D01*
X169453800Y-89950000D01*
X169453800Y-93873800D01*
X169356200Y-93873800D01*
X169356200Y-89950000D01*
X169350400Y-89920840D01*
X169333882Y-89896118D01*
X169309160Y-89879600D01*
X169280000Y-89873800D01*
X168530000Y-89873800D01*
X168500840Y-89879600D01*
X168476118Y-89896118D01*
X168459600Y-89920840D01*
X168453800Y-89950000D01*
X168453800Y-93873800D01*
X168356200Y-93873800D01*
X168356200Y-89950000D01*
X168350400Y-89920840D01*
X168333882Y-89896118D01*
X168309160Y-89879600D01*
X168280000Y-89873800D01*
X167530000Y-89873800D01*
X167500840Y-89879600D01*
X167476118Y-89896118D01*
X167459600Y-89920840D01*
X167453800Y-89950000D01*
X167453800Y-93873800D01*
X167356200Y-93873800D01*
X167356200Y-89950000D01*
X167350400Y-89920840D01*
X167333882Y-89896118D01*
X167309160Y-89879600D01*
X167280000Y-89873800D01*
X166530000Y-89873800D01*
X166500840Y-89879600D01*
X166476118Y-89896118D01*
X166459600Y-89920840D01*
X166453800Y-89950000D01*
X166453800Y-93873800D01*
X166356200Y-93873800D01*
X166356200Y-89950000D01*
X166350400Y-89920840D01*
X166333882Y-89896118D01*
X166309160Y-89879600D01*
X166280000Y-89873800D01*
X165530000Y-89873800D01*
X165500840Y-89879600D01*
X165476118Y-89896118D01*
X165459600Y-89920840D01*
X165453800Y-89950000D01*
X165453800Y-93873800D01*
X165356200Y-93873800D01*
X165356200Y-89950000D01*
X165350400Y-89920840D01*
X165333882Y-89896118D01*
X165309160Y-89879600D01*
X165280000Y-89873800D01*
X164530000Y-89873800D01*
X164500840Y-89879600D01*
X164476118Y-89896118D01*
X164459600Y-89920840D01*
X164453800Y-89950000D01*
X164453800Y-93873800D01*
X164356200Y-93873800D01*
X164356200Y-89950000D01*
X164350400Y-89920840D01*
X164333882Y-89896118D01*
X164309160Y-89879600D01*
X164280000Y-89873800D01*
X163530000Y-89873800D01*
X163500840Y-89879600D01*
X163476118Y-89896118D01*
X163459600Y-89920840D01*
X163453800Y-89950000D01*
X163453800Y-93873800D01*
X163356200Y-93873800D01*
X163356200Y-89950000D01*
X163350400Y-89920840D01*
X163333882Y-89896118D01*
X163309160Y-89879600D01*
X163280000Y-89873800D01*
X162530000Y-89873800D01*
X162500840Y-89879600D01*
X162476118Y-89896118D01*
X162459600Y-89920840D01*
X162453800Y-89950000D01*
X162453800Y-93873800D01*
X162356200Y-93873800D01*
X162356200Y-89950000D01*
X162350400Y-89920840D01*
X162333882Y-89896118D01*
X162309160Y-89879600D01*
X162280000Y-89873800D01*
X161530000Y-89873800D01*
X161500840Y-89879600D01*
X161476118Y-89896118D01*
X161459600Y-89920840D01*
X161453800Y-89950000D01*
X161453800Y-93873800D01*
X161356200Y-93873800D01*
X161356200Y-89950000D01*
X161350400Y-89920840D01*
X161333882Y-89896118D01*
X161309160Y-89879600D01*
X161280000Y-89873800D01*
X160856200Y-89873800D01*
X160856200Y-89026200D01*
X169530000Y-89026200D01*
X169559160Y-89020400D01*
X169583882Y-89003882D01*
X169600400Y-88979160D01*
X169606200Y-88950000D01*
X169606200Y-86250000D01*
X169600400Y-86220840D01*
X169582961Y-86195213D01*
X163582961Y-80395213D01*
X163557963Y-80379116D01*
X163530000Y-80373800D01*
X155780000Y-80373800D01*
X155750840Y-80379600D01*
X155726118Y-80396118D01*
X155709600Y-80420840D01*
X155703800Y-80450000D01*
X155703800Y-81373800D01*
X150356200Y-81373800D01*
X150356200Y-79526200D01*
X151203800Y-79526200D01*
X151203800Y-80450000D01*
G36*
X160953800Y-94700000D02*
X160959600Y-94729160D01*
X160976118Y-94753882D01*
X161000840Y-94770400D01*
X161030000Y-94776200D01*
X161780000Y-94776200D01*
X161809160Y-94770400D01*
X161833882Y-94753882D01*
X161850400Y-94729160D01*
X161856200Y-94700000D01*
X161856200Y-90776200D01*
X161953800Y-90776200D01*
X161953800Y-94700000D01*
X161959600Y-94729160D01*
X161976118Y-94753882D01*
X162000840Y-94770400D01*
X162030000Y-94776200D01*
X162780000Y-94776200D01*
X162809160Y-94770400D01*
X162833882Y-94753882D01*
X162850400Y-94729160D01*
X162856200Y-94700000D01*
X162856200Y-90776200D01*
X162953800Y-90776200D01*
X162953800Y-94700000D01*
X162959600Y-94729160D01*
X162976118Y-94753882D01*
X163000840Y-94770400D01*
X163030000Y-94776200D01*
X163780000Y-94776200D01*
X163809160Y-94770400D01*
X163833882Y-94753882D01*
X163850400Y-94729160D01*
X163856200Y-94700000D01*
X163856200Y-90776200D01*
X163953800Y-90776200D01*
X163953800Y-94700000D01*
X163959600Y-94729160D01*
X163976118Y-94753882D01*
X164000840Y-94770400D01*
X164030000Y-94776200D01*
X164780000Y-94776200D01*
X164809160Y-94770400D01*
X164833882Y-94753882D01*
X164850400Y-94729160D01*
X164856200Y-94700000D01*
X164856200Y-90776200D01*
X164953800Y-90776200D01*
X164953800Y-94700000D01*
X164959600Y-94729160D01*
X164976118Y-94753882D01*
X165000840Y-94770400D01*
X165030000Y-94776200D01*
X165780000Y-94776200D01*
X165809160Y-94770400D01*
X165833882Y-94753882D01*
X165850400Y-94729160D01*
X165856200Y-94700000D01*
X165856200Y-90776200D01*
X165953800Y-90776200D01*
X165953800Y-94700000D01*
X165959600Y-94729160D01*
X165976118Y-94753882D01*
X166000840Y-94770400D01*
X166030000Y-94776200D01*
X166780000Y-94776200D01*
X166809160Y-94770400D01*
X166833882Y-94753882D01*
X166850400Y-94729160D01*
X166856200Y-94700000D01*
X166856200Y-90776200D01*
X166953800Y-90776200D01*
X166953800Y-94700000D01*
X166959600Y-94729160D01*
X166976118Y-94753882D01*
X167000840Y-94770400D01*
X167030000Y-94776200D01*
X167780000Y-94776200D01*
X167809160Y-94770400D01*
X167833882Y-94753882D01*
X167850400Y-94729160D01*
X167856200Y-94700000D01*
X167856200Y-90776200D01*
X167953800Y-90776200D01*
X167953800Y-94700000D01*
X167959600Y-94729160D01*
X167976118Y-94753882D01*
X168000840Y-94770400D01*
X168030000Y-94776200D01*
X168780000Y-94776200D01*
X168809160Y-94770400D01*
X168833882Y-94753882D01*
X168850400Y-94729160D01*
X168856200Y-94700000D01*
X168856200Y-90776200D01*
X168953800Y-90776200D01*
X168953800Y-94700000D01*
X168959600Y-94729160D01*
X168976118Y-94753882D01*
X169000840Y-94770400D01*
X169030000Y-94776200D01*
X169780000Y-94776200D01*
X169809160Y-94770400D01*
X169833882Y-94753882D01*
X169850400Y-94729160D01*
X169856200Y-94700000D01*
X169856200Y-90776200D01*
X169953800Y-90776200D01*
X169953800Y-94700000D01*
X169959600Y-94729160D01*
X169976118Y-94753882D01*
X170000840Y-94770400D01*
X170030000Y-94776200D01*
X170453800Y-94776200D01*
X170453800Y-98668436D01*
X163748436Y-105373800D01*
X154856200Y-105373800D01*
X154856200Y-104450000D01*
X154850400Y-104420840D01*
X154833882Y-104396118D01*
X154809160Y-104379600D01*
X154780000Y-104373800D01*
X151280000Y-104373800D01*
X151250840Y-104379600D01*
X151226118Y-104396118D01*
X151209600Y-104420840D01*
X151203800Y-104450000D01*
X151203800Y-105373800D01*
X150356200Y-105373800D01*
X150356200Y-103526200D01*
X155703800Y-103526200D01*
X155703800Y-104450000D01*
X155709600Y-104479160D01*
X155726118Y-104503882D01*
X155750840Y-104520400D01*
X155780000Y-104526200D01*
X163780000Y-104526200D01*
X163809160Y-104520400D01*
X163833882Y-104503882D01*
X169583882Y-98753882D01*
X169600400Y-98729160D01*
X169606200Y-98700000D01*
X169606200Y-95700000D01*
X169600400Y-95670840D01*
X169583882Y-95646118D01*
X169559160Y-95629600D01*
X169530000Y-95623800D01*
X160856200Y-95623800D01*
X160856200Y-90776200D01*
X160953800Y-90776200D01*
X160953800Y-94700000D01*
X160953800Y-94700000D01*
G37*
X160953800Y-94700000D02*
X160959600Y-94729160D01*
X160976118Y-94753882D01*
X161000840Y-94770400D01*
X161030000Y-94776200D01*
X161780000Y-94776200D01*
X161809160Y-94770400D01*
X161833882Y-94753882D01*
X161850400Y-94729160D01*
X161856200Y-94700000D01*
X161856200Y-90776200D01*
X161953800Y-90776200D01*
X161953800Y-94700000D01*
X161959600Y-94729160D01*
X161976118Y-94753882D01*
X162000840Y-94770400D01*
X162030000Y-94776200D01*
X162780000Y-94776200D01*
X162809160Y-94770400D01*
X162833882Y-94753882D01*
X162850400Y-94729160D01*
X162856200Y-94700000D01*
X162856200Y-90776200D01*
X162953800Y-90776200D01*
X162953800Y-94700000D01*
X162959600Y-94729160D01*
X162976118Y-94753882D01*
X163000840Y-94770400D01*
X163030000Y-94776200D01*
X163780000Y-94776200D01*
X163809160Y-94770400D01*
X163833882Y-94753882D01*
X163850400Y-94729160D01*
X163856200Y-94700000D01*
X163856200Y-90776200D01*
X163953800Y-90776200D01*
X163953800Y-94700000D01*
X163959600Y-94729160D01*
X163976118Y-94753882D01*
X164000840Y-94770400D01*
X164030000Y-94776200D01*
X164780000Y-94776200D01*
X164809160Y-94770400D01*
X164833882Y-94753882D01*
X164850400Y-94729160D01*
X164856200Y-94700000D01*
X164856200Y-90776200D01*
X164953800Y-90776200D01*
X164953800Y-94700000D01*
X164959600Y-94729160D01*
X164976118Y-94753882D01*
X165000840Y-94770400D01*
X165030000Y-94776200D01*
X165780000Y-94776200D01*
X165809160Y-94770400D01*
X165833882Y-94753882D01*
X165850400Y-94729160D01*
X165856200Y-94700000D01*
X165856200Y-90776200D01*
X165953800Y-90776200D01*
X165953800Y-94700000D01*
X165959600Y-94729160D01*
X165976118Y-94753882D01*
X166000840Y-94770400D01*
X166030000Y-94776200D01*
X166780000Y-94776200D01*
X166809160Y-94770400D01*
X166833882Y-94753882D01*
X166850400Y-94729160D01*
X166856200Y-94700000D01*
X166856200Y-90776200D01*
X166953800Y-90776200D01*
X166953800Y-94700000D01*
X166959600Y-94729160D01*
X166976118Y-94753882D01*
X167000840Y-94770400D01*
X167030000Y-94776200D01*
X167780000Y-94776200D01*
X167809160Y-94770400D01*
X167833882Y-94753882D01*
X167850400Y-94729160D01*
X167856200Y-94700000D01*
X167856200Y-90776200D01*
X167953800Y-90776200D01*
X167953800Y-94700000D01*
X167959600Y-94729160D01*
X167976118Y-94753882D01*
X168000840Y-94770400D01*
X168030000Y-94776200D01*
X168780000Y-94776200D01*
X168809160Y-94770400D01*
X168833882Y-94753882D01*
X168850400Y-94729160D01*
X168856200Y-94700000D01*
X168856200Y-90776200D01*
X168953800Y-90776200D01*
X168953800Y-94700000D01*
X168959600Y-94729160D01*
X168976118Y-94753882D01*
X169000840Y-94770400D01*
X169030000Y-94776200D01*
X169780000Y-94776200D01*
X169809160Y-94770400D01*
X169833882Y-94753882D01*
X169850400Y-94729160D01*
X169856200Y-94700000D01*
X169856200Y-90776200D01*
X169953800Y-90776200D01*
X169953800Y-94700000D01*
X169959600Y-94729160D01*
X169976118Y-94753882D01*
X170000840Y-94770400D01*
X170030000Y-94776200D01*
X170453800Y-94776200D01*
X170453800Y-98668436D01*
X163748436Y-105373800D01*
X154856200Y-105373800D01*
X154856200Y-104450000D01*
X154850400Y-104420840D01*
X154833882Y-104396118D01*
X154809160Y-104379600D01*
X154780000Y-104373800D01*
X151280000Y-104373800D01*
X151250840Y-104379600D01*
X151226118Y-104396118D01*
X151209600Y-104420840D01*
X151203800Y-104450000D01*
X151203800Y-105373800D01*
X150356200Y-105373800D01*
X150356200Y-103526200D01*
X155703800Y-103526200D01*
X155703800Y-104450000D01*
X155709600Y-104479160D01*
X155726118Y-104503882D01*
X155750840Y-104520400D01*
X155780000Y-104526200D01*
X163780000Y-104526200D01*
X163809160Y-104520400D01*
X163833882Y-104503882D01*
X169583882Y-98753882D01*
X169600400Y-98729160D01*
X169606200Y-98700000D01*
X169606200Y-95700000D01*
X169600400Y-95670840D01*
X169583882Y-95646118D01*
X169559160Y-95629600D01*
X169530000Y-95623800D01*
X160856200Y-95623800D01*
X160856200Y-90776200D01*
X160953800Y-90776200D01*
X160953800Y-94700000D01*
G04 #@! TD*
M02*
