G04 #@! TF.FileFunction,Legend,Bot*
%FSLAX46Y46*%
G04 Gerber Fmt 4.6, Leading zero omitted, Abs format (unit mm)*
G04 Created by KiCad (PCBNEW 4.0.7-e2-6376~58~ubuntu16.04.1) date Thu Aug 16 13:00:31 2018*
%MOMM*%
%LPD*%
G01*
G04 APERTURE LIST*
%ADD10C,0.100000*%
%ADD11C,0.500000*%
%ADD12C,0.200000*%
%ADD13C,2.000000*%
%ADD14C,0.150000*%
%ADD15C,0.300000*%
%ADD16C,0.120000*%
G04 APERTURE END LIST*
D10*
D11*
X152470000Y-98120000D02*
X152470000Y-96620000D01*
X136220000Y-98120000D02*
X152470000Y-98120000D01*
X136220000Y-96620000D02*
X136220000Y-98120000D01*
X152470000Y-96620000D02*
X136220000Y-96620000D01*
D12*
X152720000Y-96370000D02*
X152720000Y-96620000D01*
X135970000Y-96370000D02*
X152720000Y-96370000D01*
X135970000Y-98370000D02*
X135970000Y-96370000D01*
X152720000Y-98370000D02*
X135970000Y-98370000D01*
X152720000Y-96370000D02*
X152720000Y-98370000D01*
D13*
X151720000Y-97370000D02*
X136970000Y-97370000D01*
D14*
X156634286Y-98002143D02*
X156420000Y-98073571D01*
X156062857Y-98073571D01*
X155920000Y-98002143D01*
X155848571Y-97930714D01*
X155777143Y-97787857D01*
X155777143Y-97645000D01*
X155848571Y-97502143D01*
X155920000Y-97430714D01*
X156062857Y-97359286D01*
X156348571Y-97287857D01*
X156491429Y-97216429D01*
X156562857Y-97145000D01*
X156634286Y-97002143D01*
X156634286Y-96859286D01*
X156562857Y-96716429D01*
X156491429Y-96645000D01*
X156348571Y-96573571D01*
X155991429Y-96573571D01*
X155777143Y-96645000D01*
X155134286Y-98073571D02*
X155134286Y-96573571D01*
X154277143Y-98073571D01*
X154277143Y-96573571D01*
X153562857Y-97930714D02*
X153491429Y-98002143D01*
X153562857Y-98073571D01*
X153634286Y-98002143D01*
X153562857Y-97930714D01*
X153562857Y-98073571D01*
X153562857Y-97145000D02*
X153491429Y-97216429D01*
X153562857Y-97287857D01*
X153634286Y-97216429D01*
X153562857Y-97145000D01*
X153562857Y-97287857D01*
X156612857Y-95548571D02*
X156612857Y-94048571D01*
X156041429Y-94048571D01*
X155898571Y-94120000D01*
X155827143Y-94191429D01*
X155755714Y-94334286D01*
X155755714Y-94548571D01*
X155827143Y-94691429D01*
X155898571Y-94762857D01*
X156041429Y-94834286D01*
X156612857Y-94834286D01*
X155112857Y-95548571D02*
X155112857Y-94048571D01*
X154255714Y-95548571D01*
X154255714Y-94048571D01*
X153541428Y-95405714D02*
X153470000Y-95477143D01*
X153541428Y-95548571D01*
X153612857Y-95477143D01*
X153541428Y-95405714D01*
X153541428Y-95548571D01*
X153541428Y-94620000D02*
X153470000Y-94691429D01*
X153541428Y-94762857D01*
X153612857Y-94691429D01*
X153541428Y-94620000D01*
X153541428Y-94762857D01*
X151398571Y-94048571D02*
X151255714Y-94048571D01*
X151112857Y-94120000D01*
X151041428Y-94191429D01*
X150969999Y-94334286D01*
X150898571Y-94620000D01*
X150898571Y-94977143D01*
X150969999Y-95262857D01*
X151041428Y-95405714D01*
X151112857Y-95477143D01*
X151255714Y-95548571D01*
X151398571Y-95548571D01*
X151541428Y-95477143D01*
X151612857Y-95405714D01*
X151684285Y-95262857D01*
X151755714Y-94977143D01*
X151755714Y-94620000D01*
X151684285Y-94334286D01*
X151612857Y-94191429D01*
X151541428Y-94120000D01*
X151398571Y-94048571D01*
X149970000Y-94048571D02*
X149827143Y-94048571D01*
X149684286Y-94120000D01*
X149612857Y-94191429D01*
X149541428Y-94334286D01*
X149470000Y-94620000D01*
X149470000Y-94977143D01*
X149541428Y-95262857D01*
X149612857Y-95405714D01*
X149684286Y-95477143D01*
X149827143Y-95548571D01*
X149970000Y-95548571D01*
X150112857Y-95477143D01*
X150184286Y-95405714D01*
X150255714Y-95262857D01*
X150327143Y-94977143D01*
X150327143Y-94620000D01*
X150255714Y-94334286D01*
X150184286Y-94191429D01*
X150112857Y-94120000D01*
X149970000Y-94048571D01*
X148541429Y-94048571D02*
X148398572Y-94048571D01*
X148255715Y-94120000D01*
X148184286Y-94191429D01*
X148112857Y-94334286D01*
X148041429Y-94620000D01*
X148041429Y-94977143D01*
X148112857Y-95262857D01*
X148184286Y-95405714D01*
X148255715Y-95477143D01*
X148398572Y-95548571D01*
X148541429Y-95548571D01*
X148684286Y-95477143D01*
X148755715Y-95405714D01*
X148827143Y-95262857D01*
X148898572Y-94977143D01*
X148898572Y-94620000D01*
X148827143Y-94334286D01*
X148755715Y-94191429D01*
X148684286Y-94120000D01*
X148541429Y-94048571D01*
X147541429Y-94048571D02*
X146612858Y-94048571D01*
X147112858Y-94620000D01*
X146898572Y-94620000D01*
X146755715Y-94691429D01*
X146684286Y-94762857D01*
X146612858Y-94905714D01*
X146612858Y-95262857D01*
X146684286Y-95405714D01*
X146755715Y-95477143D01*
X146898572Y-95548571D01*
X147327144Y-95548571D01*
X147470001Y-95477143D01*
X147541429Y-95405714D01*
X145970001Y-94977143D02*
X144827144Y-94977143D01*
X143827144Y-94048571D02*
X143684287Y-94048571D01*
X143541430Y-94120000D01*
X143470001Y-94191429D01*
X143398572Y-94334286D01*
X143327144Y-94620000D01*
X143327144Y-94977143D01*
X143398572Y-95262857D01*
X143470001Y-95405714D01*
X143541430Y-95477143D01*
X143684287Y-95548571D01*
X143827144Y-95548571D01*
X143970001Y-95477143D01*
X144041430Y-95405714D01*
X144112858Y-95262857D01*
X144184287Y-94977143D01*
X144184287Y-94620000D01*
X144112858Y-94334286D01*
X144041430Y-94191429D01*
X143970001Y-94120000D01*
X143827144Y-94048571D01*
X142398573Y-94048571D02*
X142255716Y-94048571D01*
X142112859Y-94120000D01*
X142041430Y-94191429D01*
X141970001Y-94334286D01*
X141898573Y-94620000D01*
X141898573Y-94977143D01*
X141970001Y-95262857D01*
X142041430Y-95405714D01*
X142112859Y-95477143D01*
X142255716Y-95548571D01*
X142398573Y-95548571D01*
X142541430Y-95477143D01*
X142612859Y-95405714D01*
X142684287Y-95262857D01*
X142755716Y-94977143D01*
X142755716Y-94620000D01*
X142684287Y-94334286D01*
X142612859Y-94191429D01*
X142541430Y-94120000D01*
X142398573Y-94048571D01*
X141255716Y-94977143D02*
X140112859Y-94977143D01*
X139112859Y-94048571D02*
X138970002Y-94048571D01*
X138827145Y-94120000D01*
X138755716Y-94191429D01*
X138684287Y-94334286D01*
X138612859Y-94620000D01*
X138612859Y-94977143D01*
X138684287Y-95262857D01*
X138755716Y-95405714D01*
X138827145Y-95477143D01*
X138970002Y-95548571D01*
X139112859Y-95548571D01*
X139255716Y-95477143D01*
X139327145Y-95405714D01*
X139398573Y-95262857D01*
X139470002Y-94977143D01*
X139470002Y-94620000D01*
X139398573Y-94334286D01*
X139327145Y-94191429D01*
X139255716Y-94120000D01*
X139112859Y-94048571D01*
X137684288Y-94048571D02*
X137541431Y-94048571D01*
X137398574Y-94120000D01*
X137327145Y-94191429D01*
X137255716Y-94334286D01*
X137184288Y-94620000D01*
X137184288Y-94977143D01*
X137255716Y-95262857D01*
X137327145Y-95405714D01*
X137398574Y-95477143D01*
X137541431Y-95548571D01*
X137684288Y-95548571D01*
X137827145Y-95477143D01*
X137898574Y-95405714D01*
X137970002Y-95262857D01*
X138041431Y-94977143D01*
X138041431Y-94620000D01*
X137970002Y-94334286D01*
X137898574Y-94191429D01*
X137827145Y-94120000D01*
X137684288Y-94048571D01*
D15*
X151862857Y-92977143D02*
X151648571Y-93048571D01*
X151291428Y-93048571D01*
X151148571Y-92977143D01*
X151077142Y-92905714D01*
X151005714Y-92762857D01*
X151005714Y-92620000D01*
X151077142Y-92477143D01*
X151148571Y-92405714D01*
X151291428Y-92334286D01*
X151577142Y-92262857D01*
X151720000Y-92191429D01*
X151791428Y-92120000D01*
X151862857Y-91977143D01*
X151862857Y-91834286D01*
X151791428Y-91691429D01*
X151720000Y-91620000D01*
X151577142Y-91548571D01*
X151220000Y-91548571D01*
X151005714Y-91620000D01*
X149791429Y-92977143D02*
X149934286Y-93048571D01*
X150220000Y-93048571D01*
X150362857Y-92977143D01*
X150434286Y-92834286D01*
X150434286Y-92262857D01*
X150362857Y-92120000D01*
X150220000Y-92048571D01*
X149934286Y-92048571D01*
X149791429Y-92120000D01*
X149720000Y-92262857D01*
X149720000Y-92405714D01*
X150434286Y-92548571D01*
X149077143Y-92048571D02*
X149077143Y-93048571D01*
X149077143Y-92191429D02*
X149005715Y-92120000D01*
X148862857Y-92048571D01*
X148648572Y-92048571D01*
X148505715Y-92120000D01*
X148434286Y-92262857D01*
X148434286Y-93048571D01*
X147791429Y-92977143D02*
X147648572Y-93048571D01*
X147362857Y-93048571D01*
X147220000Y-92977143D01*
X147148572Y-92834286D01*
X147148572Y-92762857D01*
X147220000Y-92620000D01*
X147362857Y-92548571D01*
X147577143Y-92548571D01*
X147720000Y-92477143D01*
X147791429Y-92334286D01*
X147791429Y-92262857D01*
X147720000Y-92120000D01*
X147577143Y-92048571D01*
X147362857Y-92048571D01*
X147220000Y-92120000D01*
X146291428Y-93048571D02*
X146434286Y-92977143D01*
X146505714Y-92905714D01*
X146577143Y-92762857D01*
X146577143Y-92334286D01*
X146505714Y-92191429D01*
X146434286Y-92120000D01*
X146291428Y-92048571D01*
X146077143Y-92048571D01*
X145934286Y-92120000D01*
X145862857Y-92191429D01*
X145791428Y-92334286D01*
X145791428Y-92762857D01*
X145862857Y-92905714D01*
X145934286Y-92977143D01*
X146077143Y-93048571D01*
X146291428Y-93048571D01*
X145362857Y-92048571D02*
X144791428Y-92048571D01*
X145148571Y-93048571D02*
X145148571Y-91762857D01*
X145077143Y-91620000D01*
X144934285Y-91548571D01*
X144791428Y-91548571D01*
X143148571Y-93048571D02*
X143148571Y-91548571D01*
X143148571Y-92262857D02*
X142291428Y-92262857D01*
X142291428Y-93048571D02*
X142291428Y-91548571D01*
X141791428Y-91548571D02*
X140934285Y-91548571D01*
X141362856Y-93048571D02*
X141362856Y-91548571D01*
D16*
X133375000Y-91170000D02*
X133375000Y-90670000D01*
X134315000Y-90670000D02*
X134315000Y-91170000D01*
X133645000Y-92915000D02*
X133145000Y-92915000D01*
X133145000Y-91975000D02*
X133645000Y-91975000D01*
D12*
X146520000Y-88720000D02*
X146520000Y-90520000D01*
X146520000Y-89620000D02*
X147420000Y-88720000D01*
X147420000Y-88720000D02*
X147420000Y-90520000D01*
X147420000Y-90520000D02*
X146520000Y-89620000D01*
X147970000Y-89620000D02*
G75*
G03X147970000Y-89620000I-1000000J0D01*
G01*
D14*
X132932143Y-90753334D02*
X132979762Y-90705715D01*
X133027381Y-90562858D01*
X133027381Y-90467620D01*
X132979762Y-90324762D01*
X132884524Y-90229524D01*
X132789286Y-90181905D01*
X132598810Y-90134286D01*
X132455952Y-90134286D01*
X132265476Y-90181905D01*
X132170238Y-90229524D01*
X132075000Y-90324762D01*
X132027381Y-90467620D01*
X132027381Y-90562858D01*
X132075000Y-90705715D01*
X132122619Y-90753334D01*
X133027381Y-91705715D02*
X133027381Y-91134286D01*
X133027381Y-91420000D02*
X132027381Y-91420000D01*
X132170238Y-91324762D01*
X132265476Y-91229524D01*
X132313095Y-91134286D01*
X133561666Y-94167381D02*
X134037857Y-94167381D01*
X134037857Y-93167381D01*
X132704523Y-94167381D02*
X133275952Y-94167381D01*
X132990238Y-94167381D02*
X132990238Y-93167381D01*
X133085476Y-93310238D01*
X133180714Y-93405476D01*
X133275952Y-93453095D01*
X129553333Y-86072381D02*
X129220000Y-87072381D01*
X128886666Y-86072381D01*
X127981904Y-86977143D02*
X128029523Y-87024762D01*
X128172380Y-87072381D01*
X128267618Y-87072381D01*
X128410476Y-87024762D01*
X128505714Y-86929524D01*
X128553333Y-86834286D01*
X128600952Y-86643810D01*
X128600952Y-86500952D01*
X128553333Y-86310476D01*
X128505714Y-86215238D01*
X128410476Y-86120000D01*
X128267618Y-86072381D01*
X128172380Y-86072381D01*
X128029523Y-86120000D01*
X127981904Y-86167619D01*
X126981904Y-86977143D02*
X127029523Y-87024762D01*
X127172380Y-87072381D01*
X127267618Y-87072381D01*
X127410476Y-87024762D01*
X127505714Y-86929524D01*
X127553333Y-86834286D01*
X127600952Y-86643810D01*
X127600952Y-86500952D01*
X127553333Y-86310476D01*
X127505714Y-86215238D01*
X127410476Y-86120000D01*
X127267618Y-86072381D01*
X127172380Y-86072381D01*
X127029523Y-86120000D01*
X126981904Y-86167619D01*
X129434286Y-102024762D02*
X129291429Y-102072381D01*
X129053333Y-102072381D01*
X128958095Y-102024762D01*
X128910476Y-101977143D01*
X128862857Y-101881905D01*
X128862857Y-101786667D01*
X128910476Y-101691429D01*
X128958095Y-101643810D01*
X129053333Y-101596190D01*
X129243810Y-101548571D01*
X129339048Y-101500952D01*
X129386667Y-101453333D01*
X129434286Y-101358095D01*
X129434286Y-101262857D01*
X129386667Y-101167619D01*
X129339048Y-101120000D01*
X129243810Y-101072381D01*
X129005714Y-101072381D01*
X128862857Y-101120000D01*
X128434286Y-102072381D02*
X128434286Y-101072381D01*
X128196191Y-101072381D01*
X128053333Y-101120000D01*
X127958095Y-101215238D01*
X127910476Y-101310476D01*
X127862857Y-101500952D01*
X127862857Y-101643810D01*
X127910476Y-101834286D01*
X127958095Y-101929524D01*
X128053333Y-102024762D01*
X128196191Y-102072381D01*
X128434286Y-102072381D01*
X127481905Y-101786667D02*
X127005714Y-101786667D01*
X127577143Y-102072381D02*
X127243810Y-101072381D01*
X126910476Y-102072381D01*
X129410476Y-99524762D02*
X129267619Y-99572381D01*
X129029523Y-99572381D01*
X128934285Y-99524762D01*
X128886666Y-99477143D01*
X128839047Y-99381905D01*
X128839047Y-99286667D01*
X128886666Y-99191429D01*
X128934285Y-99143810D01*
X129029523Y-99096190D01*
X129220000Y-99048571D01*
X129315238Y-99000952D01*
X129362857Y-98953333D01*
X129410476Y-98858095D01*
X129410476Y-98762857D01*
X129362857Y-98667619D01*
X129315238Y-98620000D01*
X129220000Y-98572381D01*
X128981904Y-98572381D01*
X128839047Y-98620000D01*
X127839047Y-99477143D02*
X127886666Y-99524762D01*
X128029523Y-99572381D01*
X128124761Y-99572381D01*
X128267619Y-99524762D01*
X128362857Y-99429524D01*
X128410476Y-99334286D01*
X128458095Y-99143810D01*
X128458095Y-99000952D01*
X128410476Y-98810476D01*
X128362857Y-98715238D01*
X128267619Y-98620000D01*
X128124761Y-98572381D01*
X128029523Y-98572381D01*
X127886666Y-98620000D01*
X127839047Y-98667619D01*
X126934285Y-99572381D02*
X127410476Y-99572381D01*
X127410476Y-98572381D01*
X130436190Y-96120000D02*
X130531428Y-96072381D01*
X130674285Y-96072381D01*
X130817143Y-96120000D01*
X130912381Y-96215238D01*
X130960000Y-96310476D01*
X131007619Y-96500952D01*
X131007619Y-96643810D01*
X130960000Y-96834286D01*
X130912381Y-96929524D01*
X130817143Y-97024762D01*
X130674285Y-97072381D01*
X130579047Y-97072381D01*
X130436190Y-97024762D01*
X130388571Y-96977143D01*
X130388571Y-96643810D01*
X130579047Y-96643810D01*
X129960000Y-97072381D02*
X129960000Y-96072381D01*
X129579047Y-96072381D01*
X129483809Y-96120000D01*
X129436190Y-96167619D01*
X129388571Y-96262857D01*
X129388571Y-96405714D01*
X129436190Y-96500952D01*
X129483809Y-96548571D01*
X129579047Y-96596190D01*
X129960000Y-96596190D01*
X128960000Y-97072381D02*
X128960000Y-96072381D01*
X128293334Y-96072381D02*
X128102857Y-96072381D01*
X128007619Y-96120000D01*
X127912381Y-96215238D01*
X127864762Y-96405714D01*
X127864762Y-96739048D01*
X127912381Y-96929524D01*
X128007619Y-97024762D01*
X128102857Y-97072381D01*
X128293334Y-97072381D01*
X128388572Y-97024762D01*
X128483810Y-96929524D01*
X128531429Y-96739048D01*
X128531429Y-96405714D01*
X128483810Y-96215238D01*
X128388572Y-96120000D01*
X128293334Y-96072381D01*
X127245715Y-96072381D02*
X127150476Y-96072381D01*
X127055238Y-96120000D01*
X127007619Y-96167619D01*
X126960000Y-96262857D01*
X126912381Y-96453333D01*
X126912381Y-96691429D01*
X126960000Y-96881905D01*
X127007619Y-96977143D01*
X127055238Y-97024762D01*
X127150476Y-97072381D01*
X127245715Y-97072381D01*
X127340953Y-97024762D01*
X127388572Y-96977143D01*
X127436191Y-96881905D01*
X127483810Y-96691429D01*
X127483810Y-96453333D01*
X127436191Y-96262857D01*
X127388572Y-96167619D01*
X127340953Y-96120000D01*
X127245715Y-96072381D01*
X130446190Y-93620000D02*
X130541428Y-93572381D01*
X130684285Y-93572381D01*
X130827143Y-93620000D01*
X130922381Y-93715238D01*
X130970000Y-93810476D01*
X131017619Y-94000952D01*
X131017619Y-94143810D01*
X130970000Y-94334286D01*
X130922381Y-94429524D01*
X130827143Y-94524762D01*
X130684285Y-94572381D01*
X130589047Y-94572381D01*
X130446190Y-94524762D01*
X130398571Y-94477143D01*
X130398571Y-94143810D01*
X130589047Y-94143810D01*
X129970000Y-94572381D02*
X129970000Y-93572381D01*
X129589047Y-93572381D01*
X129493809Y-93620000D01*
X129446190Y-93667619D01*
X129398571Y-93762857D01*
X129398571Y-93905714D01*
X129446190Y-94000952D01*
X129493809Y-94048571D01*
X129589047Y-94096190D01*
X129970000Y-94096190D01*
X128970000Y-94572381D02*
X128970000Y-93572381D01*
X128303334Y-93572381D02*
X128112857Y-93572381D01*
X128017619Y-93620000D01*
X127922381Y-93715238D01*
X127874762Y-93905714D01*
X127874762Y-94239048D01*
X127922381Y-94429524D01*
X128017619Y-94524762D01*
X128112857Y-94572381D01*
X128303334Y-94572381D01*
X128398572Y-94524762D01*
X128493810Y-94429524D01*
X128541429Y-94239048D01*
X128541429Y-93905714D01*
X128493810Y-93715238D01*
X128398572Y-93620000D01*
X128303334Y-93572381D01*
X127541429Y-93572381D02*
X126922381Y-93572381D01*
X127255715Y-93953333D01*
X127112857Y-93953333D01*
X127017619Y-94000952D01*
X126970000Y-94048571D01*
X126922381Y-94143810D01*
X126922381Y-94381905D01*
X126970000Y-94477143D01*
X127017619Y-94524762D01*
X127112857Y-94572381D01*
X127398572Y-94572381D01*
X127493810Y-94524762D01*
X127541429Y-94477143D01*
X128886666Y-91977143D02*
X128934285Y-92024762D01*
X129077142Y-92072381D01*
X129172380Y-92072381D01*
X129315238Y-92024762D01*
X129410476Y-91929524D01*
X129458095Y-91834286D01*
X129505714Y-91643810D01*
X129505714Y-91500952D01*
X129458095Y-91310476D01*
X129410476Y-91215238D01*
X129315238Y-91120000D01*
X129172380Y-91072381D01*
X129077142Y-91072381D01*
X128934285Y-91120000D01*
X128886666Y-91167619D01*
X128505714Y-91167619D02*
X128458095Y-91120000D01*
X128362857Y-91072381D01*
X128124761Y-91072381D01*
X128029523Y-91120000D01*
X127981904Y-91167619D01*
X127934285Y-91262857D01*
X127934285Y-91358095D01*
X127981904Y-91500952D01*
X128553333Y-92072381D01*
X127934285Y-92072381D01*
X127505714Y-92072381D02*
X127505714Y-91072381D01*
X127267619Y-91072381D01*
X127124761Y-91120000D01*
X127029523Y-91215238D01*
X126981904Y-91310476D01*
X126934285Y-91500952D01*
X126934285Y-91643810D01*
X126981904Y-91834286D01*
X127029523Y-91929524D01*
X127124761Y-92024762D01*
X127267619Y-92072381D01*
X127505714Y-92072381D01*
X129886666Y-89477143D02*
X129934285Y-89524762D01*
X130077142Y-89572381D01*
X130172380Y-89572381D01*
X130315238Y-89524762D01*
X130410476Y-89429524D01*
X130458095Y-89334286D01*
X130505714Y-89143810D01*
X130505714Y-89000952D01*
X130458095Y-88810476D01*
X130410476Y-88715238D01*
X130315238Y-88620000D01*
X130172380Y-88572381D01*
X130077142Y-88572381D01*
X129934285Y-88620000D01*
X129886666Y-88667619D01*
X129505714Y-88667619D02*
X129458095Y-88620000D01*
X129362857Y-88572381D01*
X129124761Y-88572381D01*
X129029523Y-88620000D01*
X128981904Y-88667619D01*
X128934285Y-88762857D01*
X128934285Y-88858095D01*
X128981904Y-89000952D01*
X129553333Y-89572381D01*
X128934285Y-89572381D01*
X127934285Y-89477143D02*
X127981904Y-89524762D01*
X128124761Y-89572381D01*
X128219999Y-89572381D01*
X128362857Y-89524762D01*
X128458095Y-89429524D01*
X128505714Y-89334286D01*
X128553333Y-89143810D01*
X128553333Y-89000952D01*
X128505714Y-88810476D01*
X128458095Y-88715238D01*
X128362857Y-88620000D01*
X128219999Y-88572381D01*
X128124761Y-88572381D01*
X127981904Y-88620000D01*
X127934285Y-88667619D01*
X127505714Y-89572381D02*
X127505714Y-88572381D01*
X126934285Y-89572381D02*
X127362857Y-89000952D01*
X126934285Y-88572381D02*
X127505714Y-89143810D01*
X128981904Y-83620000D02*
X129077142Y-83572381D01*
X129219999Y-83572381D01*
X129362857Y-83620000D01*
X129458095Y-83715238D01*
X129505714Y-83810476D01*
X129553333Y-84000952D01*
X129553333Y-84143810D01*
X129505714Y-84334286D01*
X129458095Y-84429524D01*
X129362857Y-84524762D01*
X129219999Y-84572381D01*
X129124761Y-84572381D01*
X128981904Y-84524762D01*
X128934285Y-84477143D01*
X128934285Y-84143810D01*
X129124761Y-84143810D01*
X128505714Y-84572381D02*
X128505714Y-83572381D01*
X127934285Y-84572381D01*
X127934285Y-83572381D01*
X127458095Y-84572381D02*
X127458095Y-83572381D01*
X127220000Y-83572381D01*
X127077142Y-83620000D01*
X126981904Y-83715238D01*
X126934285Y-83810476D01*
X126886666Y-84000952D01*
X126886666Y-84143810D01*
X126934285Y-84334286D01*
X126981904Y-84429524D01*
X127077142Y-84524762D01*
X127220000Y-84572381D01*
X127458095Y-84572381D01*
M02*
