G04 #@! TF.FileFunction,Soldermask,Top*
%FSLAX46Y46*%
G04 Gerber Fmt 4.6, Leading zero omitted, Abs format (unit mm)*
G04 Created by KiCad (PCBNEW 4.0.7-e2-6376~58~ubuntu16.04.1) date Thu Aug 16 13:00:31 2018*
%MOMM*%
%LPD*%
G01*
G04 APERTURE LIST*
%ADD10C,0.100000*%
%ADD11R,0.731600X0.551600*%
%ADD12R,0.951600X1.401600*%
%ADD13R,0.901600X0.901600*%
%ADD14R,0.901600X0.851600*%
%ADD15C,12.801600*%
%ADD16R,5.101600X3.101600*%
%ADD17R,1.601600X0.701600*%
%ADD18R,0.851600X0.901600*%
%ADD19R,0.601600X1.001600*%
G04 APERTURE END LIST*
D10*
D11*
X128380000Y-102670000D03*
X128380000Y-103620000D03*
X128380000Y-104570000D03*
X131060000Y-104570000D03*
X131060000Y-103620000D03*
X131060000Y-102670000D03*
D12*
X130145000Y-104270000D03*
X130145000Y-102970000D03*
X129295000Y-104270000D03*
X129295000Y-102970000D03*
D13*
X142290000Y-92440000D03*
D14*
X130220000Y-84870000D03*
X131720000Y-84870000D03*
D15*
X161220000Y-92620000D03*
D16*
X161220000Y-81620000D03*
X161220000Y-103620000D03*
D13*
X137920000Y-93350000D03*
X137920000Y-91550000D03*
D17*
X133320000Y-96820000D03*
X133320000Y-95550000D03*
X133320000Y-94280000D03*
X133320000Y-93010000D03*
X133320000Y-91740000D03*
X133320000Y-90470000D03*
X133320000Y-89200000D03*
X127920000Y-89200000D03*
X127920000Y-90470000D03*
X127920000Y-91740000D03*
X127920000Y-93010000D03*
X127920000Y-94280000D03*
X127920000Y-95550000D03*
X127920000Y-96820000D03*
D14*
X130220000Y-86370000D03*
X131720000Y-86370000D03*
X130220000Y-87870000D03*
X131720000Y-87870000D03*
D18*
X132470000Y-105120000D03*
X132470000Y-103620000D03*
D19*
X132470000Y-101120000D03*
X130970000Y-101120000D03*
X129720000Y-100870000D03*
X128220000Y-100870000D03*
M02*
