G04 #@! TF.FileFunction,Copper,L2,Bot,Signal*
%FSLAX46Y46*%
G04 Gerber Fmt 4.6, Leading zero omitted, Abs format (unit mm)*
G04 Created by KiCad (PCBNEW 4.0.7-e2-6376~58~ubuntu16.04.1) date Sat Jul  7 10:01:01 2018*
%MOMM*%
%LPD*%
G01*
G04 APERTURE LIST*
%ADD10C,0.100000*%
%ADD11R,0.500000X0.500000*%
%ADD12C,17.800000*%
%ADD13R,2.500000X5.100000*%
%ADD14C,0.800000*%
%ADD15C,0.600000*%
%ADD16C,0.508000*%
%ADD17C,1.000000*%
%ADD18C,0.500000*%
%ADD19C,0.300000*%
%ADD20C,0.152400*%
%ADD21C,0.900000*%
%ADD22C,0.254000*%
G04 APERTURE END LIST*
D10*
D11*
X159540000Y-85160000D03*
X159540000Y-86080000D03*
X159540000Y-88660000D03*
X159540000Y-87740000D03*
D12*
X151550000Y-101310000D03*
D13*
X140100000Y-101310000D03*
X163000000Y-101310000D03*
D14*
X141705000Y-102895000D03*
D15*
X140855000Y-96270000D03*
D14*
X145450000Y-92670000D03*
D16*
X162360000Y-104640000D03*
D14*
X140370000Y-104850000D03*
X158770000Y-89930000D03*
D15*
X141080000Y-95470000D03*
X143080000Y-95470000D03*
X143080000Y-93470000D03*
D17*
X140830000Y-91470000D03*
D15*
X139080000Y-91470000D03*
D17*
X142830000Y-91470000D03*
X144830000Y-91470000D03*
X146830000Y-91470000D03*
X148830000Y-91470000D03*
X150830000Y-91470000D03*
X152830000Y-91470000D03*
X154080000Y-90720000D03*
X154080000Y-88720000D03*
X154080000Y-86720000D03*
X154080000Y-84720000D03*
X154080000Y-82720000D03*
D15*
X140830000Y-93470000D03*
X139080000Y-96220000D03*
X139080000Y-93470000D03*
X143005000Y-105320000D03*
X142680000Y-103070000D03*
X162080000Y-89720000D03*
X162690000Y-93910000D03*
X160390000Y-96300000D03*
X161080000Y-100220000D03*
X161080000Y-102220000D03*
X161080000Y-103880000D03*
X155110000Y-102760000D03*
X150460000Y-94720000D03*
X160400000Y-94020000D03*
X162080000Y-91970000D03*
X159830000Y-90130000D03*
D17*
X154110000Y-80290000D03*
D15*
X158080000Y-87950000D03*
X157830000Y-97220000D03*
X163830000Y-104470000D03*
X162080000Y-105720000D03*
X160330000Y-106220000D03*
X157830000Y-100470000D03*
X144330000Y-107970000D03*
X141330000Y-107470000D03*
X139080000Y-104470000D03*
X145120000Y-102870000D03*
X145120000Y-99310000D03*
X155080000Y-94720000D03*
X145130000Y-94770000D03*
X151550000Y-101310000D03*
X157830000Y-92720000D03*
X164130000Y-90970000D03*
X164130000Y-92970000D03*
X162330000Y-96470000D03*
X161080000Y-98220000D03*
X162330000Y-98220000D03*
X163830000Y-98220000D03*
X163830000Y-96470000D03*
X163830000Y-94970000D03*
X155830000Y-86220000D03*
X155830000Y-84220000D03*
X155830000Y-82220000D03*
X162830000Y-87970000D03*
X163830000Y-88970000D03*
X163830000Y-86970000D03*
X163830000Y-84970000D03*
X161830000Y-82970000D03*
X163830000Y-82970000D03*
X163830000Y-80970000D03*
X161830000Y-80970000D03*
X161830000Y-78970000D03*
X163830000Y-78970000D03*
X163830000Y-76970000D03*
X161830000Y-76970000D03*
D17*
X157770000Y-85400000D03*
X157840000Y-82480000D03*
X156330000Y-80220000D03*
D15*
X157970000Y-80020000D03*
D17*
X154380000Y-77050000D03*
X156320000Y-77070000D03*
X158340000Y-77030000D03*
X159970000Y-77980000D03*
X159950000Y-80480000D03*
X159990000Y-82520000D03*
X162220000Y-85760000D03*
X161830000Y-86970000D03*
X157250000Y-86970000D03*
D18*
X141405000Y-102920000D02*
X140100000Y-101615000D01*
X141680000Y-102920000D02*
X141405000Y-102920000D01*
X141705000Y-102895000D02*
X141680000Y-102920000D01*
X140100000Y-101615000D02*
X140100000Y-101310000D01*
D19*
X140100000Y-96270000D02*
X140855000Y-96270000D01*
D18*
X140100000Y-101540000D02*
X140100000Y-101310000D01*
X140100000Y-95370000D02*
X140100000Y-96270000D01*
X140100000Y-96270000D02*
X140100000Y-101310000D01*
X142830000Y-92640000D02*
X140100000Y-95370000D01*
X145420000Y-92640000D02*
X142830000Y-92640000D01*
X145450000Y-92670000D02*
X145420000Y-92640000D01*
X163000000Y-104000000D02*
X163000000Y-101310000D01*
X162360000Y-104640000D02*
X163000000Y-104000000D01*
X140100000Y-104580000D02*
X140100000Y-101310000D01*
X140370000Y-104850000D02*
X140100000Y-104580000D01*
X140100000Y-101310000D02*
X140100000Y-99400000D01*
X159540000Y-89160000D02*
X159540000Y-88660000D01*
X158770000Y-89930000D02*
X159540000Y-89160000D01*
D19*
X143080000Y-93470000D02*
X143080000Y-95470000D01*
X140830000Y-91470000D02*
X139080000Y-91470000D01*
X154110000Y-80290000D02*
X154110000Y-82690000D01*
X144830000Y-91470000D02*
X142830000Y-91470000D01*
X148830000Y-91470000D02*
X146830000Y-91470000D01*
X152830000Y-91470000D02*
X150830000Y-91470000D01*
X154080000Y-88720000D02*
X154080000Y-90720000D01*
X154080000Y-84720000D02*
X154080000Y-86720000D01*
X154110000Y-82690000D02*
X154080000Y-82720000D01*
X139080000Y-93470000D02*
X139080000Y-96220000D01*
X143005000Y-105320000D02*
X147015000Y-101310000D01*
X147015000Y-101310000D02*
X144440000Y-101310000D01*
X144440000Y-101310000D02*
X142680000Y-103070000D01*
X162630000Y-93970000D02*
X162580000Y-93970000D01*
X162690000Y-93910000D02*
X162630000Y-93970000D01*
X161080000Y-100220000D02*
X161080000Y-102220000D01*
X158510000Y-101310000D02*
X151550000Y-101310000D01*
X155110000Y-102760000D02*
X153920000Y-101310000D01*
X150460000Y-94720000D02*
X151550000Y-95810000D01*
D20*
X160400000Y-96290000D02*
X160390000Y-96300000D01*
D19*
X160400000Y-94020000D02*
X160400000Y-96290000D01*
X162080000Y-91970000D02*
X159830000Y-90130000D01*
D20*
X154110000Y-80290000D02*
X156260000Y-80290000D01*
X156260000Y-80290000D02*
X156330000Y-80220000D01*
X155260000Y-80290000D02*
X154110000Y-80290000D01*
X155330000Y-80220000D02*
X155260000Y-80290000D01*
D19*
X157830000Y-97220000D02*
X153740000Y-101310000D01*
X153740000Y-101310000D02*
X151550000Y-101310000D01*
X151550000Y-101310000D02*
X151670000Y-101310000D01*
X151670000Y-101310000D02*
X158580000Y-108220000D01*
X163830000Y-105470000D02*
X163830000Y-104470000D01*
X163580000Y-105720000D02*
X163830000Y-105470000D01*
X162080000Y-105720000D02*
X163580000Y-105720000D01*
X160330000Y-106470000D02*
X160330000Y-106220000D01*
X158580000Y-108220000D02*
X160330000Y-106470000D01*
X157830000Y-100470000D02*
X156990000Y-101310000D01*
X151550000Y-101310000D02*
X151550000Y-101500000D01*
X151550000Y-101500000D02*
X145080000Y-107970000D01*
X141830000Y-107970000D02*
X144330000Y-107970000D01*
X141330000Y-107470000D02*
X141830000Y-107970000D01*
X139080000Y-104720000D02*
X139080000Y-104470000D01*
X142330000Y-107970000D02*
X139080000Y-104720000D01*
X145080000Y-107970000D02*
X142330000Y-107970000D01*
X153920000Y-101310000D02*
X151550000Y-101310000D01*
X145120000Y-102870000D02*
X147490000Y-101310000D01*
X145580000Y-101220000D02*
X145670000Y-101310000D01*
X145120000Y-99310000D02*
X147670000Y-101310000D01*
X145580000Y-97220000D02*
X149670000Y-101310000D01*
X155080000Y-94720000D02*
X151550000Y-98250000D01*
X145130000Y-94770000D02*
X151550000Y-100690000D01*
X143830000Y-97720000D02*
X147420000Y-101310000D01*
X147420000Y-101310000D02*
X151550000Y-101310000D01*
X143830000Y-99470000D02*
X145670000Y-101310000D01*
X145670000Y-101310000D02*
X151550000Y-101310000D01*
X157830000Y-94720000D02*
X157830000Y-92720000D01*
X163830000Y-90670000D02*
X164130000Y-90970000D01*
X163830000Y-88970000D02*
X163830000Y-90670000D01*
X162330000Y-96970000D02*
X162330000Y-96470000D01*
X161080000Y-98220000D02*
X162330000Y-96970000D01*
X163830000Y-98220000D02*
X162330000Y-98220000D01*
X163830000Y-94970000D02*
X163830000Y-96470000D01*
X155830000Y-82220000D02*
X155830000Y-84220000D01*
X163830000Y-88970000D02*
X162830000Y-87970000D01*
X163830000Y-84970000D02*
X163830000Y-86970000D01*
X163830000Y-82970000D02*
X161830000Y-82970000D01*
X161830000Y-80970000D02*
X163830000Y-80970000D01*
X163830000Y-78970000D02*
X161830000Y-78970000D01*
X161830000Y-76970000D02*
X163830000Y-76970000D01*
D20*
X157770000Y-82550000D02*
X157770000Y-85400000D01*
X157840000Y-82480000D02*
X157770000Y-82550000D01*
X156510000Y-80040000D02*
X156330000Y-80220000D01*
X157900000Y-80090000D02*
X156510000Y-80040000D01*
X157970000Y-80020000D02*
X157900000Y-80090000D01*
D19*
X159950000Y-80480000D02*
X159950000Y-78000000D01*
X154380000Y-77050000D02*
X154290000Y-77050000D01*
X158300000Y-77070000D02*
X156320000Y-77070000D01*
X158340000Y-77030000D02*
X158300000Y-77070000D01*
X159950000Y-78000000D02*
X159970000Y-77980000D01*
X159950000Y-80480000D02*
X159910000Y-80480000D01*
X159990000Y-83530000D02*
X159990000Y-82520000D01*
X162220000Y-85760000D02*
X159990000Y-83530000D01*
D21*
X161830000Y-86970000D02*
X159540000Y-86970000D01*
X157250000Y-86970000D02*
X159540000Y-86970000D01*
D18*
X159540000Y-86970000D02*
X159490000Y-86970000D01*
X159490000Y-86970000D02*
X159540000Y-86970000D01*
X159540000Y-86080000D02*
X159540000Y-86970000D01*
X159540000Y-86970000D02*
X159540000Y-87740000D01*
D22*
G36*
X164393000Y-98519550D02*
X164360832Y-98497571D01*
X164250000Y-98475127D01*
X161750000Y-98475127D01*
X161646461Y-98494609D01*
X161551366Y-98555801D01*
X161487571Y-98649168D01*
X161465127Y-98760000D01*
X161465127Y-103860000D01*
X161484609Y-103963539D01*
X161545801Y-104058634D01*
X161639168Y-104122429D01*
X161750000Y-104144873D01*
X162106443Y-104144873D01*
X162067665Y-104183651D01*
X162058248Y-104187542D01*
X161908069Y-104337459D01*
X161826693Y-104533435D01*
X161826508Y-104745634D01*
X161907542Y-104941752D01*
X162057459Y-105091931D01*
X162253435Y-105173307D01*
X162465634Y-105173492D01*
X162661752Y-105092458D01*
X162811931Y-104942541D01*
X162816041Y-104932643D01*
X163374343Y-104374342D01*
X163446963Y-104265658D01*
X163489102Y-104202593D01*
X163500583Y-104144873D01*
X164250000Y-104144873D01*
X164353539Y-104125391D01*
X164393000Y-104099999D01*
X164393000Y-111483000D01*
X138897000Y-111483000D01*
X138897000Y-104144873D01*
X139570600Y-104144873D01*
X139570600Y-104580000D01*
X139610898Y-104782593D01*
X139690555Y-104901807D01*
X139690483Y-104984548D01*
X139793697Y-105234346D01*
X139984648Y-105425631D01*
X140234266Y-105529282D01*
X140504548Y-105529517D01*
X140754346Y-105426303D01*
X140945631Y-105235352D01*
X141049282Y-104985734D01*
X141049517Y-104715452D01*
X140946303Y-104465654D01*
X140755352Y-104274369D01*
X140629400Y-104222069D01*
X140629400Y-104144873D01*
X141350000Y-104144873D01*
X141453539Y-104125391D01*
X141548634Y-104064199D01*
X141612429Y-103970832D01*
X141634873Y-103860000D01*
X141634873Y-103574339D01*
X141839548Y-103574517D01*
X142089346Y-103471303D01*
X142280631Y-103280352D01*
X142384282Y-103030734D01*
X142384517Y-102760452D01*
X142281303Y-102510654D01*
X142090352Y-102319369D01*
X141840734Y-102215718D01*
X141634873Y-102215539D01*
X141634873Y-98760000D01*
X141615391Y-98656461D01*
X141554199Y-98561366D01*
X141460832Y-98497571D01*
X141350000Y-98475127D01*
X140629400Y-98475127D01*
X140629400Y-96803688D01*
X140739245Y-96849299D01*
X140969744Y-96849500D01*
X141182775Y-96761478D01*
X141345905Y-96598632D01*
X141434299Y-96385755D01*
X141434500Y-96155256D01*
X141346478Y-95942225D01*
X141183632Y-95779095D01*
X140970755Y-95690701D01*
X140740256Y-95690500D01*
X140629400Y-95736304D01*
X140629400Y-95589284D01*
X143049284Y-93169400D01*
X144988550Y-93169400D01*
X145064648Y-93245631D01*
X145314266Y-93349282D01*
X145584548Y-93349517D01*
X145834346Y-93246303D01*
X146025631Y-93055352D01*
X146129282Y-92805734D01*
X146129517Y-92535452D01*
X146026303Y-92285654D01*
X145835352Y-92094369D01*
X145585734Y-91990718D01*
X145315452Y-91990483D01*
X145065654Y-92093697D01*
X145048721Y-92110600D01*
X142830000Y-92110600D01*
X142627407Y-92150898D01*
X142455658Y-92265658D01*
X139725658Y-94995658D01*
X139610898Y-95167407D01*
X139570600Y-95370000D01*
X139570600Y-98475127D01*
X138897000Y-98475127D01*
X138897000Y-90977086D01*
X153469914Y-90987000D01*
X153519331Y-90977028D01*
X153560974Y-90948615D01*
X153588283Y-90906240D01*
X153597000Y-90860000D01*
X153597000Y-87124352D01*
X156470465Y-87124352D01*
X156588872Y-87410918D01*
X156807929Y-87630358D01*
X157094288Y-87749264D01*
X157404352Y-87749535D01*
X157525688Y-87699400D01*
X159005127Y-87699400D01*
X159005127Y-87990000D01*
X159024609Y-88093539D01*
X159085801Y-88188634D01*
X159101439Y-88199319D01*
X159091366Y-88205801D01*
X159027571Y-88299168D01*
X159005127Y-88410000D01*
X159005127Y-88910000D01*
X159010600Y-88939087D01*
X159010600Y-88940715D01*
X158700776Y-89250540D01*
X158635452Y-89250483D01*
X158385654Y-89353697D01*
X158194369Y-89544648D01*
X158090718Y-89794266D01*
X158090483Y-90064548D01*
X158193697Y-90314346D01*
X158384648Y-90505631D01*
X158634266Y-90609282D01*
X158904548Y-90609517D01*
X159154346Y-90506303D01*
X159345631Y-90315352D01*
X159449282Y-90065734D01*
X159449340Y-89999345D01*
X159914342Y-89534343D01*
X160029102Y-89362593D01*
X160030738Y-89354369D01*
X160069400Y-89160000D01*
X160069400Y-88937027D01*
X160074873Y-88910000D01*
X160074873Y-88410000D01*
X160055391Y-88306461D01*
X159994199Y-88211366D01*
X159978561Y-88200681D01*
X159988634Y-88194199D01*
X160052429Y-88100832D01*
X160074873Y-87990000D01*
X160074873Y-87699400D01*
X161554202Y-87699400D01*
X161674288Y-87749264D01*
X161984352Y-87749535D01*
X162270918Y-87631128D01*
X162490358Y-87412071D01*
X162609264Y-87125712D01*
X162609535Y-86815648D01*
X162491128Y-86529082D01*
X162272071Y-86309642D01*
X161985712Y-86190736D01*
X161675648Y-86190465D01*
X161554312Y-86240600D01*
X160074873Y-86240600D01*
X160074873Y-85979321D01*
X160149699Y-85948327D01*
X160328327Y-85769698D01*
X160425000Y-85536309D01*
X160425000Y-85443750D01*
X160266250Y-85285000D01*
X159665000Y-85285000D01*
X159665000Y-85307000D01*
X159415000Y-85307000D01*
X159415000Y-85285000D01*
X158813750Y-85285000D01*
X158655000Y-85443750D01*
X158655000Y-85536309D01*
X158751673Y-85769698D01*
X158930301Y-85948327D01*
X159005127Y-85979321D01*
X159005127Y-86240600D01*
X157525798Y-86240600D01*
X157405712Y-86190736D01*
X157095648Y-86190465D01*
X156809082Y-86308872D01*
X156589642Y-86527929D01*
X156470736Y-86814288D01*
X156470465Y-87124352D01*
X153597000Y-87124352D01*
X153597000Y-84783691D01*
X158655000Y-84783691D01*
X158655000Y-84876250D01*
X158813750Y-85035000D01*
X159415000Y-85035000D01*
X159415000Y-84433750D01*
X159665000Y-84433750D01*
X159665000Y-85035000D01*
X160266250Y-85035000D01*
X160425000Y-84876250D01*
X160425000Y-84783691D01*
X160328327Y-84550302D01*
X160149699Y-84371673D01*
X159916310Y-84275000D01*
X159823750Y-84275000D01*
X159665000Y-84433750D01*
X159415000Y-84433750D01*
X159256250Y-84275000D01*
X159163690Y-84275000D01*
X158930301Y-84371673D01*
X158751673Y-84550302D01*
X158655000Y-84783691D01*
X153597000Y-84783691D01*
X153597000Y-76287000D01*
X164393000Y-76287000D01*
X164393000Y-98519550D01*
X164393000Y-98519550D01*
G37*
X164393000Y-98519550D02*
X164360832Y-98497571D01*
X164250000Y-98475127D01*
X161750000Y-98475127D01*
X161646461Y-98494609D01*
X161551366Y-98555801D01*
X161487571Y-98649168D01*
X161465127Y-98760000D01*
X161465127Y-103860000D01*
X161484609Y-103963539D01*
X161545801Y-104058634D01*
X161639168Y-104122429D01*
X161750000Y-104144873D01*
X162106443Y-104144873D01*
X162067665Y-104183651D01*
X162058248Y-104187542D01*
X161908069Y-104337459D01*
X161826693Y-104533435D01*
X161826508Y-104745634D01*
X161907542Y-104941752D01*
X162057459Y-105091931D01*
X162253435Y-105173307D01*
X162465634Y-105173492D01*
X162661752Y-105092458D01*
X162811931Y-104942541D01*
X162816041Y-104932643D01*
X163374343Y-104374342D01*
X163446963Y-104265658D01*
X163489102Y-104202593D01*
X163500583Y-104144873D01*
X164250000Y-104144873D01*
X164353539Y-104125391D01*
X164393000Y-104099999D01*
X164393000Y-111483000D01*
X138897000Y-111483000D01*
X138897000Y-104144873D01*
X139570600Y-104144873D01*
X139570600Y-104580000D01*
X139610898Y-104782593D01*
X139690555Y-104901807D01*
X139690483Y-104984548D01*
X139793697Y-105234346D01*
X139984648Y-105425631D01*
X140234266Y-105529282D01*
X140504548Y-105529517D01*
X140754346Y-105426303D01*
X140945631Y-105235352D01*
X141049282Y-104985734D01*
X141049517Y-104715452D01*
X140946303Y-104465654D01*
X140755352Y-104274369D01*
X140629400Y-104222069D01*
X140629400Y-104144873D01*
X141350000Y-104144873D01*
X141453539Y-104125391D01*
X141548634Y-104064199D01*
X141612429Y-103970832D01*
X141634873Y-103860000D01*
X141634873Y-103574339D01*
X141839548Y-103574517D01*
X142089346Y-103471303D01*
X142280631Y-103280352D01*
X142384282Y-103030734D01*
X142384517Y-102760452D01*
X142281303Y-102510654D01*
X142090352Y-102319369D01*
X141840734Y-102215718D01*
X141634873Y-102215539D01*
X141634873Y-98760000D01*
X141615391Y-98656461D01*
X141554199Y-98561366D01*
X141460832Y-98497571D01*
X141350000Y-98475127D01*
X140629400Y-98475127D01*
X140629400Y-96803688D01*
X140739245Y-96849299D01*
X140969744Y-96849500D01*
X141182775Y-96761478D01*
X141345905Y-96598632D01*
X141434299Y-96385755D01*
X141434500Y-96155256D01*
X141346478Y-95942225D01*
X141183632Y-95779095D01*
X140970755Y-95690701D01*
X140740256Y-95690500D01*
X140629400Y-95736304D01*
X140629400Y-95589284D01*
X143049284Y-93169400D01*
X144988550Y-93169400D01*
X145064648Y-93245631D01*
X145314266Y-93349282D01*
X145584548Y-93349517D01*
X145834346Y-93246303D01*
X146025631Y-93055352D01*
X146129282Y-92805734D01*
X146129517Y-92535452D01*
X146026303Y-92285654D01*
X145835352Y-92094369D01*
X145585734Y-91990718D01*
X145315452Y-91990483D01*
X145065654Y-92093697D01*
X145048721Y-92110600D01*
X142830000Y-92110600D01*
X142627407Y-92150898D01*
X142455658Y-92265658D01*
X139725658Y-94995658D01*
X139610898Y-95167407D01*
X139570600Y-95370000D01*
X139570600Y-98475127D01*
X138897000Y-98475127D01*
X138897000Y-90977086D01*
X153469914Y-90987000D01*
X153519331Y-90977028D01*
X153560974Y-90948615D01*
X153588283Y-90906240D01*
X153597000Y-90860000D01*
X153597000Y-87124352D01*
X156470465Y-87124352D01*
X156588872Y-87410918D01*
X156807929Y-87630358D01*
X157094288Y-87749264D01*
X157404352Y-87749535D01*
X157525688Y-87699400D01*
X159005127Y-87699400D01*
X159005127Y-87990000D01*
X159024609Y-88093539D01*
X159085801Y-88188634D01*
X159101439Y-88199319D01*
X159091366Y-88205801D01*
X159027571Y-88299168D01*
X159005127Y-88410000D01*
X159005127Y-88910000D01*
X159010600Y-88939087D01*
X159010600Y-88940715D01*
X158700776Y-89250540D01*
X158635452Y-89250483D01*
X158385654Y-89353697D01*
X158194369Y-89544648D01*
X158090718Y-89794266D01*
X158090483Y-90064548D01*
X158193697Y-90314346D01*
X158384648Y-90505631D01*
X158634266Y-90609282D01*
X158904548Y-90609517D01*
X159154346Y-90506303D01*
X159345631Y-90315352D01*
X159449282Y-90065734D01*
X159449340Y-89999345D01*
X159914342Y-89534343D01*
X160029102Y-89362593D01*
X160030738Y-89354369D01*
X160069400Y-89160000D01*
X160069400Y-88937027D01*
X160074873Y-88910000D01*
X160074873Y-88410000D01*
X160055391Y-88306461D01*
X159994199Y-88211366D01*
X159978561Y-88200681D01*
X159988634Y-88194199D01*
X160052429Y-88100832D01*
X160074873Y-87990000D01*
X160074873Y-87699400D01*
X161554202Y-87699400D01*
X161674288Y-87749264D01*
X161984352Y-87749535D01*
X162270918Y-87631128D01*
X162490358Y-87412071D01*
X162609264Y-87125712D01*
X162609535Y-86815648D01*
X162491128Y-86529082D01*
X162272071Y-86309642D01*
X161985712Y-86190736D01*
X161675648Y-86190465D01*
X161554312Y-86240600D01*
X160074873Y-86240600D01*
X160074873Y-85979321D01*
X160149699Y-85948327D01*
X160328327Y-85769698D01*
X160425000Y-85536309D01*
X160425000Y-85443750D01*
X160266250Y-85285000D01*
X159665000Y-85285000D01*
X159665000Y-85307000D01*
X159415000Y-85307000D01*
X159415000Y-85285000D01*
X158813750Y-85285000D01*
X158655000Y-85443750D01*
X158655000Y-85536309D01*
X158751673Y-85769698D01*
X158930301Y-85948327D01*
X159005127Y-85979321D01*
X159005127Y-86240600D01*
X157525798Y-86240600D01*
X157405712Y-86190736D01*
X157095648Y-86190465D01*
X156809082Y-86308872D01*
X156589642Y-86527929D01*
X156470736Y-86814288D01*
X156470465Y-87124352D01*
X153597000Y-87124352D01*
X153597000Y-84783691D01*
X158655000Y-84783691D01*
X158655000Y-84876250D01*
X158813750Y-85035000D01*
X159415000Y-85035000D01*
X159415000Y-84433750D01*
X159665000Y-84433750D01*
X159665000Y-85035000D01*
X160266250Y-85035000D01*
X160425000Y-84876250D01*
X160425000Y-84783691D01*
X160328327Y-84550302D01*
X160149699Y-84371673D01*
X159916310Y-84275000D01*
X159823750Y-84275000D01*
X159665000Y-84433750D01*
X159415000Y-84433750D01*
X159256250Y-84275000D01*
X159163690Y-84275000D01*
X158930301Y-84371673D01*
X158751673Y-84550302D01*
X158655000Y-84783691D01*
X153597000Y-84783691D01*
X153597000Y-76287000D01*
X164393000Y-76287000D01*
X164393000Y-98519550D01*
M02*
