G04 #@! TF.FileFunction,Copper,L1,Top,Signal*
%FSLAX46Y46*%
G04 Gerber Fmt 4.6, Leading zero omitted, Abs format (unit mm)*
G04 Created by KiCad (PCBNEW 4.0.7-e2-6376~58~ubuntu16.04.1) date Sat Jul  7 10:01:01 2018*
%MOMM*%
%LPD*%
G01*
G04 APERTURE LIST*
%ADD10C,0.100000*%
%ADD11R,0.750000X0.800000*%
%ADD12R,0.500000X0.600000*%
%ADD13R,0.600000X1.550000*%
%ADD14R,1.200000X1.800000*%
%ADD15R,0.400000X0.600000*%
%ADD16R,0.600000X0.400000*%
%ADD17R,0.300000X1.400000*%
%ADD18R,0.450000X0.630000*%
%ADD19R,1.300000X0.850000*%
%ADD20R,0.500000X0.500000*%
%ADD21R,0.600000X0.500000*%
%ADD22R,1.150000X4.200000*%
%ADD23C,0.800000*%
%ADD24C,0.600000*%
%ADD25C,0.508000*%
%ADD26C,1.000000*%
%ADD27C,0.500000*%
%ADD28C,1.300000*%
%ADD29C,0.300000*%
%ADD30C,0.152400*%
%ADD31C,0.900000*%
%ADD32C,0.254000*%
G04 APERTURE END LIST*
D10*
D11*
X155280000Y-88990000D03*
X155280000Y-90490000D03*
D12*
X157520000Y-89870000D03*
X157520000Y-88770000D03*
X156580000Y-89870000D03*
X156580000Y-88770000D03*
D13*
X155080000Y-104702500D03*
X156080000Y-104702500D03*
X157080000Y-104702500D03*
X158080000Y-104702500D03*
X159080000Y-104702500D03*
X160080000Y-104702500D03*
D14*
X153780000Y-108577500D03*
X161380000Y-108577500D03*
D15*
X142530000Y-102070000D03*
X143430000Y-102070000D03*
D16*
X142730000Y-96395000D03*
X142730000Y-97295000D03*
D17*
X160770000Y-88320000D03*
X160270000Y-88320000D03*
X159770000Y-88320000D03*
X159270000Y-88320000D03*
X158770000Y-88320000D03*
X158770000Y-92720000D03*
X159270000Y-92720000D03*
X159770000Y-92720000D03*
X160270000Y-92720000D03*
X160770000Y-92720000D03*
D18*
X142730000Y-98380000D03*
X141780000Y-98380000D03*
X140830000Y-98380000D03*
X140830000Y-101060000D03*
X141780000Y-101060000D03*
X142730000Y-101060000D03*
D19*
X141130000Y-100145000D03*
X142430000Y-100145000D03*
X141130000Y-99295000D03*
X142430000Y-99295000D03*
D20*
X158900000Y-79970000D03*
X158900000Y-79050000D03*
X158900000Y-81000000D03*
X157980000Y-81000000D03*
X160160000Y-85770000D03*
X161080000Y-85770000D03*
X158900000Y-83840000D03*
X157980000Y-83840000D03*
X158900000Y-85720000D03*
X158900000Y-84800000D03*
X158900000Y-82880000D03*
X158900000Y-81960000D03*
X160160000Y-84530000D03*
X160160000Y-83610000D03*
X160160000Y-86970000D03*
X161080000Y-86970000D03*
X157980000Y-86970000D03*
X158900000Y-86970000D03*
D21*
X141705000Y-102070000D03*
X140605000Y-102070000D03*
D13*
X143960000Y-104732500D03*
X144960000Y-104732500D03*
X145960000Y-104732500D03*
X146960000Y-104732500D03*
D14*
X142660000Y-108607500D03*
X148260000Y-108607500D03*
D22*
X139545000Y-78760000D03*
X150995000Y-78760000D03*
D23*
X141705000Y-102895000D03*
D24*
X140855000Y-96270000D03*
D23*
X145450000Y-92670000D03*
D25*
X162360000Y-104640000D03*
D23*
X140370000Y-104850000D03*
X158770000Y-89930000D03*
D24*
X141080000Y-95470000D03*
X143080000Y-95470000D03*
X143080000Y-93470000D03*
D26*
X140830000Y-91470000D03*
D24*
X139080000Y-91470000D03*
D26*
X142830000Y-91470000D03*
X144830000Y-91470000D03*
X146830000Y-91470000D03*
X148830000Y-91470000D03*
X150830000Y-91470000D03*
X152830000Y-91470000D03*
X154080000Y-90720000D03*
X154080000Y-88720000D03*
X154080000Y-86720000D03*
X154080000Y-84720000D03*
X154080000Y-82720000D03*
D24*
X140830000Y-93470000D03*
X139080000Y-96220000D03*
X139080000Y-93470000D03*
X143005000Y-105320000D03*
X142680000Y-103070000D03*
X162080000Y-89720000D03*
X162690000Y-93910000D03*
X160390000Y-96300000D03*
X161080000Y-100220000D03*
X161080000Y-102220000D03*
X161080000Y-103880000D03*
X155110000Y-102760000D03*
X150460000Y-94720000D03*
X160400000Y-94020000D03*
X162080000Y-91970000D03*
X159830000Y-90130000D03*
D26*
X154110000Y-80290000D03*
D24*
X158080000Y-87950000D03*
X157830000Y-97220000D03*
X163830000Y-104470000D03*
X162080000Y-105720000D03*
X160330000Y-106220000D03*
X157830000Y-100470000D03*
X144330000Y-107970000D03*
X141330000Y-107470000D03*
X139080000Y-104470000D03*
X145120000Y-102870000D03*
X145120000Y-99310000D03*
X155080000Y-94720000D03*
X145130000Y-94770000D03*
X151550000Y-101310000D03*
X157830000Y-92720000D03*
X164130000Y-90970000D03*
X164130000Y-92970000D03*
X162330000Y-96470000D03*
X161080000Y-98220000D03*
X162330000Y-98220000D03*
X163830000Y-98220000D03*
X163830000Y-96470000D03*
X163830000Y-94970000D03*
X155830000Y-86220000D03*
X155830000Y-84220000D03*
X155830000Y-82220000D03*
X162830000Y-87970000D03*
X163830000Y-88970000D03*
X163830000Y-86970000D03*
X163830000Y-84970000D03*
X161830000Y-82970000D03*
X163830000Y-82970000D03*
X163830000Y-80970000D03*
X161830000Y-80970000D03*
X161830000Y-78970000D03*
X163830000Y-78970000D03*
X163830000Y-76970000D03*
X161830000Y-76970000D03*
D26*
X157770000Y-85400000D03*
X157840000Y-82480000D03*
X156330000Y-80220000D03*
D24*
X157970000Y-80020000D03*
D26*
X154380000Y-77050000D03*
X156320000Y-77070000D03*
X158340000Y-77030000D03*
X159970000Y-77980000D03*
X159950000Y-80480000D03*
X159990000Y-82520000D03*
X162220000Y-85760000D03*
X161830000Y-86970000D03*
X157250000Y-86970000D03*
D27*
X158900000Y-79050000D02*
X158900000Y-79170000D01*
X158900000Y-79170000D02*
X158890000Y-79160000D01*
X158890000Y-79160000D02*
X158010000Y-79160000D01*
X158010000Y-79160000D02*
X157610000Y-78760000D01*
X158900000Y-79050000D02*
X158900000Y-78790000D01*
X158010000Y-78360000D02*
X157610000Y-78760000D01*
X158470000Y-78360000D02*
X158010000Y-78360000D01*
X158900000Y-78790000D02*
X158470000Y-78360000D01*
D28*
X150995000Y-78760000D02*
X157610000Y-78760000D01*
X157610000Y-78760000D02*
X158220000Y-78760000D01*
D27*
X141705000Y-102070000D02*
X141705000Y-102895000D01*
D29*
X140905000Y-96220000D02*
X142555000Y-96220000D01*
X140855000Y-96270000D02*
X140905000Y-96220000D01*
X142555000Y-96220000D02*
X142730000Y-96395000D01*
D27*
X141780000Y-101060000D02*
X141780000Y-101995000D01*
X141780000Y-101995000D02*
X141705000Y-102070000D01*
D29*
X142460000Y-102130000D02*
X141710000Y-102130000D01*
X141710000Y-102130000D02*
X141660000Y-102080000D01*
X156580000Y-89870000D02*
X157520000Y-89870000D01*
X157520000Y-89870000D02*
X157580000Y-89930000D01*
X157580000Y-89930000D02*
X158770000Y-89930000D01*
D27*
X158770000Y-89930000D02*
X157580000Y-89930000D01*
X157580000Y-89930000D02*
X157520000Y-89870000D01*
X157520000Y-89870000D02*
X155900000Y-89870000D01*
X155900000Y-89870000D02*
X155280000Y-90490000D01*
X155280000Y-90490000D02*
X155280000Y-92047598D01*
X154657598Y-92670000D02*
X145450000Y-92670000D01*
X155280000Y-92047598D02*
X154657598Y-92670000D01*
X160080000Y-104702500D02*
X162297500Y-104702500D01*
X162297500Y-104702500D02*
X162360000Y-104640000D01*
D29*
X141720000Y-102020000D02*
X141660000Y-102080000D01*
D27*
X145960000Y-104732500D02*
X145960000Y-106070000D01*
X142260000Y-106740000D02*
X140370000Y-104850000D01*
X145290000Y-106740000D02*
X142260000Y-106740000D01*
X145960000Y-106070000D02*
X145290000Y-106740000D01*
D29*
X141790000Y-102020000D02*
X141660000Y-102150000D01*
D27*
X157580000Y-89930000D02*
X157520000Y-89870000D01*
X157520000Y-89870000D02*
X155900000Y-89870000D01*
X155900000Y-89870000D02*
X155280000Y-90490000D01*
D29*
X158770000Y-88320000D02*
X158770000Y-89930000D01*
X142830000Y-91470000D02*
X142830000Y-93220000D01*
X143080000Y-95470000D02*
X141080000Y-95470000D01*
X142830000Y-93220000D02*
X143080000Y-93470000D01*
X139080000Y-91470000D02*
X139080000Y-93470000D01*
X142080000Y-91470000D02*
X141830000Y-91470000D01*
X141830000Y-91470000D02*
X140830000Y-91470000D01*
X146830000Y-91470000D02*
X144830000Y-91470000D01*
X150830000Y-91470000D02*
X148830000Y-91470000D01*
X153330000Y-91470000D02*
X152830000Y-91470000D01*
X154080000Y-90720000D02*
X153330000Y-91470000D01*
X154080000Y-86720000D02*
X154080000Y-88720000D01*
X154080000Y-82720000D02*
X154080000Y-84720000D01*
X142830000Y-91470000D02*
X142080000Y-91470000D01*
X140830000Y-94470000D02*
X140830000Y-93470000D01*
X139080000Y-96220000D02*
X140830000Y-94470000D01*
X140605000Y-102070000D02*
X140605000Y-103070000D01*
X142855000Y-105320000D02*
X143005000Y-105320000D01*
X140605000Y-103070000D02*
X142855000Y-105320000D01*
X142680000Y-103070000D02*
X142555000Y-103195000D01*
X142555000Y-103195000D02*
X142555000Y-103870000D01*
X142555000Y-103870000D02*
X142530000Y-103895000D01*
X141330000Y-107470000D02*
X141155000Y-107470000D01*
X139080000Y-105395000D02*
X139080000Y-104470000D01*
X141155000Y-107470000D02*
X139080000Y-105395000D01*
D27*
X141780000Y-98380000D02*
X141780000Y-97870000D01*
X139980000Y-102070000D02*
X140605000Y-102070000D01*
X139682402Y-101772402D02*
X139980000Y-102070000D01*
X139682402Y-97720000D02*
X139682402Y-101772402D01*
X139905000Y-97497402D02*
X139682402Y-97720000D01*
X141407402Y-97497402D02*
X139905000Y-97497402D01*
X141780000Y-97870000D02*
X141407402Y-97497402D01*
D29*
X162080000Y-89720000D02*
X162830000Y-90470000D01*
X162830000Y-93770000D02*
X162690000Y-93910000D01*
X162830000Y-90470000D02*
X162830000Y-93770000D01*
X160560000Y-89950000D02*
X162060000Y-89700000D01*
X160270000Y-88320000D02*
X160270000Y-89480000D01*
X160560000Y-89950000D02*
X160270000Y-89660000D01*
X160270000Y-89660000D02*
X160270000Y-89480000D01*
X162060000Y-89700000D02*
X162080000Y-89720000D01*
X160390000Y-96300000D02*
X160390000Y-96210000D01*
X160390000Y-96210000D02*
X162690000Y-93910000D01*
X161550000Y-95050000D02*
X162690000Y-93910000D01*
X161470000Y-92650000D02*
X161470000Y-93970000D01*
X161470000Y-93970000D02*
X161330000Y-93970000D01*
X161080000Y-102220000D02*
X161080000Y-103880000D01*
X161080000Y-98220000D02*
X161080000Y-100220000D01*
X155110000Y-104672500D02*
X155110000Y-102760000D01*
X155110000Y-104672500D02*
X155080000Y-104702500D01*
X151550000Y-101310000D02*
X151550000Y-95810000D01*
X151550000Y-95810000D02*
X150460000Y-94720000D01*
X161330000Y-93970000D02*
X160450000Y-93970000D01*
X160400000Y-94020000D02*
X160450000Y-93970000D01*
X161470000Y-92650000D02*
X162080000Y-91970000D01*
X144330000Y-107970000D02*
X145190000Y-107970000D01*
X146960000Y-106200000D02*
X146960000Y-104732500D01*
X145190000Y-107970000D02*
X146960000Y-106200000D01*
D30*
X154110000Y-80290000D02*
X154110000Y-80280000D01*
D27*
X156580000Y-88770000D02*
X156580000Y-87980000D01*
X156610000Y-87950000D02*
X158080000Y-87950000D01*
X156580000Y-87980000D02*
X156610000Y-87950000D01*
X158080000Y-87950000D02*
X157790000Y-87950000D01*
X157790000Y-87950000D02*
X157520000Y-88220000D01*
X157520000Y-88220000D02*
X157520000Y-88770000D01*
D29*
X157830000Y-92720000D02*
X157830000Y-97220000D01*
X160830000Y-105720000D02*
X162080000Y-105720000D01*
X160330000Y-106220000D02*
X160830000Y-105720000D01*
X151550000Y-101310000D02*
X156990000Y-101310000D01*
X156990000Y-101310000D02*
X157830000Y-100470000D01*
X151550000Y-101310000D02*
X147490000Y-101310000D01*
X147490000Y-101310000D02*
X145120000Y-102870000D01*
X151550000Y-101310000D02*
X147670000Y-101310000D01*
X147670000Y-101310000D02*
X145120000Y-99310000D01*
X151550000Y-101310000D02*
X151550000Y-98250000D01*
X151550000Y-98250000D02*
X155080000Y-94720000D01*
X151550000Y-101310000D02*
X151550000Y-100690000D01*
X151550000Y-100690000D02*
X145130000Y-94770000D01*
X157830000Y-95030000D02*
X157830000Y-92720000D01*
X157830000Y-95030000D02*
X151550000Y-101310000D01*
X164130000Y-92970000D02*
X164130000Y-94670000D01*
X164130000Y-90970000D02*
X164130000Y-92970000D01*
X162330000Y-98220000D02*
X161080000Y-98220000D01*
X163830000Y-96470000D02*
X163830000Y-98220000D01*
X164130000Y-94670000D02*
X163830000Y-94970000D01*
X155330000Y-80220000D02*
X155330000Y-81720000D01*
X155830000Y-84220000D02*
X155830000Y-86220000D01*
X155330000Y-81720000D02*
X155830000Y-82220000D01*
X159970000Y-77980000D02*
X160820000Y-77980000D01*
X163830000Y-86970000D02*
X163830000Y-88970000D01*
X161830000Y-82970000D02*
X163830000Y-84970000D01*
X163830000Y-80970000D02*
X163830000Y-82970000D01*
X161830000Y-78970000D02*
X161830000Y-80970000D01*
X163830000Y-76970000D02*
X163830000Y-78970000D01*
X160820000Y-77980000D02*
X161830000Y-76970000D01*
D30*
X155280000Y-88990000D02*
X155280000Y-88320000D01*
X155280000Y-88320000D02*
X155540000Y-88060000D01*
X155540000Y-88060000D02*
X157360000Y-88060000D01*
X157360000Y-88060000D02*
X157520000Y-88220000D01*
X157520000Y-88220000D02*
X157520000Y-88770000D01*
X158080000Y-87950000D02*
X155310000Y-87950000D01*
X155280000Y-87980000D02*
X155280000Y-88990000D01*
X155310000Y-87950000D02*
X155280000Y-87980000D01*
X157520000Y-88510000D02*
X158080000Y-87950000D01*
X157520000Y-88770000D02*
X157520000Y-88510000D01*
X157980000Y-81000000D02*
X157980000Y-82340000D01*
X157810000Y-85360000D02*
X157810000Y-85310000D01*
X157770000Y-85400000D02*
X157810000Y-85360000D01*
X157980000Y-82340000D02*
X157840000Y-82480000D01*
X157980000Y-81000000D02*
X157960000Y-80030000D01*
X156320000Y-80230000D02*
X155330000Y-80220000D01*
X156330000Y-80220000D02*
X156320000Y-80230000D01*
X157960000Y-80030000D02*
X157970000Y-80020000D01*
D29*
X156310000Y-77060000D02*
X154380000Y-77050000D01*
X156320000Y-77070000D02*
X156310000Y-77060000D01*
X158790000Y-77030000D02*
X158340000Y-77030000D01*
X159970000Y-77980000D02*
X158790000Y-77030000D01*
X161080000Y-85770000D02*
X162210000Y-85770000D01*
X159950000Y-82480000D02*
X159950000Y-80480000D01*
X159990000Y-82520000D02*
X159950000Y-82480000D01*
X162210000Y-85770000D02*
X162220000Y-85760000D01*
D27*
X158900000Y-79970000D02*
X158900000Y-81000000D01*
X158900000Y-81000000D02*
X158900000Y-81960000D01*
D29*
X159770000Y-88320000D02*
X159770000Y-87360000D01*
X159770000Y-87360000D02*
X160160000Y-86970000D01*
D27*
X160160000Y-84530000D02*
X160160000Y-85770000D01*
X160160000Y-85770000D02*
X160160000Y-86970000D01*
X158900000Y-82880000D02*
X158900000Y-83840000D01*
X158900000Y-83840000D02*
X158900000Y-84800000D01*
X160160000Y-83610000D02*
X158900000Y-83610000D01*
D31*
X161080000Y-86970000D02*
X161830000Y-86970000D01*
X157980000Y-86970000D02*
X157250000Y-86970000D01*
D29*
X159270000Y-88320000D02*
X159270000Y-87340000D01*
X159270000Y-87340000D02*
X158900000Y-86970000D01*
D27*
X158900000Y-86970000D02*
X158900000Y-85720000D01*
D29*
X158770000Y-92720000D02*
X158770000Y-100980000D01*
X156080000Y-103670000D02*
X156080000Y-104702500D01*
X158770000Y-100980000D02*
X156080000Y-103670000D01*
X157080000Y-104702500D02*
X157080000Y-103420000D01*
X159270000Y-101230000D02*
X159270000Y-92720000D01*
X157080000Y-103420000D02*
X159270000Y-101230000D01*
X159770000Y-92720000D02*
X159770000Y-101440000D01*
X158080000Y-103130000D02*
X158080000Y-104702500D01*
X159770000Y-101440000D02*
X158080000Y-103130000D01*
X160770000Y-88320000D02*
X161600000Y-88320000D01*
X163410000Y-94152402D02*
X160260000Y-97302402D01*
X163410000Y-90130000D02*
X163410000Y-94152402D01*
X161600000Y-88320000D02*
X163410000Y-90130000D01*
X159080000Y-102910000D02*
X159080000Y-104702500D01*
X160260000Y-101730000D02*
X159080000Y-102910000D01*
X160260000Y-97302402D02*
X160260000Y-101730000D01*
X143960000Y-104732500D02*
X143902500Y-104732500D01*
X143902500Y-104732500D02*
X143360000Y-104190000D01*
X143360000Y-102130000D02*
X143360000Y-104190000D01*
X143960000Y-104732500D02*
X143960000Y-94270000D01*
X144610000Y-93620000D02*
X145590000Y-93620000D01*
X143960000Y-94270000D02*
X144610000Y-93620000D01*
X143360000Y-102130000D02*
X143360000Y-101600000D01*
X143360000Y-101600000D02*
X142830000Y-101070000D01*
X142830000Y-101070000D02*
X142610000Y-101070000D01*
X160770000Y-92720000D02*
X160770000Y-91630000D01*
X160770000Y-91630000D02*
X160722402Y-91582402D01*
X145590000Y-93620000D02*
X155350000Y-93620000D01*
X155350000Y-93620000D02*
X157880000Y-91090000D01*
X157880000Y-91090000D02*
X160230000Y-91090000D01*
X160230000Y-91090000D02*
X160722402Y-91582402D01*
X142730000Y-97295000D02*
X142330000Y-97295000D01*
X144960000Y-105715000D02*
X144960000Y-104732500D01*
X144655000Y-106020000D02*
X144960000Y-105715000D01*
X142705000Y-106020000D02*
X144655000Y-106020000D01*
X138930000Y-102245000D02*
X142705000Y-106020000D01*
X138930000Y-97645000D02*
X138930000Y-102245000D01*
X139630000Y-96945000D02*
X138930000Y-97645000D01*
X141980000Y-96945000D02*
X139630000Y-96945000D01*
X142330000Y-97295000D02*
X141980000Y-96945000D01*
X142730000Y-98380000D02*
X142730000Y-97295000D01*
X145230000Y-94110000D02*
X144890000Y-94110000D01*
X144480000Y-94520000D02*
X144480000Y-94860000D01*
X144890000Y-94110000D02*
X144480000Y-94520000D01*
X145800000Y-94110000D02*
X145230000Y-94110000D01*
X144960000Y-103950000D02*
X144960000Y-104732500D01*
X144480000Y-94860000D02*
X144480000Y-103470000D01*
X144480000Y-103470000D02*
X144960000Y-103950000D01*
X160270000Y-92720000D02*
X160270000Y-91840000D01*
X155580000Y-94110000D02*
X145800000Y-94110000D01*
X158120000Y-91570000D02*
X155580000Y-94110000D01*
X160000000Y-91570000D02*
X158120000Y-91570000D01*
X160270000Y-91840000D02*
X160000000Y-91570000D01*
D32*
G36*
X164393000Y-111483000D02*
X138932000Y-111483000D01*
X138932000Y-103006432D01*
X140054426Y-104128858D01*
X139924783Y-104182425D01*
X139703203Y-104403618D01*
X139583137Y-104692769D01*
X139582864Y-105005857D01*
X139702425Y-105295217D01*
X139923618Y-105516797D01*
X140212769Y-105636863D01*
X140256047Y-105636901D01*
X141809573Y-107190427D01*
X142007641Y-107322771D01*
X141916587Y-107339904D01*
X141784870Y-107424661D01*
X141696506Y-107553986D01*
X141665419Y-107707500D01*
X141665419Y-109507500D01*
X141692404Y-109650913D01*
X141777161Y-109782630D01*
X141906486Y-109870994D01*
X142060000Y-109902081D01*
X143260000Y-109902081D01*
X143403413Y-109875096D01*
X143535130Y-109790339D01*
X143623494Y-109661014D01*
X143654581Y-109507500D01*
X143654581Y-107707500D01*
X147265419Y-107707500D01*
X147265419Y-109507500D01*
X147292404Y-109650913D01*
X147377161Y-109782630D01*
X147506486Y-109870994D01*
X147660000Y-109902081D01*
X148860000Y-109902081D01*
X149003413Y-109875096D01*
X149135130Y-109790339D01*
X149223494Y-109661014D01*
X149254581Y-109507500D01*
X149254581Y-107707500D01*
X149248937Y-107677500D01*
X152785419Y-107677500D01*
X152785419Y-109477500D01*
X152812404Y-109620913D01*
X152897161Y-109752630D01*
X153026486Y-109840994D01*
X153180000Y-109872081D01*
X154380000Y-109872081D01*
X154523413Y-109845096D01*
X154655130Y-109760339D01*
X154743494Y-109631014D01*
X154774581Y-109477500D01*
X154774581Y-107677500D01*
X160385419Y-107677500D01*
X160385419Y-109477500D01*
X160412404Y-109620913D01*
X160497161Y-109752630D01*
X160626486Y-109840994D01*
X160780000Y-109872081D01*
X161980000Y-109872081D01*
X162123413Y-109845096D01*
X162255130Y-109760339D01*
X162343494Y-109631014D01*
X162374581Y-109477500D01*
X162374581Y-107677500D01*
X162347596Y-107534087D01*
X162262839Y-107402370D01*
X162133514Y-107314006D01*
X161980000Y-107282919D01*
X160780000Y-107282919D01*
X160636587Y-107309904D01*
X160504870Y-107394661D01*
X160416506Y-107523986D01*
X160385419Y-107677500D01*
X154774581Y-107677500D01*
X154747596Y-107534087D01*
X154662839Y-107402370D01*
X154533514Y-107314006D01*
X154380000Y-107282919D01*
X153180000Y-107282919D01*
X153036587Y-107309904D01*
X152904870Y-107394661D01*
X152816506Y-107523986D01*
X152785419Y-107677500D01*
X149248937Y-107677500D01*
X149227596Y-107564087D01*
X149142839Y-107432370D01*
X149013514Y-107344006D01*
X148860000Y-107312919D01*
X147660000Y-107312919D01*
X147516587Y-107339904D01*
X147384870Y-107424661D01*
X147296506Y-107553986D01*
X147265419Y-107707500D01*
X143654581Y-107707500D01*
X143627596Y-107564087D01*
X143542839Y-107432370D01*
X143461802Y-107377000D01*
X145290000Y-107377000D01*
X145533769Y-107328511D01*
X145740427Y-107190427D01*
X146410427Y-106520427D01*
X146548511Y-106313769D01*
X146582579Y-106142500D01*
X146674250Y-106142500D01*
X146833000Y-105983750D01*
X146833000Y-104859500D01*
X147087000Y-104859500D01*
X147087000Y-105983750D01*
X147245750Y-106142500D01*
X147386309Y-106142500D01*
X147619698Y-106045827D01*
X147798327Y-105867199D01*
X147895000Y-105633810D01*
X147895000Y-105018250D01*
X147865000Y-104988250D01*
X154145000Y-104988250D01*
X154145000Y-105603810D01*
X154241673Y-105837199D01*
X154420302Y-106015827D01*
X154653691Y-106112500D01*
X154794250Y-106112500D01*
X154953000Y-105953750D01*
X154953000Y-104829500D01*
X154303750Y-104829500D01*
X154145000Y-104988250D01*
X147865000Y-104988250D01*
X147736250Y-104859500D01*
X147087000Y-104859500D01*
X146833000Y-104859500D01*
X146813000Y-104859500D01*
X146813000Y-104605500D01*
X146833000Y-104605500D01*
X146833000Y-103481250D01*
X147087000Y-103481250D01*
X147087000Y-104605500D01*
X147736250Y-104605500D01*
X147895000Y-104446750D01*
X147895000Y-103831190D01*
X147882574Y-103801190D01*
X154145000Y-103801190D01*
X154145000Y-104416750D01*
X154303750Y-104575500D01*
X154953000Y-104575500D01*
X154953000Y-103451250D01*
X154794250Y-103292500D01*
X154653691Y-103292500D01*
X154420302Y-103389173D01*
X154241673Y-103567801D01*
X154145000Y-103801190D01*
X147882574Y-103801190D01*
X147798327Y-103597801D01*
X147619698Y-103419173D01*
X147386309Y-103322500D01*
X147245750Y-103322500D01*
X147087000Y-103481250D01*
X146833000Y-103481250D01*
X146674250Y-103322500D01*
X146533691Y-103322500D01*
X146300302Y-103419173D01*
X146156555Y-103562919D01*
X145660000Y-103562919D01*
X145516587Y-103589904D01*
X145460413Y-103626051D01*
X145413514Y-103594006D01*
X145346500Y-103580435D01*
X145339717Y-103570284D01*
X145017000Y-103247568D01*
X145017000Y-94742432D01*
X145112433Y-94647000D01*
X155580000Y-94647000D01*
X155785501Y-94606123D01*
X155959716Y-94489716D01*
X158225419Y-92224014D01*
X158225419Y-93420000D01*
X158233000Y-93460290D01*
X158233000Y-100757567D01*
X155700284Y-103290284D01*
X155657076Y-103354950D01*
X155506309Y-103292500D01*
X155365750Y-103292500D01*
X155207000Y-103451250D01*
X155207000Y-104575500D01*
X155227000Y-104575500D01*
X155227000Y-104829500D01*
X155207000Y-104829500D01*
X155207000Y-105953750D01*
X155365750Y-106112500D01*
X155506309Y-106112500D01*
X155739698Y-106015827D01*
X155883445Y-105872081D01*
X156380000Y-105872081D01*
X156523413Y-105845096D01*
X156579587Y-105808949D01*
X156626486Y-105840994D01*
X156780000Y-105872081D01*
X157380000Y-105872081D01*
X157523413Y-105845096D01*
X157579587Y-105808949D01*
X157626486Y-105840994D01*
X157780000Y-105872081D01*
X158380000Y-105872081D01*
X158523413Y-105845096D01*
X158579587Y-105808949D01*
X158626486Y-105840994D01*
X158780000Y-105872081D01*
X159380000Y-105872081D01*
X159523413Y-105845096D01*
X159579587Y-105808949D01*
X159626486Y-105840994D01*
X159780000Y-105872081D01*
X160380000Y-105872081D01*
X160523413Y-105845096D01*
X160655130Y-105760339D01*
X160743494Y-105631014D01*
X160774581Y-105477500D01*
X160774581Y-105339500D01*
X162297500Y-105339500D01*
X162541269Y-105291011D01*
X162668128Y-105206247D01*
X162722623Y-105183730D01*
X162903097Y-105003571D01*
X163000889Y-104768062D01*
X163001111Y-104513057D01*
X162903730Y-104277377D01*
X162723571Y-104096903D01*
X162488062Y-103999111D01*
X162233057Y-103998889D01*
X162071846Y-104065500D01*
X160774581Y-104065500D01*
X160774581Y-103927500D01*
X160747596Y-103784087D01*
X160662839Y-103652370D01*
X160533514Y-103564006D01*
X160380000Y-103532919D01*
X159780000Y-103532919D01*
X159636587Y-103559904D01*
X159617000Y-103572508D01*
X159617000Y-103132432D01*
X160639716Y-102109716D01*
X160756123Y-101935501D01*
X160797000Y-101730000D01*
X160797000Y-97524834D01*
X163789717Y-94532118D01*
X163906123Y-94357903D01*
X163947000Y-94152402D01*
X163947000Y-90130000D01*
X163906123Y-89924499D01*
X163832871Y-89814870D01*
X163789717Y-89750284D01*
X161979716Y-87940284D01*
X161855105Y-87857022D01*
X162005661Y-87857153D01*
X162331789Y-87722400D01*
X162581523Y-87473101D01*
X162716845Y-87147209D01*
X162717153Y-86794339D01*
X162582400Y-86468211D01*
X162333101Y-86218477D01*
X162007209Y-86083155D01*
X161965000Y-86083118D01*
X161965000Y-86053750D01*
X161806250Y-85895000D01*
X161205000Y-85895000D01*
X161205000Y-85917000D01*
X160955000Y-85917000D01*
X160955000Y-85895000D01*
X160933000Y-85895000D01*
X160933000Y-85645000D01*
X160955000Y-85645000D01*
X160955000Y-85043750D01*
X161205000Y-85043750D01*
X161205000Y-85645000D01*
X161806250Y-85645000D01*
X161965000Y-85486250D01*
X161965000Y-85393690D01*
X161868327Y-85160301D01*
X161689698Y-84981673D01*
X161456309Y-84885000D01*
X161363750Y-84885000D01*
X161205000Y-85043750D01*
X160955000Y-85043750D01*
X160797000Y-84885750D01*
X160797000Y-84817437D01*
X160804581Y-84780000D01*
X160804581Y-84280000D01*
X160777596Y-84136587D01*
X160734821Y-84070113D01*
X160773494Y-84013514D01*
X160804581Y-83860000D01*
X160804581Y-83360000D01*
X160777596Y-83216587D01*
X160692839Y-83084870D01*
X160563514Y-82996506D01*
X160410000Y-82965419D01*
X159910000Y-82965419D01*
X159869710Y-82973000D01*
X159544581Y-82973000D01*
X159544581Y-82630000D01*
X159517596Y-82486587D01*
X159474821Y-82420113D01*
X159513494Y-82363514D01*
X159544581Y-82210000D01*
X159544581Y-81710000D01*
X159537000Y-81669710D01*
X159537000Y-81287437D01*
X159544581Y-81250000D01*
X159544581Y-80750000D01*
X159537000Y-80709710D01*
X159537000Y-80257437D01*
X159544581Y-80220000D01*
X159544581Y-79720000D01*
X159517596Y-79576587D01*
X159474821Y-79510113D01*
X159513494Y-79453514D01*
X159544581Y-79300000D01*
X159544581Y-78800000D01*
X159517596Y-78656587D01*
X159507270Y-78640541D01*
X159488511Y-78546231D01*
X159350427Y-78339573D01*
X158920427Y-77909573D01*
X158713769Y-77771489D01*
X158470000Y-77723000D01*
X153597000Y-77723000D01*
X153597000Y-76322000D01*
X164393000Y-76322000D01*
X164393000Y-111483000D01*
X164393000Y-111483000D01*
G37*
X164393000Y-111483000D02*
X138932000Y-111483000D01*
X138932000Y-103006432D01*
X140054426Y-104128858D01*
X139924783Y-104182425D01*
X139703203Y-104403618D01*
X139583137Y-104692769D01*
X139582864Y-105005857D01*
X139702425Y-105295217D01*
X139923618Y-105516797D01*
X140212769Y-105636863D01*
X140256047Y-105636901D01*
X141809573Y-107190427D01*
X142007641Y-107322771D01*
X141916587Y-107339904D01*
X141784870Y-107424661D01*
X141696506Y-107553986D01*
X141665419Y-107707500D01*
X141665419Y-109507500D01*
X141692404Y-109650913D01*
X141777161Y-109782630D01*
X141906486Y-109870994D01*
X142060000Y-109902081D01*
X143260000Y-109902081D01*
X143403413Y-109875096D01*
X143535130Y-109790339D01*
X143623494Y-109661014D01*
X143654581Y-109507500D01*
X143654581Y-107707500D01*
X147265419Y-107707500D01*
X147265419Y-109507500D01*
X147292404Y-109650913D01*
X147377161Y-109782630D01*
X147506486Y-109870994D01*
X147660000Y-109902081D01*
X148860000Y-109902081D01*
X149003413Y-109875096D01*
X149135130Y-109790339D01*
X149223494Y-109661014D01*
X149254581Y-109507500D01*
X149254581Y-107707500D01*
X149248937Y-107677500D01*
X152785419Y-107677500D01*
X152785419Y-109477500D01*
X152812404Y-109620913D01*
X152897161Y-109752630D01*
X153026486Y-109840994D01*
X153180000Y-109872081D01*
X154380000Y-109872081D01*
X154523413Y-109845096D01*
X154655130Y-109760339D01*
X154743494Y-109631014D01*
X154774581Y-109477500D01*
X154774581Y-107677500D01*
X160385419Y-107677500D01*
X160385419Y-109477500D01*
X160412404Y-109620913D01*
X160497161Y-109752630D01*
X160626486Y-109840994D01*
X160780000Y-109872081D01*
X161980000Y-109872081D01*
X162123413Y-109845096D01*
X162255130Y-109760339D01*
X162343494Y-109631014D01*
X162374581Y-109477500D01*
X162374581Y-107677500D01*
X162347596Y-107534087D01*
X162262839Y-107402370D01*
X162133514Y-107314006D01*
X161980000Y-107282919D01*
X160780000Y-107282919D01*
X160636587Y-107309904D01*
X160504870Y-107394661D01*
X160416506Y-107523986D01*
X160385419Y-107677500D01*
X154774581Y-107677500D01*
X154747596Y-107534087D01*
X154662839Y-107402370D01*
X154533514Y-107314006D01*
X154380000Y-107282919D01*
X153180000Y-107282919D01*
X153036587Y-107309904D01*
X152904870Y-107394661D01*
X152816506Y-107523986D01*
X152785419Y-107677500D01*
X149248937Y-107677500D01*
X149227596Y-107564087D01*
X149142839Y-107432370D01*
X149013514Y-107344006D01*
X148860000Y-107312919D01*
X147660000Y-107312919D01*
X147516587Y-107339904D01*
X147384870Y-107424661D01*
X147296506Y-107553986D01*
X147265419Y-107707500D01*
X143654581Y-107707500D01*
X143627596Y-107564087D01*
X143542839Y-107432370D01*
X143461802Y-107377000D01*
X145290000Y-107377000D01*
X145533769Y-107328511D01*
X145740427Y-107190427D01*
X146410427Y-106520427D01*
X146548511Y-106313769D01*
X146582579Y-106142500D01*
X146674250Y-106142500D01*
X146833000Y-105983750D01*
X146833000Y-104859500D01*
X147087000Y-104859500D01*
X147087000Y-105983750D01*
X147245750Y-106142500D01*
X147386309Y-106142500D01*
X147619698Y-106045827D01*
X147798327Y-105867199D01*
X147895000Y-105633810D01*
X147895000Y-105018250D01*
X147865000Y-104988250D01*
X154145000Y-104988250D01*
X154145000Y-105603810D01*
X154241673Y-105837199D01*
X154420302Y-106015827D01*
X154653691Y-106112500D01*
X154794250Y-106112500D01*
X154953000Y-105953750D01*
X154953000Y-104829500D01*
X154303750Y-104829500D01*
X154145000Y-104988250D01*
X147865000Y-104988250D01*
X147736250Y-104859500D01*
X147087000Y-104859500D01*
X146833000Y-104859500D01*
X146813000Y-104859500D01*
X146813000Y-104605500D01*
X146833000Y-104605500D01*
X146833000Y-103481250D01*
X147087000Y-103481250D01*
X147087000Y-104605500D01*
X147736250Y-104605500D01*
X147895000Y-104446750D01*
X147895000Y-103831190D01*
X147882574Y-103801190D01*
X154145000Y-103801190D01*
X154145000Y-104416750D01*
X154303750Y-104575500D01*
X154953000Y-104575500D01*
X154953000Y-103451250D01*
X154794250Y-103292500D01*
X154653691Y-103292500D01*
X154420302Y-103389173D01*
X154241673Y-103567801D01*
X154145000Y-103801190D01*
X147882574Y-103801190D01*
X147798327Y-103597801D01*
X147619698Y-103419173D01*
X147386309Y-103322500D01*
X147245750Y-103322500D01*
X147087000Y-103481250D01*
X146833000Y-103481250D01*
X146674250Y-103322500D01*
X146533691Y-103322500D01*
X146300302Y-103419173D01*
X146156555Y-103562919D01*
X145660000Y-103562919D01*
X145516587Y-103589904D01*
X145460413Y-103626051D01*
X145413514Y-103594006D01*
X145346500Y-103580435D01*
X145339717Y-103570284D01*
X145017000Y-103247568D01*
X145017000Y-94742432D01*
X145112433Y-94647000D01*
X155580000Y-94647000D01*
X155785501Y-94606123D01*
X155959716Y-94489716D01*
X158225419Y-92224014D01*
X158225419Y-93420000D01*
X158233000Y-93460290D01*
X158233000Y-100757567D01*
X155700284Y-103290284D01*
X155657076Y-103354950D01*
X155506309Y-103292500D01*
X155365750Y-103292500D01*
X155207000Y-103451250D01*
X155207000Y-104575500D01*
X155227000Y-104575500D01*
X155227000Y-104829500D01*
X155207000Y-104829500D01*
X155207000Y-105953750D01*
X155365750Y-106112500D01*
X155506309Y-106112500D01*
X155739698Y-106015827D01*
X155883445Y-105872081D01*
X156380000Y-105872081D01*
X156523413Y-105845096D01*
X156579587Y-105808949D01*
X156626486Y-105840994D01*
X156780000Y-105872081D01*
X157380000Y-105872081D01*
X157523413Y-105845096D01*
X157579587Y-105808949D01*
X157626486Y-105840994D01*
X157780000Y-105872081D01*
X158380000Y-105872081D01*
X158523413Y-105845096D01*
X158579587Y-105808949D01*
X158626486Y-105840994D01*
X158780000Y-105872081D01*
X159380000Y-105872081D01*
X159523413Y-105845096D01*
X159579587Y-105808949D01*
X159626486Y-105840994D01*
X159780000Y-105872081D01*
X160380000Y-105872081D01*
X160523413Y-105845096D01*
X160655130Y-105760339D01*
X160743494Y-105631014D01*
X160774581Y-105477500D01*
X160774581Y-105339500D01*
X162297500Y-105339500D01*
X162541269Y-105291011D01*
X162668128Y-105206247D01*
X162722623Y-105183730D01*
X162903097Y-105003571D01*
X163000889Y-104768062D01*
X163001111Y-104513057D01*
X162903730Y-104277377D01*
X162723571Y-104096903D01*
X162488062Y-103999111D01*
X162233057Y-103998889D01*
X162071846Y-104065500D01*
X160774581Y-104065500D01*
X160774581Y-103927500D01*
X160747596Y-103784087D01*
X160662839Y-103652370D01*
X160533514Y-103564006D01*
X160380000Y-103532919D01*
X159780000Y-103532919D01*
X159636587Y-103559904D01*
X159617000Y-103572508D01*
X159617000Y-103132432D01*
X160639716Y-102109716D01*
X160756123Y-101935501D01*
X160797000Y-101730000D01*
X160797000Y-97524834D01*
X163789717Y-94532118D01*
X163906123Y-94357903D01*
X163947000Y-94152402D01*
X163947000Y-90130000D01*
X163906123Y-89924499D01*
X163832871Y-89814870D01*
X163789717Y-89750284D01*
X161979716Y-87940284D01*
X161855105Y-87857022D01*
X162005661Y-87857153D01*
X162331789Y-87722400D01*
X162581523Y-87473101D01*
X162716845Y-87147209D01*
X162717153Y-86794339D01*
X162582400Y-86468211D01*
X162333101Y-86218477D01*
X162007209Y-86083155D01*
X161965000Y-86083118D01*
X161965000Y-86053750D01*
X161806250Y-85895000D01*
X161205000Y-85895000D01*
X161205000Y-85917000D01*
X160955000Y-85917000D01*
X160955000Y-85895000D01*
X160933000Y-85895000D01*
X160933000Y-85645000D01*
X160955000Y-85645000D01*
X160955000Y-85043750D01*
X161205000Y-85043750D01*
X161205000Y-85645000D01*
X161806250Y-85645000D01*
X161965000Y-85486250D01*
X161965000Y-85393690D01*
X161868327Y-85160301D01*
X161689698Y-84981673D01*
X161456309Y-84885000D01*
X161363750Y-84885000D01*
X161205000Y-85043750D01*
X160955000Y-85043750D01*
X160797000Y-84885750D01*
X160797000Y-84817437D01*
X160804581Y-84780000D01*
X160804581Y-84280000D01*
X160777596Y-84136587D01*
X160734821Y-84070113D01*
X160773494Y-84013514D01*
X160804581Y-83860000D01*
X160804581Y-83360000D01*
X160777596Y-83216587D01*
X160692839Y-83084870D01*
X160563514Y-82996506D01*
X160410000Y-82965419D01*
X159910000Y-82965419D01*
X159869710Y-82973000D01*
X159544581Y-82973000D01*
X159544581Y-82630000D01*
X159517596Y-82486587D01*
X159474821Y-82420113D01*
X159513494Y-82363514D01*
X159544581Y-82210000D01*
X159544581Y-81710000D01*
X159537000Y-81669710D01*
X159537000Y-81287437D01*
X159544581Y-81250000D01*
X159544581Y-80750000D01*
X159537000Y-80709710D01*
X159537000Y-80257437D01*
X159544581Y-80220000D01*
X159544581Y-79720000D01*
X159517596Y-79576587D01*
X159474821Y-79510113D01*
X159513494Y-79453514D01*
X159544581Y-79300000D01*
X159544581Y-78800000D01*
X159517596Y-78656587D01*
X159507270Y-78640541D01*
X159488511Y-78546231D01*
X159350427Y-78339573D01*
X158920427Y-77909573D01*
X158713769Y-77771489D01*
X158470000Y-77723000D01*
X153597000Y-77723000D01*
X153597000Y-76322000D01*
X164393000Y-76322000D01*
X164393000Y-111483000D01*
G36*
X141195301Y-97526673D02*
X141051556Y-97670419D01*
X140605000Y-97670419D01*
X140461587Y-97697404D01*
X140329870Y-97782161D01*
X140241506Y-97911486D01*
X140210419Y-98065000D01*
X140210419Y-98583590D01*
X140204870Y-98587161D01*
X140116506Y-98716486D01*
X140085419Y-98870000D01*
X140085419Y-100570000D01*
X140112404Y-100713413D01*
X140197161Y-100845130D01*
X140210419Y-100854189D01*
X140210419Y-101185000D01*
X140178691Y-101185000D01*
X139945302Y-101281673D01*
X139766673Y-101460301D01*
X139670000Y-101693690D01*
X139670000Y-101786250D01*
X139828750Y-101945000D01*
X140478000Y-101945000D01*
X140478000Y-101923000D01*
X140732000Y-101923000D01*
X140732000Y-101945000D01*
X140752000Y-101945000D01*
X140752000Y-102195000D01*
X140732000Y-102195000D01*
X140732000Y-102796250D01*
X140890750Y-102955000D01*
X140917948Y-102955000D01*
X140917864Y-103050857D01*
X141037425Y-103340217D01*
X141258618Y-103561797D01*
X141547769Y-103681863D01*
X141860857Y-103682136D01*
X142150217Y-103562575D01*
X142371797Y-103341382D01*
X142491863Y-103052231D01*
X142492114Y-102764581D01*
X142730000Y-102764581D01*
X142823000Y-102747082D01*
X142823000Y-104190000D01*
X142863877Y-104395501D01*
X142980284Y-104569716D01*
X143265419Y-104854851D01*
X143265419Y-105483000D01*
X142927432Y-105483000D01*
X140359341Y-102914909D01*
X140478000Y-102796250D01*
X140478000Y-102195000D01*
X139828750Y-102195000D01*
X139734091Y-102289659D01*
X139467000Y-102022568D01*
X139467000Y-97867432D01*
X139852433Y-97482000D01*
X141303151Y-97482000D01*
X141195301Y-97526673D01*
X141195301Y-97526673D01*
G37*
X141195301Y-97526673D02*
X141051556Y-97670419D01*
X140605000Y-97670419D01*
X140461587Y-97697404D01*
X140329870Y-97782161D01*
X140241506Y-97911486D01*
X140210419Y-98065000D01*
X140210419Y-98583590D01*
X140204870Y-98587161D01*
X140116506Y-98716486D01*
X140085419Y-98870000D01*
X140085419Y-100570000D01*
X140112404Y-100713413D01*
X140197161Y-100845130D01*
X140210419Y-100854189D01*
X140210419Y-101185000D01*
X140178691Y-101185000D01*
X139945302Y-101281673D01*
X139766673Y-101460301D01*
X139670000Y-101693690D01*
X139670000Y-101786250D01*
X139828750Y-101945000D01*
X140478000Y-101945000D01*
X140478000Y-101923000D01*
X140732000Y-101923000D01*
X140732000Y-101945000D01*
X140752000Y-101945000D01*
X140752000Y-102195000D01*
X140732000Y-102195000D01*
X140732000Y-102796250D01*
X140890750Y-102955000D01*
X140917948Y-102955000D01*
X140917864Y-103050857D01*
X141037425Y-103340217D01*
X141258618Y-103561797D01*
X141547769Y-103681863D01*
X141860857Y-103682136D01*
X142150217Y-103562575D01*
X142371797Y-103341382D01*
X142491863Y-103052231D01*
X142492114Y-102764581D01*
X142730000Y-102764581D01*
X142823000Y-102747082D01*
X142823000Y-104190000D01*
X142863877Y-104395501D01*
X142980284Y-104569716D01*
X143265419Y-104854851D01*
X143265419Y-105483000D01*
X142927432Y-105483000D01*
X140359341Y-102914909D01*
X140478000Y-102796250D01*
X140478000Y-102195000D01*
X139828750Y-102195000D01*
X139734091Y-102289659D01*
X139467000Y-102022568D01*
X139467000Y-97867432D01*
X139852433Y-97482000D01*
X141303151Y-97482000D01*
X141195301Y-97526673D01*
G36*
X141892500Y-98253000D02*
X141927000Y-98253000D01*
X141927000Y-98475419D01*
X141633000Y-98475419D01*
X141633000Y-98253000D01*
X141667500Y-98253000D01*
X141667500Y-98233000D01*
X141892500Y-98233000D01*
X141892500Y-98253000D01*
X141892500Y-98253000D01*
G37*
X141892500Y-98253000D02*
X141927000Y-98253000D01*
X141927000Y-98475419D01*
X141633000Y-98475419D01*
X141633000Y-98253000D01*
X141667500Y-98253000D01*
X141667500Y-98233000D01*
X141892500Y-98233000D01*
X141892500Y-98253000D01*
G36*
X158255419Y-80123331D02*
X158105000Y-80273750D01*
X158105000Y-80875000D01*
X158127000Y-80875000D01*
X158127000Y-81125000D01*
X158105000Y-81125000D01*
X158105000Y-81726250D01*
X158255419Y-81876669D01*
X158255419Y-82210000D01*
X158282404Y-82353413D01*
X158325179Y-82419887D01*
X158286506Y-82476486D01*
X158255419Y-82630000D01*
X158255419Y-82963331D01*
X158105000Y-83113750D01*
X158105000Y-83715000D01*
X158127000Y-83715000D01*
X158127000Y-83965000D01*
X158105000Y-83965000D01*
X158105000Y-84566250D01*
X158255419Y-84716669D01*
X158255419Y-85050000D01*
X158282404Y-85193413D01*
X158325179Y-85259887D01*
X158286506Y-85316486D01*
X158255419Y-85470000D01*
X158255419Y-85970000D01*
X158263000Y-86010290D01*
X158263000Y-86189292D01*
X157980000Y-86133000D01*
X157547249Y-86133000D01*
X157427209Y-86083155D01*
X157074339Y-86082847D01*
X156748211Y-86217600D01*
X156498477Y-86466899D01*
X156363155Y-86792791D01*
X156362847Y-87145661D01*
X156497600Y-87471789D01*
X156746899Y-87721523D01*
X157072791Y-87856845D01*
X157090913Y-87856861D01*
X157050000Y-87873808D01*
X156956310Y-87835000D01*
X156863750Y-87835000D01*
X156705000Y-87993750D01*
X156705000Y-88174696D01*
X156635000Y-88343691D01*
X156635000Y-88484250D01*
X156705000Y-88554250D01*
X156705000Y-88643000D01*
X157395000Y-88643000D01*
X157395000Y-88554250D01*
X157465000Y-88484250D01*
X157465000Y-88343691D01*
X157395000Y-88174696D01*
X157395000Y-87993750D01*
X157258257Y-87857007D01*
X157425661Y-87857153D01*
X157547041Y-87807000D01*
X157980000Y-87807000D01*
X158225419Y-87758183D01*
X158225419Y-88027394D01*
X158129699Y-87931673D01*
X157896310Y-87835000D01*
X157803750Y-87835000D01*
X157645000Y-87993750D01*
X157645000Y-88643000D01*
X157667000Y-88643000D01*
X157667000Y-88897000D01*
X157645000Y-88897000D01*
X157645000Y-88917000D01*
X157395000Y-88917000D01*
X157395000Y-88897000D01*
X156705000Y-88897000D01*
X156705000Y-88917000D01*
X156455000Y-88917000D01*
X156455000Y-88897000D01*
X156433000Y-88897000D01*
X156433000Y-88643000D01*
X156455000Y-88643000D01*
X156455000Y-87993750D01*
X156296250Y-87835000D01*
X156203690Y-87835000D01*
X155970301Y-87931673D01*
X155898452Y-88003522D01*
X155781310Y-87955000D01*
X155565750Y-87955000D01*
X155407000Y-88113750D01*
X155407000Y-88863000D01*
X155427000Y-88863000D01*
X155427000Y-89117000D01*
X155407000Y-89117000D01*
X155407000Y-89137000D01*
X155153000Y-89137000D01*
X155153000Y-89117000D01*
X154428750Y-89117000D01*
X154270000Y-89275750D01*
X154270000Y-89516309D01*
X154366673Y-89749698D01*
X154545301Y-89928327D01*
X154546688Y-89928902D01*
X154541506Y-89936486D01*
X154510419Y-90090000D01*
X154510419Y-90890000D01*
X154537404Y-91033413D01*
X154622161Y-91165130D01*
X154643000Y-91179369D01*
X154643000Y-91783744D01*
X154393744Y-92033000D01*
X145926127Y-92033000D01*
X145896382Y-92003203D01*
X145607231Y-91883137D01*
X145294143Y-91882864D01*
X145004783Y-92002425D01*
X144783203Y-92223618D01*
X144663137Y-92512769D01*
X144662864Y-92825857D01*
X144769113Y-93083000D01*
X144610000Y-93083000D01*
X144404499Y-93123877D01*
X144230284Y-93240284D01*
X143580284Y-93890284D01*
X143463877Y-94064499D01*
X143423000Y-94270000D01*
X143423000Y-96186598D01*
X143397596Y-96051587D01*
X143312839Y-95919870D01*
X143183514Y-95831506D01*
X143030000Y-95800419D01*
X142875054Y-95800419D01*
X142760501Y-95723877D01*
X142555000Y-95683000D01*
X141232792Y-95683000D01*
X140992252Y-95583120D01*
X140718947Y-95582881D01*
X140466354Y-95687250D01*
X140272929Y-95880338D01*
X140168120Y-96132748D01*
X140167881Y-96406053D01*
X140168685Y-96408000D01*
X139630000Y-96408000D01*
X139424499Y-96448877D01*
X139250283Y-96565284D01*
X138932000Y-96883567D01*
X138932000Y-90977110D01*
X153469914Y-90987000D01*
X153519331Y-90977028D01*
X153560974Y-90948615D01*
X153588283Y-90906240D01*
X153597000Y-90860000D01*
X153597000Y-88463691D01*
X154270000Y-88463691D01*
X154270000Y-88704250D01*
X154428750Y-88863000D01*
X155153000Y-88863000D01*
X155153000Y-88113750D01*
X154994250Y-87955000D01*
X154778690Y-87955000D01*
X154545301Y-88051673D01*
X154366673Y-88230302D01*
X154270000Y-88463691D01*
X153597000Y-88463691D01*
X153597000Y-84123750D01*
X157095000Y-84123750D01*
X157095000Y-84216310D01*
X157191673Y-84449699D01*
X157370302Y-84628327D01*
X157603691Y-84725000D01*
X157696250Y-84725000D01*
X157855000Y-84566250D01*
X157855000Y-83965000D01*
X157253750Y-83965000D01*
X157095000Y-84123750D01*
X153597000Y-84123750D01*
X153597000Y-83463690D01*
X157095000Y-83463690D01*
X157095000Y-83556250D01*
X157253750Y-83715000D01*
X157855000Y-83715000D01*
X157855000Y-83113750D01*
X157696250Y-82955000D01*
X157603691Y-82955000D01*
X157370302Y-83051673D01*
X157191673Y-83230301D01*
X157095000Y-83463690D01*
X153597000Y-83463690D01*
X153597000Y-81283750D01*
X157095000Y-81283750D01*
X157095000Y-81376310D01*
X157191673Y-81609699D01*
X157370302Y-81788327D01*
X157603691Y-81885000D01*
X157696250Y-81885000D01*
X157855000Y-81726250D01*
X157855000Y-81125000D01*
X157253750Y-81125000D01*
X157095000Y-81283750D01*
X153597000Y-81283750D01*
X153597000Y-80623690D01*
X157095000Y-80623690D01*
X157095000Y-80716250D01*
X157253750Y-80875000D01*
X157855000Y-80875000D01*
X157855000Y-80273750D01*
X157696250Y-80115000D01*
X157603691Y-80115000D01*
X157370302Y-80211673D01*
X157191673Y-80390301D01*
X157095000Y-80623690D01*
X153597000Y-80623690D01*
X153597000Y-79797000D01*
X158255419Y-79797000D01*
X158255419Y-80123331D01*
X158255419Y-80123331D01*
G37*
X158255419Y-80123331D02*
X158105000Y-80273750D01*
X158105000Y-80875000D01*
X158127000Y-80875000D01*
X158127000Y-81125000D01*
X158105000Y-81125000D01*
X158105000Y-81726250D01*
X158255419Y-81876669D01*
X158255419Y-82210000D01*
X158282404Y-82353413D01*
X158325179Y-82419887D01*
X158286506Y-82476486D01*
X158255419Y-82630000D01*
X158255419Y-82963331D01*
X158105000Y-83113750D01*
X158105000Y-83715000D01*
X158127000Y-83715000D01*
X158127000Y-83965000D01*
X158105000Y-83965000D01*
X158105000Y-84566250D01*
X158255419Y-84716669D01*
X158255419Y-85050000D01*
X158282404Y-85193413D01*
X158325179Y-85259887D01*
X158286506Y-85316486D01*
X158255419Y-85470000D01*
X158255419Y-85970000D01*
X158263000Y-86010290D01*
X158263000Y-86189292D01*
X157980000Y-86133000D01*
X157547249Y-86133000D01*
X157427209Y-86083155D01*
X157074339Y-86082847D01*
X156748211Y-86217600D01*
X156498477Y-86466899D01*
X156363155Y-86792791D01*
X156362847Y-87145661D01*
X156497600Y-87471789D01*
X156746899Y-87721523D01*
X157072791Y-87856845D01*
X157090913Y-87856861D01*
X157050000Y-87873808D01*
X156956310Y-87835000D01*
X156863750Y-87835000D01*
X156705000Y-87993750D01*
X156705000Y-88174696D01*
X156635000Y-88343691D01*
X156635000Y-88484250D01*
X156705000Y-88554250D01*
X156705000Y-88643000D01*
X157395000Y-88643000D01*
X157395000Y-88554250D01*
X157465000Y-88484250D01*
X157465000Y-88343691D01*
X157395000Y-88174696D01*
X157395000Y-87993750D01*
X157258257Y-87857007D01*
X157425661Y-87857153D01*
X157547041Y-87807000D01*
X157980000Y-87807000D01*
X158225419Y-87758183D01*
X158225419Y-88027394D01*
X158129699Y-87931673D01*
X157896310Y-87835000D01*
X157803750Y-87835000D01*
X157645000Y-87993750D01*
X157645000Y-88643000D01*
X157667000Y-88643000D01*
X157667000Y-88897000D01*
X157645000Y-88897000D01*
X157645000Y-88917000D01*
X157395000Y-88917000D01*
X157395000Y-88897000D01*
X156705000Y-88897000D01*
X156705000Y-88917000D01*
X156455000Y-88917000D01*
X156455000Y-88897000D01*
X156433000Y-88897000D01*
X156433000Y-88643000D01*
X156455000Y-88643000D01*
X156455000Y-87993750D01*
X156296250Y-87835000D01*
X156203690Y-87835000D01*
X155970301Y-87931673D01*
X155898452Y-88003522D01*
X155781310Y-87955000D01*
X155565750Y-87955000D01*
X155407000Y-88113750D01*
X155407000Y-88863000D01*
X155427000Y-88863000D01*
X155427000Y-89117000D01*
X155407000Y-89117000D01*
X155407000Y-89137000D01*
X155153000Y-89137000D01*
X155153000Y-89117000D01*
X154428750Y-89117000D01*
X154270000Y-89275750D01*
X154270000Y-89516309D01*
X154366673Y-89749698D01*
X154545301Y-89928327D01*
X154546688Y-89928902D01*
X154541506Y-89936486D01*
X154510419Y-90090000D01*
X154510419Y-90890000D01*
X154537404Y-91033413D01*
X154622161Y-91165130D01*
X154643000Y-91179369D01*
X154643000Y-91783744D01*
X154393744Y-92033000D01*
X145926127Y-92033000D01*
X145896382Y-92003203D01*
X145607231Y-91883137D01*
X145294143Y-91882864D01*
X145004783Y-92002425D01*
X144783203Y-92223618D01*
X144663137Y-92512769D01*
X144662864Y-92825857D01*
X144769113Y-93083000D01*
X144610000Y-93083000D01*
X144404499Y-93123877D01*
X144230284Y-93240284D01*
X143580284Y-93890284D01*
X143463877Y-94064499D01*
X143423000Y-94270000D01*
X143423000Y-96186598D01*
X143397596Y-96051587D01*
X143312839Y-95919870D01*
X143183514Y-95831506D01*
X143030000Y-95800419D01*
X142875054Y-95800419D01*
X142760501Y-95723877D01*
X142555000Y-95683000D01*
X141232792Y-95683000D01*
X140992252Y-95583120D01*
X140718947Y-95582881D01*
X140466354Y-95687250D01*
X140272929Y-95880338D01*
X140168120Y-96132748D01*
X140167881Y-96406053D01*
X140168685Y-96408000D01*
X139630000Y-96408000D01*
X139424499Y-96448877D01*
X139250283Y-96565284D01*
X138932000Y-96883567D01*
X138932000Y-90977110D01*
X153469914Y-90987000D01*
X153519331Y-90977028D01*
X153560974Y-90948615D01*
X153588283Y-90906240D01*
X153597000Y-90860000D01*
X153597000Y-88463691D01*
X154270000Y-88463691D01*
X154270000Y-88704250D01*
X154428750Y-88863000D01*
X155153000Y-88863000D01*
X155153000Y-88113750D01*
X154994250Y-87955000D01*
X154778690Y-87955000D01*
X154545301Y-88051673D01*
X154366673Y-88230302D01*
X154270000Y-88463691D01*
X153597000Y-88463691D01*
X153597000Y-84123750D01*
X157095000Y-84123750D01*
X157095000Y-84216310D01*
X157191673Y-84449699D01*
X157370302Y-84628327D01*
X157603691Y-84725000D01*
X157696250Y-84725000D01*
X157855000Y-84566250D01*
X157855000Y-83965000D01*
X157253750Y-83965000D01*
X157095000Y-84123750D01*
X153597000Y-84123750D01*
X153597000Y-83463690D01*
X157095000Y-83463690D01*
X157095000Y-83556250D01*
X157253750Y-83715000D01*
X157855000Y-83715000D01*
X157855000Y-83113750D01*
X157696250Y-82955000D01*
X157603691Y-82955000D01*
X157370302Y-83051673D01*
X157191673Y-83230301D01*
X157095000Y-83463690D01*
X153597000Y-83463690D01*
X153597000Y-81283750D01*
X157095000Y-81283750D01*
X157095000Y-81376310D01*
X157191673Y-81609699D01*
X157370302Y-81788327D01*
X157603691Y-81885000D01*
X157696250Y-81885000D01*
X157855000Y-81726250D01*
X157855000Y-81125000D01*
X157253750Y-81125000D01*
X157095000Y-81283750D01*
X153597000Y-81283750D01*
X153597000Y-80623690D01*
X157095000Y-80623690D01*
X157095000Y-80716250D01*
X157253750Y-80875000D01*
X157855000Y-80875000D01*
X157855000Y-80273750D01*
X157696250Y-80115000D01*
X157603691Y-80115000D01*
X157370302Y-80211673D01*
X157191673Y-80390301D01*
X157095000Y-80623690D01*
X153597000Y-80623690D01*
X153597000Y-79797000D01*
X158255419Y-79797000D01*
X158255419Y-80123331D01*
G36*
X162873000Y-90352433D02*
X162873000Y-93929969D01*
X160307000Y-96495970D01*
X160307000Y-93814581D01*
X160420000Y-93814581D01*
X160523671Y-93795074D01*
X160620000Y-93814581D01*
X160920000Y-93814581D01*
X161063413Y-93787596D01*
X161195130Y-93702839D01*
X161283494Y-93573514D01*
X161314581Y-93420000D01*
X161314581Y-92020000D01*
X161307000Y-91979710D01*
X161307000Y-91630000D01*
X161266123Y-91424499D01*
X161226033Y-91364500D01*
X161149717Y-91250284D01*
X161102121Y-91202689D01*
X161102119Y-91202686D01*
X160609716Y-90710284D01*
X160435501Y-90593877D01*
X160230000Y-90553000D01*
X159259870Y-90553000D01*
X159436797Y-90376382D01*
X159556863Y-90087231D01*
X159557136Y-89774143D01*
X159437575Y-89484783D01*
X159367496Y-89414581D01*
X159420000Y-89414581D01*
X159523671Y-89395074D01*
X159615681Y-89413706D01*
X159760301Y-89558327D01*
X159993690Y-89655000D01*
X160036250Y-89655000D01*
X160195000Y-89496250D01*
X160195000Y-89302923D01*
X160195130Y-89302839D01*
X160270830Y-89192048D01*
X160337161Y-89295130D01*
X160345000Y-89300486D01*
X160345000Y-89496250D01*
X160503750Y-89655000D01*
X160546310Y-89655000D01*
X160779699Y-89558327D01*
X160924242Y-89413783D01*
X161063413Y-89387596D01*
X161195130Y-89302839D01*
X161283494Y-89173514D01*
X161314581Y-89020000D01*
X161314581Y-88857000D01*
X161377568Y-88857000D01*
X162873000Y-90352433D01*
X162873000Y-90352433D01*
G37*
X162873000Y-90352433D02*
X162873000Y-93929969D01*
X160307000Y-96495970D01*
X160307000Y-93814581D01*
X160420000Y-93814581D01*
X160523671Y-93795074D01*
X160620000Y-93814581D01*
X160920000Y-93814581D01*
X161063413Y-93787596D01*
X161195130Y-93702839D01*
X161283494Y-93573514D01*
X161314581Y-93420000D01*
X161314581Y-92020000D01*
X161307000Y-91979710D01*
X161307000Y-91630000D01*
X161266123Y-91424499D01*
X161226033Y-91364500D01*
X161149717Y-91250284D01*
X161102121Y-91202689D01*
X161102119Y-91202686D01*
X160609716Y-90710284D01*
X160435501Y-90593877D01*
X160230000Y-90553000D01*
X159259870Y-90553000D01*
X159436797Y-90376382D01*
X159556863Y-90087231D01*
X159557136Y-89774143D01*
X159437575Y-89484783D01*
X159367496Y-89414581D01*
X159420000Y-89414581D01*
X159523671Y-89395074D01*
X159615681Y-89413706D01*
X159760301Y-89558327D01*
X159993690Y-89655000D01*
X160036250Y-89655000D01*
X160195000Y-89496250D01*
X160195000Y-89302923D01*
X160195130Y-89302839D01*
X160270830Y-89192048D01*
X160337161Y-89295130D01*
X160345000Y-89300486D01*
X160345000Y-89496250D01*
X160503750Y-89655000D01*
X160546310Y-89655000D01*
X160779699Y-89558327D01*
X160924242Y-89413783D01*
X161063413Y-89387596D01*
X161195130Y-89302839D01*
X161283494Y-89173514D01*
X161314581Y-89020000D01*
X161314581Y-88857000D01*
X161377568Y-88857000D01*
X162873000Y-90352433D01*
M02*
